<svg width="20" height="9" viewBox="0 0 20 9" fill="none" xmlns="http://www.w3.org/2000/svg">
<g clip-path="url(#clip0)">
<path fill-rule="evenodd" clip-rule="evenodd" d="M9.64834 0.162399C12.3203 2.4642 14.8238 4.85346 17.4002 7.2606V8.27004C10.8468 8.27004 8.11649 8.27004 1.83398 8.27004L1.95676 7.2606C4.55412 4.88026 7.04686 2.53824 9.64834 0.162399Z" fill="white"/>
<g filter="url(#filter0_d)">
<path fill-rule="evenodd" clip-rule="evenodd" d="M9.6378 0.0981445C12.3097 2.39994 14.8553 4.85353 17.4317 7.26067H19.2345V8.26067H17.0373C14.5894 5.97372 12.1596 3.6624 9.65463 1.43774C7.1818 3.70554 4.72934 5.99547 2.25411 8.26067H0V7.26067H1.8655C4.46286 4.88033 7.03631 2.47399 9.6378 0.0981445Z" fill="#E2231A"/>
</g>
</g>
<defs>
<filter id="filter0_d" x="-14" y="-13.9019" width="59.2345" height="48.1625" filterUnits="userSpaceOnUse" color-interpolation-filters="sRGB">
<feFlood flood-opacity="0" result="BackgroundImageFix"/>
<feColorMatrix in="SourceAlpha" type="matrix" values="0 0 0 0 0 0 0 0 0 0 0 0 0 0 0 0 0 0 127 0"/>
<feOffset dx="6" dy="6"/>
<feGaussianBlur stdDeviation="10"/>
<feColorMatrix type="matrix" values="0 0 0 0 0 0 0 0 0 0 0 0 0 0 0 0 0 0 0.3 0"/>
<feBlend mode="normal" in2="BackgroundImageFix" result="effect1_dropShadow"/>
<feBlend mode="normal" in="SourceGraphic" in2="effect1_dropShadow" result="shape"/>
</filter>
<clipPath id="clip0">
<rect width="19.23" height="8.27" fill="white"/>
</clipPath>
</defs>
</svg>
