<svg width="15" height="14" viewBox="0 0 15 14" fill="none" xmlns="http://www.w3.org/2000/svg">
<path d="M10.7296 10.5V5.95C10.7296 4.2 9.299 2.8 7.51073 2.8C5.72246 2.8 4.29185 4.2 4.29185 5.95V10.5H10.7296ZM12.1602 9.8L13.5908 11.2V11.9H1.43062V11.2L2.86123 9.8V5.95C2.86123 3.801 4.38484 2.002 6.43777 1.526V1.05C6.43777 0.771523 6.55081 0.504451 6.75203 0.307538C6.95325 0.110625 7.22616 0 7.51073 0C7.7953 0 8.06821 0.110625 8.26943 0.307538C8.47065 0.504451 8.58369 0.771523 8.58369 1.05V1.526C10.6295 2.002 12.1602 3.801 12.1602 5.95V9.8ZM7.51073 14C7.13131 14 6.76742 13.8525 6.49913 13.5899C6.23084 13.3274 6.08011 12.9713 6.08011 12.6H8.94135C8.94135 12.9713 8.79062 13.3274 8.52233 13.5899C8.25403 13.8525 7.89015 14 7.51073 14ZM13.5694 5.6C13.4621 3.745 12.4893 2.1 11.03 1.106L12.0529 0.105C13.7625 1.379 14.8927 3.353 15 5.6H13.5694ZM3.99142 1.106C2.53219 2.1 1.55937 3.745 1.43062 5.6H0C0.128755 3.353 1.25894 1.379 2.96853 0.105L3.99142 1.106Z" fill="white"/>
</svg>
