<?xml version="1.0" encoding="utf-8"?>
<!-- Generator: Adobe Illustrator 21.1.0, SVG Export Plug-In . SVG Version: 6.00 Build 0)  -->
<svg version="1.1" id="Layer_1" xmlns="http://www.w3.org/2000/svg" xmlns:xlink="http://www.w3.org/1999/xlink" x="0px" y="0px"
	 viewBox="0 0 46.1 50.5" style="enable-background:new 0 0 46.1 50.5;" xml:space="preserve">
<style type="text/css">
	.st0{fill:#C1C1C1;}
</style>
<path class="st0" d="M23.1,50.5c-8.8,0-16.6-5.6-19.4-13.9l1.9-0.6c2.5,7.5,9.5,12.6,17.5,12.6c0.1,0,0.1,0,0.2,0
	c8.7-0.1,16.3-6.3,17.9-14.9l2,0.4c-1.9,9.5-10.2,16.4-19.9,16.5C23.2,50.5,23.1,50.5,23.1,50.5z"/>
<polygon class="st0" points="15,39 14.2,40.9 5.2,36.9 1.9,46.1 0,45.5 4.1,34.2 "/>
<path class="st0" d="M4.9,16.9l-2-0.4C4.8,7,13.2,0.1,22.8,0c0.1,0,0.1,0,0.2,0c8.8,0,16.6,5.6,19.4,13.9l-1.9,0.6C38,7,31,2,23,2
	c-0.1,0-0.1,0-0.2,0C14.1,2.1,6.6,8.3,4.9,16.9z"/>
<polygon class="st0" points="31,11.5 31.9,9.6 40.9,13.7 44.2,4.4 46.1,5.1 42,16.4 "/>
<path class="st0" d="M30,29.2c0,1.5-0.5,2.7-1.5,3.7c-1,1-2.5,1.6-4.7,1.8l-0.1,3.1l-3.3-0.1l0.1-3.2C17,34,15,32.1,14.6,28.7
	l4.1,0.1c0.3,1.9,1.5,2.9,3.7,2.9c2.1,0,3.2-0.6,3.2-2c0-0.8-0.3-1.4-0.9-1.8c-0.6-0.4-1.8-0.8-3.4-1.2c-0.9-0.2-1.7-0.4-2.3-0.7
	c-0.6-0.2-1.2-0.5-1.8-0.9s-1.1-1-1.4-1.6c-0.3-0.7-0.4-1.5-0.4-2.4c0-1.5,0.5-2.6,1.4-3.5c0.9-0.9,2.3-1.4,4-1.6l0.1-3.1l3.3,0.1
	l-0.1,3c3.3,0.5,5.1,2.2,5.5,5.2l-4-0.1c-0.2-1.5-1.3-2.2-3.1-2.2c-1.8,0-2.7,0.6-2.8,1.8c0,0.7,0.2,1.2,0.7,1.4
	c0.5,0.3,1.4,0.6,2.8,0.9c0.8,0.2,1.5,0.4,2.1,0.6c0.6,0.2,1.2,0.5,1.8,0.8c0.6,0.3,1.1,0.7,1.5,1.1c0.4,0.4,0.7,0.9,1,1.5
	C29.9,27.7,30,28.4,30,29.2z"/>
</svg>
