<?xml version="1.0" encoding="utf-8"?>
<!-- Generator: Adobe Illustrator 22.1.0, SVG Export Plug-In . SVG Version: 6.00 Build 0)  -->
<svg version="1.1" id="Layer_1" xmlns="http://www.w3.org/2000/svg" xmlns:xlink="http://www.w3.org/1999/xlink" x="0px" y="0px"
	 viewBox="0 0 16 16" style="enable-background:new 0 0 16 16;" xml:space="preserve">
<style type="text/css">
	.st0{fill:#005073;}
</style>
<g>
	<g>
		<path class="st0" d="M15,0h-2v1c0,0.5-0.4,1-1,1s-1-0.5-1-1V0H5v1c0,0.5-0.4,1-1,1S3,1.5,3,1V0H1C0.4,0,0,0.4,0,1v14
			c0,0.6,0.4,1,1,1h14c0.6,0,1-0.4,1-1V1C16,0.4,15.6,0,15,0z M4,13c-0.6,0-1-0.4-1-1c0-0.6,0.4-1,1-1s1,0.4,1,1C5,12.6,4.6,13,4,13
			z M4,10c-0.6,0-1-0.4-1-1c0-0.6,0.4-1,1-1s1,0.4,1,1C5,9.6,4.6,10,4,10z M4,7C3.4,7,3,6.6,3,6c0-0.6,0.4-1,1-1s1,0.4,1,1
			C5,6.6,4.6,7,4,7z M8,13c-0.6,0-1-0.4-1-1c0-0.6,0.4-1,1-1s1,0.4,1,1C9,12.6,8.6,13,8,13z M8,10c-0.6,0-1-0.4-1-1c0-0.6,0.4-1,1-1
			s1,0.4,1,1C9,9.6,8.6,10,8,10z M8,7C7.4,7,7,6.6,7,6c0-0.6,0.4-1,1-1s1,0.4,1,1C9,6.6,8.6,7,8,7z M12,10c-0.6,0-1-0.4-1-1
			c0-0.6,0.4-1,1-1s1,0.4,1,1C13,9.6,12.6,10,12,10z M12,7c-0.6,0-1-0.4-1-1c0-0.6,0.4-1,1-1s1,0.4,1,1C13,6.6,12.6,7,12,7z"/>
	</g>
</g>
</svg>
