<?xml version="1.0" encoding="utf-8"?>
<!-- Generator: Adobe Illustrator 22.1.0, SVG Export Plug-In . SVG Version: 6.00 Build 0)  -->
<svg version="1.1" id="Layer_1" xmlns="http://www.w3.org/2000/svg" xmlns:xlink="http://www.w3.org/1999/xlink" x="0px" y="0px"
	 viewBox="0 0 35.5 29.5" style="enable-background:new 0 0 35.5 29.5;" xml:space="preserve">
<style type="text/css">
	.st0{clip-path:url(#SVGID_2_);fill-rule:evenodd;clip-rule:evenodd;fill:#295275;}
	.st1{clip-path:url(#SVGID_2_);fill-rule:evenodd;clip-rule:evenodd;fill:#78797A;}
	.st2{clip-path:url(#SVGID_2_);fill-rule:evenodd;clip-rule:evenodd;fill:#711B11;}
	.st3{clip-path:url(#SVGID_2_);fill-rule:evenodd;clip-rule:evenodd;fill:#E9483B;}
	.st4{clip-path:url(#SVGID_2_);fill-rule:evenodd;clip-rule:evenodd;fill:#69433B;}
	.st5{clip-path:url(#SVGID_2_);fill-rule:evenodd;clip-rule:evenodd;fill:#5FB451;}
	.st6{clip-path:url(#SVGID_2_);fill-rule:evenodd;clip-rule:evenodd;fill:#57A757;}
	.st7{clip-path:url(#SVGID_2_);fill-rule:evenodd;clip-rule:evenodd;fill:#4EAFED;}
	.st8{clip-path:url(#SVGID_2_);fill-rule:evenodd;clip-rule:evenodd;fill:#53A483;}
	.st9{clip-path:url(#SVGID_2_);fill-rule:evenodd;clip-rule:evenodd;fill:#A8CB8A;}
	.st10{clip-path:url(#SVGID_2_);fill-rule:evenodd;clip-rule:evenodd;fill:#83BC4A;}
	.st11{clip-path:url(#SVGID_2_);fill-rule:evenodd;clip-rule:evenodd;fill:#D4DE51;}
	.st12{clip-path:url(#SVGID_2_);fill-rule:evenodd;clip-rule:evenodd;fill:#CC7638;}
	.st13{clip-path:url(#SVGID_2_);fill-rule:evenodd;clip-rule:evenodd;fill:#E97137;}
	.st14{clip-path:url(#SVGID_2_);fill-rule:evenodd;clip-rule:evenodd;fill:#2BC1FD;}
	.st15{clip-path:url(#SVGID_2_);fill-rule:evenodd;clip-rule:evenodd;fill:#63C7F1;}
</style>
<g>
	<defs>
		<path id="SVGID_1_" d="M35.3,5.9c0,0-3.1,8.8-4.2,11.9C29.9,20.9,27,21,27,21h-9c-3.2-0.4-4.8-3.8-4.8-3.8L7.1,5L3,5
			c0,0-2.9,0-3-2c-0.1-2.8,2-3,2-3h5c2.6,0,4,3,4,3s4.2,7.6,5.4,10.7c1,2.7,2.6,2.3,2.6,2.3h6c1.8,0.1,2.6-2.1,2.6-2.1l3.3-9.7
			c0,0,1-2.5,3.1-1.5C36.2,3.7,35.3,5.9,35.3,5.9z M16.5,22.9c-1.8,0-3.3,1.5-3.3,3.3s1.5,3.3,3.3,3.3c1.8,0,3.3-1.5,3.3-3.3
			S18.3,22.9,16.5,22.9z M27.7,22.9c-1.8,0-3.3,1.5-3.3,3.3s1.5,3.3,3.3,3.3c1.8,0,3.3-1.5,3.3-3.3S29.5,22.9,27.7,22.9z M20,14h4
			c1.1,0,2.1-1,2.1-2.1s-0.9-1.9-2-1.9L20,10c-1.1,0-2,0.9-2,2S18.9,14,20,14z"/>
	</defs>
	<clipPath id="SVGID_2_">
		<use xlink:href="#SVGID_1_"  style="overflow:visible;"/>
	</clipPath>
	<path class="st2" d="M35-2h3v36h-3V-2z"/>
	<path class="st3" d="M32-2h3v36h-2.9L32-2z"/>
	<path class="st4" d="M29-2h3v36h-3V-2z"/>
	<path class="st5" d="M26-2h3v36h-3V-2z"/>
	<path class="st6" d="M23-2h3v36h-3V-2z"/>
	<path class="st7" d="M20-2h3v36h-3V-2z"/>
	<path class="st8" d="M17-2h3v36h-3V-2z"/>
	<path class="st9" d="M14-2h3v36h-3V-2z"/>
	<path class="st10" d="M11-2h3v36h-3V-2z"/>
	<path class="st11" d="M8-2h3v36H8V-2z"/>
	<path class="st12" d="M5-2h3v36H5V-2z"/>
	<path class="st13" d="M2-2h3v36H2.2L2-2z"/>
	<path class="st14" d="M-1-2h3v36h-3V-2z"/>
</g>
</svg>
