<svg width="47" height="47" viewBox="0 0 47 47" fill="none" xmlns="http://www.w3.org/2000/svg">
<g clip-path="url(#clip0)">
<path d="M46.9609 23.5C46.9609 36.2025 36.6635 46.5 23.9609 46.5C11.2584 46.5 0.960938 36.2025 0.960938 23.5C0.960938 10.7975 11.2584 0.5 23.9609 0.5C36.6635 0.5 46.9609 10.7975 46.9609 23.5Z" fill="#005073"/>
<path fill-rule="evenodd" clip-rule="evenodd" d="M35.2309 14.5373C35.7626 14.6866 36.0725 15.2387 35.9232 15.7704L32.8334 26.7702C32.7122 27.2017 32.3188 27.4998 31.8706 27.4998H18.9495C18.5014 27.4998 18.108 27.2017 17.9868 26.7702L15.1019 16.5H9.96094C9.40865 16.5 8.96094 16.0523 8.96094 15.5C8.96094 14.9477 9.40865 14.5 9.96094 14.5H15.8597C16.3078 14.5 16.7012 14.7981 16.8224 15.2296L19.7073 25.4998H31.1128L33.9977 15.2296C34.1471 14.6979 34.6992 14.3879 35.2309 14.5373Z" fill="white"/>
<path d="M23.9608 33.0004C23.9608 34.3811 22.8416 35.5004 21.4609 35.5004C20.0802 35.5004 18.9609 34.3811 18.9609 33.0004C18.9609 31.6198 20.0802 30.5005 21.4609 30.5005C22.8416 30.5005 23.9608 31.6198 23.9608 33.0004Z" fill="#6CC04A"/>
<path d="M31.9599 33.0004C31.9599 34.3811 30.8406 35.5004 29.4599 35.5004C28.0792 35.5004 26.96 34.3811 26.96 33.0004C26.96 31.6198 28.0792 30.5005 29.4599 30.5005C30.8406 30.5005 31.9599 31.6198 31.9599 33.0004Z" fill="#FBAB18"/>
</g>
<defs>
<clipPath id="clip0">
<rect width="46" height="46" fill="white" transform="translate(0.960938 0.5)"/>
</clipPath>
</defs>
</svg>
