<!-- Generated by IcoMoon.io -->
<svg version="1.1" xmlns="http://www.w3.org/2000/svg" width="1081" height="1024" viewBox="0 0 1081 1024">
<title></title>
<g id="icomoon-ignore">
</g>
<path fill="#c2c2c2" opacity="0.4" d="M1021.417 56.889v910.222h-910.223v-910.222h910.223zM54.306 0v1024h1024.001v-1024h-1024.001z"></path>
<path fill="#059fd9" opacity="0.4" d="M450.689 643.066l-128.574-128.533-3.965-3.574c-23.918-18.669-56.162-16.773-76.51 3.576-22.223 22.224-22.223 58.256 0 80.483l170.717 170.724 3.827 3.465c24.864 19.57 58.908 16.646 78.944-5.899l397.875-426.301 3.8-4.681c17.232-24.974 13.449-57.053-8.061-76.172-23.489-20.881-59.455-18.765-80.338 4.726l-357.713 382.188z"></path>
</svg>
