<svg width="65" height="36" viewBox="0 0 65 36" fill="none" xmlns="http://www.w3.org/2000/svg">
<path d="M21 23.3984H18V35.3984H21V23.3984Z" fill="#005073"/>
<path d="M43.9997 27.0994C43.8997 26.9994 42.9996 26.4996 41.5996 26.4996C39.7996 26.4996 38.4997 27.7994 38.4997 29.5994C38.4997 31.2994 39.6996 32.6995 41.5996 32.6995C42.8996 32.6995 43.8997 32.1994 43.9997 32.0994V35.1995C43.5997 35.2995 42.6996 35.5994 41.3996 35.5994C38.2996 35.5994 35.5996 33.4995 35.3996 29.8995C35.2996 26.6995 37.5996 23.8995 40.7996 23.6995C42.3996 23.5995 43.6997 23.9994 43.9997 24.0994V27.0994Z" fill="#005073"/>
<path d="M13.9996 27.1016C13.8996 27.0016 12.9996 26.5017 11.5996 26.5017C9.79961 26.5017 8.49963 27.8016 8.49963 29.6016C8.49963 31.3016 9.69961 32.7017 11.5996 32.7017C12.8996 32.7017 13.8996 32.2016 13.9996 32.1016V35.2017C13.5996 35.3017 12.6996 35.6016 11.3996 35.6016C8.49959 35.6016 5.89963 33.7016 5.49963 30.4016C5.09963 26.9016 7.69958 23.7016 11.1996 23.6016C12.5996 23.6016 13.6996 23.9017 13.9996 24.0017V27.1016Z" fill="#005073"/>
<path d="M58.8 29.5C58.8 32.8 56.3 35.5 52.9 35.5C49.4 35.5 47 32.8 47 29.5C47 26.2 49.5 23.5 52.9 23.5C56.3 23.6 58.8 26.2 58.8 29.5ZM52.9 26.5C51.2 26.5 50 27.9 50 29.5C50 31.2 51.2 32.5 52.9 32.5C54.6 32.5 55.8 31.1 55.8 29.5C55.8 27.9 54.5 26.5 52.9 26.5Z" fill="#005073"/>
<path d="M32 26.3008C32 26.3008 30.7 25.9009 29.8 25.9009C28.6 25.9009 28 26.3009 28 26.9009C28 27.6009 28.8 27.901 29.3 28.001L30.1 28.3008C32 28.9008 32.8 30.2008 32.8 31.6008C32.8 34.5008 30.3 35.501 28.1 35.501C26.6 35.501 25.1 35.2009 25 35.2009V32.501C25.3 32.601 26.5 32.9009 27.7 32.9009C29.1 32.9009 29.8 32.5008 29.8 31.8008C29.8 31.2008 29.2 30.9008 28.5 30.6008C28.3 30.5008 28.1 30.5009 27.9 30.4009C26.3 29.9009 25 28.901 25 27.001C25 24.801 26.6 23.3008 29.2 23.3008C30.6 23.3008 31.9 23.7009 32 23.7009V26.3008Z" fill="#005073"/>
<path d="M3 11.3008C3 10.5008 2.3 9.80078 1.5 9.80078C0.7 9.80078 0 10.5008 0 11.3008V14.501C0 15.401 0.7 16.001 1.5 16.001C2.3 16.001 3 15.301 3 14.501V11.3008Z" fill="#005073"/>
<path d="M11 7.19922C11 6.39922 10.3 5.69922 9.5 5.69922C8.7 5.69922 8 6.39922 8 7.19922V14.6992C8 15.5992 8.7 16.1992 9.5 16.1992C10.3 16.1992 11 15.4992 11 14.6992V7.19922Z" fill="#005073"/>
<path d="M18 1.5C18 0.7 17.3 0 16.5 0C15.7 0 15 0.7 15 1.5V17.7998C15 18.5998 15.7 19.2998 16.5 19.2998C17.3 19.2998 18 18.5998 18 17.7998V1.5Z" fill="#005073"/>
<path d="M26 7.19922C26 6.39922 25.3 5.69922 24.5 5.69922C23.7 5.69922 23 6.39922 23 7.19922V14.6992C23 15.5992 23.7 16.1992 24.5 16.1992C25.3 16.1992 26 15.4992 26 14.6992V7.19922Z" fill="#005073"/>
<path d="M34 11.3008C34 10.5008 33.3 9.80078 32.5 9.80078C31.7 9.80078 31 10.5008 31 11.3008V14.501C31 15.401 31.7 16.001 32.5 16.001C33.3 16.001 34 15.301 34 14.501V11.3008Z" fill="#005073"/>
<path d="M42 7.19922C42 6.39922 41.3 5.69922 40.5 5.69922C39.7 5.69922 39 6.39922 39 7.19922V14.6992C39 15.5992 39.7 16.1992 40.5 16.1992C41.3 16.1992 42 15.4992 42 14.6992V7.19922Z" fill="#005073"/>
<path d="M49 1.5C49 0.6 48.3 0 47.5 0C46.7 0 46 0.7 46 1.5V17.8999C46 18.7999 46.7 19.3999 47.5 19.3999C48.3 19.3999 49 18.6999 49 17.8999V1.5Z" fill="#005073"/>
<path d="M57 7.19922C57 6.39922 56.3 5.69922 55.5 5.69922C54.7 5.69922 54 6.39922 54 7.19922V14.6992C54 15.5992 54.7 16.1992 55.5 16.1992C56.3 16.1992 57 15.4992 57 14.6992V7.19922Z" fill="#005073"/>
<path d="M65 11.3008C65 10.5008 64.3 9.80078 63.5 9.80078C62.7 9.80078 62 10.5008 62 11.3008V14.501C62 15.401 62.7 16.001 63.5 16.001C64.3 16.001 65 15.301 65 14.501V11.3008Z" fill="#005073"/>
</svg>
