<svg width="18" height="18" viewBox="0 0 18 18" fill="none" xmlns="http://www.w3.org/2000/svg">
<path fill-rule="evenodd" clip-rule="evenodd" d="M18 3C18 1.34315 16.6569 0 15 0H3C1.34315 0 0 1.34315 0 3V15C0 16.6569 1.34315 18 3 18H15C16.6569 18 18 16.6569 18 15V3ZM2.99981 1.5H14.9998L15.1118 1.50411C15.8879 1.56137 16.4998 2.20923 16.4998 3V15L16.4957 15.1119C16.4384 15.8881 15.7906 16.5 14.9998 16.5H2.99981L2.88787 16.4959C2.11172 16.4386 1.49981 15.7908 1.49981 15V3L1.50393 2.88805C1.56119 2.11191 2.20904 1.5 2.99981 1.5ZM8.99981 3.75C9.41403 3.75 9.74981 4.08578 9.74981 4.5V8.25H13.4998C13.914 8.25 14.2498 8.58578 14.2498 9C14.2498 9.41421 13.914 9.75 13.4998 9.75H9.74981V13.5C9.74981 13.9142 9.41403 14.25 8.99981 14.25C8.5856 14.25 8.24981 13.9142 8.24981 13.5V9.75H4.49981C4.0856 9.75 3.74981 9.41421 3.74981 9C3.74981 8.58578 4.0856 8.25 4.49981 8.25H8.24981V4.5C8.24981 4.08578 8.5856 3.75 8.99981 3.75Z" fill="#059FD9"/>
</svg>
