<svg width="32" height="20" viewBox="0 0 32 20" fill="none" xmlns="http://www.w3.org/2000/svg">
<rect opacity="0.2" x="4.17773" y="0.272949" width="27.4333" height="14.6098" rx="3" transform="rotate(0.308949 4.17773 0.272949)" fill="#004F73"/>
<line x1="6.92612" y1="6.85169" x2="6.88131" y2="15.1628" stroke="#333333" stroke-width="1.5" stroke-linecap="round" stroke-linejoin="round" stroke-dasharray="2 2"/>
<line x1="19.3251" y1="7.19346" x2="15.1308" y2="14.3687" stroke="#333333" stroke-width="1.5" stroke-linecap="round" stroke-linejoin="round"/>
<circle cx="14.2359" cy="8.80566" r="1.30839" transform="rotate(0.308949 14.2359 8.80566)" stroke="#333333" stroke-width="1.5"/>
<circle cx="20.3291" cy="12.7393" r="1.30839" transform="rotate(0.308949 20.3291 12.7393)" stroke="#333333" stroke-width="1.5"/>
<path d="M0.391602 7.42188C1.52291 7.42798 3.78186 8.11896 3.76722 10.8341C3.75258 13.5492 1.48631 14.2158 0.355 14.2097" stroke="#333333" stroke-width="1.5"/>
<path d="M28.0273 7.57031C26.896 7.56421 24.6298 8.2308 24.6151 10.9459C24.6005 13.6611 26.8594 14.3521 27.9907 14.3582" stroke="#333333" stroke-width="1.5"/>
<path fill-rule="evenodd" clip-rule="evenodd" d="M25.0457 4.12452L3.40984 4.00785C2.58142 4.00339 1.90624 4.67133 1.90177 5.49974L1.88873 7.91844C1.44975 7.63084 0.940304 7.44169 0.391596 7.38253L0.401792 5.49166C0.410726 3.83483 1.76109 2.49894 3.41793 2.50788L25.0538 2.62454C26.7106 2.63348 28.0465 3.98384 28.0375 5.64067L28.0269 7.60807C27.4834 7.63404 26.9728 7.78723 26.5246 8.03865L26.5376 5.63259C26.542 4.80417 25.8741 4.12899 25.0457 4.12452ZM26.4925 13.9813L26.4814 16.0414C26.477 16.8698 25.8018 17.5378 24.9734 17.5333L3.33753 17.4166C2.50912 17.4122 1.84118 16.737 1.84564 15.9086L1.85783 13.6494C1.41577 13.9322 0.904316 14.1159 0.355001 14.1691L0.345666 15.9005C0.336732 17.5573 1.67261 18.9077 3.32944 18.9166L24.9653 19.0333C26.6221 19.0422 27.9725 17.7063 27.9814 16.0495L27.9902 14.4281C27.4469 14.3962 26.938 14.2375 26.4925 13.9813Z" fill="#333333"/>
</svg>
