<svg width="17" height="18" viewBox="0 0 17 18" fill="none" xmlns="http://www.w3.org/2000/svg">
<path fill-rule="evenodd" clip-rule="evenodd" d="M16.7661 5.54858L11.8799 0.693604L4.9917 0.71582L0.136719 5.60229L0.158691 12.4907L5.04541 17.3457L11.9336 17.3232L16.7886 12.4368L16.7661 5.54858ZM11.4272 11.9844C11.7095 11.7021 11.7095 11.2786 11.4272 10.9961L9.45068 9.01978L11.4272 7.04321C11.7095 6.76099 11.7095 6.3374 11.4272 6.05493C11.145 5.77271 10.7212 5.77271 10.439 6.05493L8.4624 8.03149L6.55664 6.12573C6.27441 5.84326 5.85107 5.84326 5.56836 6.12573C5.28613 6.40796 5.28613 6.83154 5.56836 7.11377L7.47461 9.01978L5.49805 10.9961C5.21533 11.2786 5.21533 11.7021 5.49805 11.9844C5.5625 12.0488 5.63379 12.0986 5.70947 12.1335C5.7998 12.1755 5.896 12.1963 5.99219 12.1963C6.16846 12.1963 6.34473 12.1257 6.48633 11.9844L8.4624 10.0081L10.439 11.9844C10.5801 12.1257 10.7568 12.1963 10.9331 12.1963C11.1099 12.1963 11.2861 12.1257 11.4272 11.9844Z" fill="#CD3C32"/>
</svg>
