<svg width="54" height="29" viewBox="0 0 54 29" fill="none" xmlns="http://www.w3.org/2000/svg">
<path d="M14.5 28.5C22.232 28.5 28.5 22.232 28.5 14.5C28.5 6.76801 22.232 0.5 14.5 0.5C6.76801 0.5 0.5 6.76801 0.5 14.5C0.5 22.232 6.76801 28.5 14.5 28.5Z" fill="white" stroke="#005073"/>
<path d="M39.5 28C46.9558 28 53 21.9558 53 14.5C53 7.04416 46.9558 1 39.5 1C32.0442 1 26 7.04416 26 14.5C26 21.9558 32.0442 28 39.5 28Z" fill="white" stroke="#005073" stroke-width="2"/>
<path d="M31.564 17.5412C31.0855 17.5412 30.7129 17.1685 30.7129 16.69V12.2207C30.7129 11.7422 31.0855 11.3696 31.564 11.3696C32.0425 11.3696 32.4151 11.7422 32.4151 12.2207V16.69C32.4151 17.1685 32.0425 17.5412 31.564 17.5412Z" fill="#00BCEA"/>
<path d="M48.2632 17.5412C47.7847 17.5412 47.4121 17.1685 47.4121 16.69V12.2207C47.4121 11.7422 47.7847 11.3696 48.2632 11.3696C48.7417 11.3696 49.1143 11.7422 49.1143 12.2207V16.69C49.0614 17.1685 48.6888 17.5412 48.2632 17.5412Z" fill="#00BCEA"/>
<path d="M45.2915 17.0668C44.813 17.0668 44.4404 16.6942 44.4404 16.2157V12.6504C44.4404 12.1719 44.813 11.7993 45.2915 11.7993C45.77 11.7993 46.1426 12.1719 46.1426 12.6504V16.2157C46.0897 16.6942 45.7171 17.0668 45.2915 17.0668Z" fill="#6FBE4A"/>
<path d="M34.4908 17.0661C34.0123 17.0661 33.6396 16.6935 33.6396 16.215V12.6497C33.6926 12.2242 34.0652 11.8516 34.4908 11.8516C34.9163 11.8516 35.3419 12.2242 35.3419 12.7027V16.2679C35.3419 16.6935 34.9692 17.0661 34.4908 17.0661Z" fill="#6FBE4A"/>
<path d="M49.9767 18.7978C49.8698 18.3723 49.4443 18.1066 48.9658 18.2124C48.9658 18.2124 47.1037 18.638 44.3896 17.2015C42.7932 16.3504 41.8352 15.4453 41.0371 14.4884C41.7823 13.5304 42.4736 12.6792 43.6443 12.0409C46.3575 10.5515 49.0717 10.7113 49.0717 10.7113C49.5501 10.7643 49.9228 10.3916 49.9767 9.9661C50.0297 9.43365 49.711 9.06103 49.2315 9.0081C49.1246 9.0081 46.0388 8.79532 42.8472 10.5515C41.5176 11.2967 40.7194 12.2008 39.9742 13.1058C39.229 12.2008 38.4308 11.2438 37.1012 10.5515C34.0155 8.79532 30.9297 9.0081 30.7699 9.0081C30.3443 9.06103 29.9717 9.43365 30.0246 9.91214C30.0776 10.3906 30.4502 10.7103 30.9287 10.6574C30.9816 10.6574 33.6418 10.4975 36.356 11.988C37.5268 12.6263 38.218 13.4774 38.9633 14.4354C38.1651 15.3934 37.2071 16.2975 35.6108 17.1486C32.8976 18.5321 31.0346 18.1595 31.0346 18.1595C30.609 18.0526 30.1834 18.3723 30.0236 18.7978C29.9167 19.2234 30.1834 19.7029 30.609 19.8088C30.6619 19.8088 31.0346 19.9157 31.6729 19.9157C32.6838 19.9157 34.3331 19.7029 36.302 18.692C38.0042 17.7869 39.1221 16.777 39.9732 15.819C40.8243 16.777 41.8882 17.7879 43.6443 18.692C45.6133 19.7029 47.2626 19.9157 48.2735 19.9157C48.9118 19.9157 49.3374 19.8088 49.3913 19.8088C49.8169 19.7019 50.0826 19.2234 49.9767 18.7978Z" fill="#00BCEA"/>
<path d="M14.3778 17.2794L21.9859 9.6713C22.3566 9.30055 22.9578 9.30055 23.3285 9.6713C23.6992 10.042 23.6992 10.6431 23.3285 11.0139L15.7204 18.622C15.3496 18.9927 14.7485 18.9927 14.3778 18.622C14.007 18.2513 14.007 17.6502 14.3778 17.2794Z" fill="#005073"/>
<path d="M23.0841 17.3546L15.476 9.7465C15.1053 9.37575 14.5041 9.37575 14.1334 9.7465C13.7627 10.1172 13.7627 10.7183 14.1334 11.0891L21.7415 18.6972C22.1122 19.0679 22.7134 19.0679 23.0841 18.6972C23.4548 18.3264 23.4548 17.7253 23.0841 17.3546Z" fill="#FFCF70"/>
<path d="M13.7061 16.1739V12.3765L15.8157 14.2752L13.7061 16.1739Z" fill="#65B168"/>
<path d="M10.8642 16.7169C10.3173 17.1678 9.61644 17.4387 8.85229 17.4387C7.10459 17.4387 5.68775 16.0219 5.68775 14.2742C5.68775 12.5264 7.10459 11.1096 8.85229 11.1096C9.51281 11.1096 10.1259 11.312 10.6333 11.658L11.8405 10.4509C11.0168 9.80617 9.97946 9.42188 8.85229 9.42188C6.17243 9.42188 4 11.5943 4 14.2742C4 16.954 6.17243 19.1265 8.85229 19.1265C10.0826 19.1265 11.206 18.6686 12.0613 17.9139L10.8642 16.7169Z" fill="#6CC8E7"/>
</svg>
