<svg width="62" height="32" viewBox="0 0 62 32" fill="none" xmlns="http://www.w3.org/2000/svg">
<rect width="39.067" height="5.86005" rx="2.93003" transform="matrix(-0.707107 0.707107 0.707107 0.707107 57.582 0)" fill="#005073"/>
<rect x="33.3467" y="0.230469" width="39.067" height="5.86005" rx="2.93003" transform="rotate(45 33.3467 0.230469)" fill="#FFCF70"/>
<path d="M29.9531 22.142V10.4219L36.4643 16.2819L29.9531 22.142Z" fill="#65B168"/>
<path d="M21.1851 23.8154C19.4973 25.2072 17.3341 26.0432 14.9757 26.0432C9.58172 26.0432 5.20894 21.6705 5.20894 16.2765C5.20894 10.8824 9.58172 6.50972 14.9757 6.50972C17.0142 6.50972 18.9066 7.13419 20.4724 8.20227L24.1982 4.47659C21.656 2.48683 18.4545 1.30078 14.9757 1.30078C6.70479 1.30078 0 8.00563 0 16.2765C0 24.5473 6.70479 31.2522 14.9757 31.2522C18.7727 31.2522 22.24 29.839 24.8798 27.5098L21.1851 23.8154Z" fill="#6CC8E7"/>
</svg>
