<svg width="22" height="22" viewBox="0 0 22 22" fill="none" xmlns="http://www.w3.org/2000/svg">
<circle cx="11" cy="11" r="11" fill="white"/>
<rect width="11.9373" height="1.7906" rx="0.8953" transform="matrix(-0.707107 0.707107 0.707107 0.707107 18.9023 6.10938)" fill="#005073"/>
<rect x="11.4961" y="6.17969" width="11.9373" height="1.7906" rx="0.8953" transform="rotate(45 11.4961 6.17969)" fill="#FFCF70"/>
<path d="M10.4609 12.8742V9.29297L12.4505 11.0836L10.4609 12.8742Z" fill="#65B168"/>
<path d="M7.78194 13.3874C7.26619 13.8127 6.6052 14.0681 5.88457 14.0681C4.23639 14.0681 2.90024 12.732 2.90024 11.0838C2.90024 9.43559 4.23639 8.09946 5.88457 8.09946C6.50747 8.09946 7.08569 8.29027 7.56414 8.61663L8.70259 7.47821C7.92581 6.87022 6.94755 6.50781 5.88457 6.50781C3.35731 6.50781 1.30859 8.55655 1.30859 11.0838C1.30859 13.611 3.35731 15.6598 5.88457 15.6598C7.04479 15.6598 8.10427 15.228 8.91087 14.5163L7.78194 13.3874Z" fill="#6CC8E7"/>
</svg>
