<svg width="20" height="26" viewBox="0 0 20 26" fill="none" xmlns="http://www.w3.org/2000/svg">
<path d="M18.5211 25.3326H1.62748C0.938516 25.3326 0.379883 24.7739 0.379883 24.085V4.61592C0.379883 3.92695 0.938516 3.36832 1.62748 3.36832H18.5211C19.2101 3.36832 19.7687 3.92675 19.7687 4.61592V24.0852C19.7687 24.7741 19.2101 25.3326 18.5211 25.3326Z" fill="#0C588F"/>
<path d="M18.5211 24.7437H1.62748C0.938516 24.7437 0.379883 24.185 0.379883 23.4961V4.02702C0.379883 3.33805 0.938516 2.77942 1.62748 2.77942H18.5211C19.2101 2.77942 19.7687 3.33786 19.7687 4.02702V23.4963C19.7687 24.1852 19.2101 24.7437 18.5211 24.7437Z" fill="#1BA0D7"/>
<path d="M16.698 22.395H3.45048C3.22082 22.395 3.03455 22.2087 3.03455 21.9793V6.32922C3.03455 6.09956 3.22082 5.91348 3.45048 5.91348H16.698C16.9277 5.91348 17.114 6.09956 17.114 6.32922V21.9791C17.114 22.2087 16.9277 22.395 16.698 22.395Z" fill="#71CCF2"/>
<path d="M16.698 22.0024H3.45048C3.22082 22.0024 3.03455 21.8162 3.03455 21.5867V5.93664C3.03455 5.70699 3.22082 5.5209 3.45048 5.5209H16.698C16.9277 5.5209 17.114 5.70699 17.114 5.93664V21.5865C17.114 21.8162 16.9277 22.0024 16.698 22.0024Z" fill="white"/>
<path d="M16.0289 6.36995L15.2505 3.57729C15.1254 3.12799 14.7159 2.81726 14.2496 2.81726H11.006C11.006 3.35533 10.5699 3.79139 10.0318 3.79139C9.494 3.79139 9.0577 3.35533 9.0577 2.81726H5.81402C5.34755 2.81726 4.93823 3.12799 4.81315 3.57729L4.03473 6.36995C3.8503 7.03237 4.34816 7.68817 5.03584 7.68817H15.0286C15.7155 7.68817 16.2136 7.03237 16.0289 6.36995Z" fill="#E6E7E8"/>
<path d="M16.0289 5.59076L15.2505 2.79809C15.1254 2.34879 14.7159 2.03806 14.2496 2.03806H11.006C11.006 2.57614 10.5699 3.0122 10.0318 3.0122C9.494 3.0122 9.0577 2.57614 9.0577 2.03806H5.81402C5.34755 2.03806 4.93823 2.34879 4.81315 2.79809L4.03473 5.59076C3.8503 6.25318 4.34816 6.90898 5.03584 6.90898H15.0286C15.7155 6.90898 16.2136 6.25293 16.0289 5.59076Z" fill="#97C844"/>
<path d="M15.9011 5.13191C15.7186 5.41542 15.402 5.6099 15.028 5.6099H5.0353C4.66154 5.6099 4.34467 5.41517 4.16221 5.13191L4.03419 5.59077C3.84976 6.25319 4.34762 6.90899 5.0353 6.90899H15.028C15.7157 6.90899 16.2136 6.25319 16.0289 5.59077L15.9011 5.13191Z" fill="#66921D"/>
<path d="M10.0317 4.48146C11.3813 4.48146 12.4754 3.3874 12.4754 2.03779H11.214C11.214 2.69089 10.6848 3.22014 10.0317 3.22014C9.37884 3.22014 8.84935 2.69065 8.84935 2.03779H7.58827C7.58802 3.3874 8.68209 4.48146 10.0317 4.48146Z" fill="#66921D"/>
<path d="M10.0316 0.0245667C8.91965 0.0245667 8.01836 0.925861 8.01836 2.03783C8.01836 3.14979 8.91965 4.05108 10.0316 4.05108C11.1436 4.05108 12.0449 3.14979 12.0449 2.03783C12.0449 0.925861 11.1436 0.0245667 10.0316 0.0245667ZM10.0316 3.01196C9.49378 3.01196 9.05748 2.5759 9.05748 2.03783C9.05748 1.49975 9.49378 1.06369 10.0316 1.06369C10.5697 1.06369 11.0057 1.49975 11.0057 2.03783C11.0057 2.5759 10.5697 3.01196 10.0316 3.01196Z" fill="#97C844"/>
<path d="M12.596 9.33454H7.2524C7.00046 9.33454 6.79626 9.09016 6.79626 8.78864C6.79626 8.48712 7.00046 8.24274 7.2524 8.24274H12.596C12.848 8.24274 13.0522 8.48712 13.0522 8.78864C13.0522 9.09016 12.8481 9.33454 12.596 9.33454Z" fill="#D1D3D4"/>
<path d="M14.8767 12.2558H4.97188C4.71994 12.2558 4.51575 12.0114 4.51575 11.7099C4.51575 11.4084 4.71994 11.164 4.97188 11.164H14.8769C15.1288 11.164 15.333 11.4084 15.333 11.7099C15.3328 12.0114 15.1288 12.2558 14.8767 12.2558Z" fill="#D1D3D4"/>
<path d="M14.8767 14.8641H4.97188C4.71994 14.8641 4.51575 14.6198 4.51575 14.3182C4.51575 14.0167 4.71994 13.7723 4.97188 13.7723H14.8769C15.1288 13.7723 15.333 14.0167 15.333 14.3182C15.3328 14.6198 15.1288 14.8641 14.8767 14.8641Z" fill="#D1D3D4"/>
<path d="M14.8768 17.4723H4.97194C4.72 17.4723 4.5158 17.2279 4.5158 16.9264C4.5158 16.6249 4.72 16.3805 4.97194 16.3805H14.8769C15.1289 16.3805 15.3331 16.6249 15.3331 16.9264C15.3329 17.2279 15.1289 17.4723 14.8768 17.4723Z" fill="#D1D3D4"/>
<path d="M14.8767 20.0658H4.97188C4.71994 20.0658 4.51575 19.8214 4.51575 19.5199C4.51575 19.2183 4.71994 18.974 4.97188 18.974H14.8769C15.1288 18.974 15.333 19.2183 15.333 19.5199C15.3328 19.8214 15.1288 20.0658 14.8767 20.0658Z" fill="#D1D3D4"/>
</svg>
