<svg width="105" height="89" viewBox="0 0 105 89" fill="none" xmlns="http://www.w3.org/2000/svg">
<path d="M64.3595 32.3988L52.113 74.9095C51.7258 76.2539 52.5016 77.6576 53.846 78.0449L73.212 83.6239L87.6366 87.7793C88.9809 88.1666 90.3847 87.3908 90.772 86.0464L99.6704 55.1577C99.8509 54.5312 99.7829 53.8593 99.4806 53.2818L91.7232 38.4606C91.4024 37.8476 90.8449 37.3926 90.1801 37.2011L67.4949 30.6659C66.1506 30.2786 64.7468 31.0545 64.3595 32.3988Z" fill="#EBEDED"/>
<path d="M6.54192 31.2681L19.9 70.2163C20.3539 71.5396 21.7946 72.2445 23.118 71.7906L40.8478 65.7098L54.0157 61.1936C55.3391 60.7397 56.0439 59.299 55.59 57.9756L45.8812 29.6677C45.6698 29.051 45.2287 28.5397 44.6497 28.24L30.8332 21.0868C30.2188 20.7688 29.5011 20.7158 28.8467 20.9402L8.11626 28.0502C6.7929 28.5041 6.08805 29.9448 6.54192 31.2681Z" fill="#EBEDED"/>
<path fill-rule="evenodd" clip-rule="evenodd" d="M26.428 18.1034C25.6294 17.69 24.6963 17.6211 23.8456 17.9129L3.11518 25.0228C1.39482 25.6128 0.478513 27.4858 1.06855 29.2061L14.4266 68.1543C15.0167 69.8747 16.8896 70.791 18.61 70.2009L49.5077 59.6039C51.2281 59.0139 52.1444 57.1409 51.5544 55.4206L41.8456 27.1126C41.5706 26.311 40.9972 25.6462 40.2446 25.2565L26.428 18.1034ZM24.3387 19.3506C24.7968 19.1934 25.2992 19.2305 25.7292 19.4532L39.5458 26.6063C39.9511 26.8161 40.2598 27.174 40.4079 27.6057L50.1167 55.9136C50.4344 56.84 49.941 57.8485 49.0146 58.1662L18.1169 68.7632C17.1905 69.081 16.182 68.5876 15.8643 67.6612L2.50623 28.7131C2.18852 27.7867 2.68192 26.7782 3.60827 26.4605L24.3387 19.3506Z" fill="#005073"/>
<path fill-rule="evenodd" clip-rule="evenodd" d="M91.7655 33.0924C91.3485 32.2956 90.6237 31.704 89.7595 31.4551L67.0743 24.9199C65.3266 24.4164 63.5017 25.425 62.9982 27.1727L50.7517 69.6834C50.2483 71.431 51.2569 73.2559 53.0045 73.7594L86.7952 83.4938C88.5428 83.9973 90.3677 82.9887 90.8712 81.241L99.7696 50.3523C100.004 49.5379 99.9158 48.6644 99.5229 47.9136L91.7655 33.0924ZM89.3387 32.9156C89.8041 33.0496 90.1943 33.3681 90.4189 33.7972L98.1763 48.6184C98.3879 49.0227 98.4355 49.493 98.3091 49.9315L89.4107 80.8203C89.1396 81.7613 88.1569 82.3044 87.2159 82.0333L53.4253 72.2989C52.4842 72.0278 51.9411 71.0452 52.2122 70.1041L64.4587 27.5934C64.7298 26.6524 65.7125 26.1093 66.6535 26.3804L89.3387 32.9156Z" fill="#005073"/>
<path d="M87.2596 43.2823L90.3412 32.585C90.3539 32.5409 90.4141 32.5351 90.435 32.576L98.9312 49.192C98.9514 49.2315 98.9147 49.2761 98.872 49.2638L88.9925 46.4177C87.6481 46.0304 86.8723 44.6266 87.2596 43.2823Z" fill="white"/>
<path fill-rule="evenodd" clip-rule="evenodd" d="M91.1125 32.2295C90.7779 31.5752 89.8153 31.668 89.6118 32.3741L86.5302 43.0713C86.0267 44.819 87.0353 46.6439 88.783 47.1474L98.6625 49.9935C99.3444 50.1899 99.9317 49.4773 99.6087 48.8455L98.932 49.1915L99.6087 48.8455L91.1125 32.2295ZM90.5758 34.5184L97.5101 48.0798L89.2037 45.6869C88.2627 45.4158 87.7196 44.4331 87.9907 43.4921L90.5758 34.5184ZM89.7595 32.922L89.7593 32.9214L89.7593 32.9214C89.7593 32.9216 89.7594 32.9218 89.7595 32.922Z" fill="#005073"/>
<path fill-rule="evenodd" clip-rule="evenodd" d="M17.1857 53.7326C17.3252 54.1284 17.9276 54.2772 18.5312 54.0649L40.6113 46.2981C41.2149 46.0858 41.5912 45.5928 41.4517 45.1969C41.3122 44.801 40.7098 44.6523 40.1062 44.8646L18.0261 52.6313C17.4225 52.8437 17.0462 53.3367 17.1857 53.7326Z" fill="#005073"/>
<path fill-rule="evenodd" clip-rule="evenodd" d="M18.5822 58.9909C18.7217 59.3867 19.3241 59.5355 19.9277 59.3232L42.0078 51.5564C42.6114 51.3441 42.9877 50.8511 42.8482 50.4552C42.7087 50.0593 42.1063 49.9106 41.5027 50.1229L19.4226 57.8896C18.819 58.102 18.4427 58.595 18.5822 58.9909Z" fill="#005073"/>
<path fill-rule="evenodd" clip-rule="evenodd" d="M33.6236 32.4593C31.6046 27.3652 26.2888 24.4945 21.1279 25.5825L24.5695 35.5771L33.6236 32.4593Z" fill="#005073"/>
<path fill-rule="evenodd" clip-rule="evenodd" d="M32.8333 34.6088C34.3189 39.9225 31.5193 45.5018 26.3582 47.2791C20.9971 49.1251 15.118 46.1697 13.2269 40.6778C11.3358 35.1859 14.1488 29.2373 19.5099 27.3912C19.5894 27.3639 19.669 27.3375 19.7487 27.3123L23.382 37.8634L32.8333 34.6088Z" fill="#005073"/>
<path fill-rule="evenodd" clip-rule="evenodd" d="M78.846 48.679L78.9775 48.2178L79.9392 48.492L79.8077 48.9532L78.846 48.679ZM78.3199 50.5239L78.583 49.6014L79.5446 49.8757L79.2816 50.7981L78.3199 50.5239ZM77.7938 52.3688L78.0569 51.4464L79.0186 51.7206L78.7555 52.643L77.7938 52.3688ZM77.2678 54.2137L77.5308 53.2913L78.4925 53.5655L78.2294 54.4879L77.2678 54.2137ZM76.7417 56.0586L77.0047 55.1362L77.9664 55.4104L77.7033 56.3328L76.7417 56.0586ZM76.2156 57.9035L76.4786 56.9811L77.4403 57.2553L77.1772 58.1777L76.2156 57.9035ZM75.6895 59.7484L75.9525 58.826L76.9142 59.1002L76.6512 60.0226L75.6895 59.7484ZM75.1634 61.5933L75.4265 60.6709L76.3881 60.9451L76.1251 61.8675L75.1634 61.5933ZM74.6373 63.4382L74.9004 62.5158L75.862 62.79L75.599 63.7124L74.6373 63.4382ZM74.1112 65.2831L74.3743 64.3607L75.3359 64.6349L75.0729 65.5573L74.1112 65.2831ZM73.7167 66.6668L73.8482 66.2056L74.8099 66.4798L74.6783 66.941L73.7167 66.6668Z" fill="#005073"/>
<path d="M68.6367 42.4985L91.8545 49.1193L90.0398 55.4833L66.822 48.8626L68.6367 42.4985Z" fill="white"/>
<path fill-rule="evenodd" clip-rule="evenodd" d="M90.6186 49.8067L69.3242 43.7344L68.0579 48.1751L89.3524 54.2474L90.6186 49.8067ZM68.6367 42.4985L66.822 48.8626L90.0398 55.4833L91.8545 49.1193L68.6367 42.4985Z" fill="#005073"/>
<path fill-rule="evenodd" clip-rule="evenodd" d="M65.0728 54.0902L65.6908 53.7465L88.489 60.2476L88.8327 60.8655L85.9768 70.8807C85.9011 71.1462 85.6245 71.3001 85.3589 71.2244C85.0933 71.1487 84.9395 70.872 85.0152 70.6065L87.734 61.0721L65.8974 54.8453L63.1285 64.5553C63.0528 64.8209 62.7761 64.9748 62.5106 64.899C62.245 64.8233 62.0911 64.5466 62.1668 64.2811L65.0728 54.0902Z" fill="#005073"/>
<path d="M72.0195 62.0308L78.7479 63.9494L76.8404 70.6387L70.112 68.7201L72.0195 62.0308Z" fill="#005073"/>
<path d="M66.4805 63.7893C65.9133 65.7786 63.8314 66.9287 61.8304 66.3581C59.8295 65.7875 58.6673 63.7123 59.2346 61.723C59.8019 59.7337 61.8838 58.5836 63.8847 59.1542C65.8856 59.7248 67.0478 61.8 66.4805 63.7893Z" fill="#005073"/>
<path d="M84.6039 73.1533L90.1746 68.065L82.5547 65.8921L84.6039 73.1533Z" fill="#005073"/>
<path d="M31.1535 4.21502V49.1833C31.1535 50.6054 32.2929 51.7582 33.6984 51.7582H53.9455H69.0264C70.4319 51.7582 71.5713 50.6054 71.5713 49.1833V16.5088C71.5713 15.8462 71.3188 15.2091 70.8663 14.73L59.2557 2.43614C58.7755 1.92774 58.1107 1.64014 57.4157 1.64014H33.6984C32.2929 1.64014 31.1535 2.79295 31.1535 4.21502Z" fill="#005073"/>
<path fill-rule="evenodd" clip-rule="evenodd" d="M59.9827 1.74952C59.3149 1.04249 58.3878 0.640137 57.4157 0.640137H33.6984C31.7296 0.640137 30.1535 2.25174 30.1535 4.21502V49.1833C30.1535 51.1466 31.7296 52.7582 33.6984 52.7582H69.0264C70.9952 52.7582 72.5713 51.1466 72.5713 49.1833V16.5088C72.5713 15.5925 72.2222 14.7092 71.5933 14.0433L59.9827 1.74952ZM57.4157 2.64014C57.8337 2.64014 58.2361 2.81298 58.5286 3.12276L70.1393 15.4166C70.4154 15.7089 70.5713 16.0999 70.5713 16.5088V49.1833C70.5713 50.0642 69.8686 50.7582 69.0264 50.7582H33.6984C32.8562 50.7582 32.1535 50.0642 32.1535 49.1833V4.21502C32.1535 3.33416 32.8562 2.64014 33.6984 2.64014H57.4157Z" fill="white"/>
<path fill-rule="evenodd" clip-rule="evenodd" d="M36.4824 9.74885C36.4824 10.1686 36.8227 10.5088 37.2424 10.5088H42.8084C43.2281 10.5088 43.5683 10.1686 43.5683 9.74885C43.5683 9.32914 43.2281 8.9889 42.8084 8.9889H37.2424C36.8227 8.9889 36.4824 9.32914 36.4824 9.74885Z" fill="white"/>
<path fill-rule="evenodd" clip-rule="evenodd" d="M36.4824 14.9554C36.4824 15.3751 36.8227 15.7154 37.2424 15.7154H47.6209C48.0406 15.7154 48.3809 15.3751 48.3809 14.9554C48.3809 14.5357 48.0406 14.1955 47.6209 14.1955H37.2424C36.8227 14.1955 36.4824 14.5357 36.4824 14.9554Z" fill="white"/>
<path fill-rule="evenodd" clip-rule="evenodd" d="M36.6796 20.3988C36.6798 20.8185 37.0203 21.1586 37.44 21.1583L65.2239 21.1416C65.6436 21.1414 65.9837 20.8009 65.9834 20.3812C65.9832 19.9615 65.6427 19.6215 65.223 19.6217L37.4391 19.6384C37.0194 19.6387 36.6793 19.9791 36.6796 20.3988Z" fill="white"/>
<path fill-rule="evenodd" clip-rule="evenodd" d="M36.4809 31.8929C36.4812 32.3126 36.8216 32.6527 37.2413 32.6524L57.5052 32.6402C57.9249 32.64 58.265 32.2995 58.2647 31.8798C58.2645 31.4601 57.924 31.1201 57.5043 31.1203L37.2404 31.1325C36.8207 31.1328 36.4807 31.4732 36.4809 31.8929Z" fill="white"/>
<path fill-rule="evenodd" clip-rule="evenodd" d="M36.4823 26.1459C36.4826 26.5656 36.823 26.9056 37.2427 26.9054L65.0267 26.8887C65.4464 26.8884 65.7864 26.548 65.7861 26.1283C65.7859 25.7086 65.4454 25.3686 65.0257 25.3688L37.2418 25.3855C36.8221 25.3858 36.4821 25.7262 36.4823 26.1459Z" fill="white"/>
<path fill-rule="evenodd" clip-rule="evenodd" d="M36.6468 37.6404C36.6472 38.0601 37.1662 38.4001 37.8061 38.3999L62.489 38.3901C63.1289 38.3899 63.6473 38.0494 63.647 37.6297C63.6466 37.21 63.1275 36.87 62.4877 36.8702L37.8047 36.88C37.1648 36.8802 36.6464 37.2207 36.6468 37.6404Z" fill="white"/>
<path fill-rule="evenodd" clip-rule="evenodd" d="M36.6488 43.3884C36.6492 43.8081 37.1682 44.1482 37.8081 44.1479L61.2144 44.1387C61.8543 44.1384 62.3727 43.798 62.3723 43.3783C62.3719 42.9586 61.8529 42.6185 61.213 42.6188L37.8067 42.628C37.1668 42.6283 36.6484 42.9687 36.6488 43.3884Z" fill="white"/>
</svg>
