<svg width="89" height="65" viewBox="0 0 89 65" fill="none" xmlns="http://www.w3.org/2000/svg">
<rect opacity="0.1" x="11" width="68" height="65" rx="32.5" fill="#005073"/>
<path d="M28.7532 33.1016H24.6455V49.4934H28.7532V33.1016Z" fill="#333333"/>
<path d="M60.2456 38.162C60.1086 38.0255 58.8763 37.3427 56.9594 37.3427C54.4948 37.3427 52.7148 39.1182 52.7148 41.577C52.7148 43.8992 54.3578 45.8117 56.9594 45.8117C58.7394 45.8117 60.1086 45.1286 60.2456 44.992V49.2266C59.6979 49.3632 58.4655 49.7729 56.6855 49.7729C52.4409 49.7729 48.744 46.9044 48.4701 41.9869C48.3332 37.6157 51.4825 33.791 55.864 33.5178C58.0548 33.3812 59.8348 33.9275 60.2456 34.0641V38.162Z" fill="#333333"/>
<path d="M19.1687 38.1559C19.0318 38.0193 17.7995 37.3366 15.8825 37.3366C13.4179 37.3366 11.638 39.1121 11.638 41.5709C11.638 43.8931 13.281 45.8056 15.8825 45.8056C17.6625 45.8056 19.0318 45.1225 19.1687 44.9859V49.2205C18.621 49.3571 17.3887 49.7668 15.6087 49.7668C11.6379 49.7668 8.07796 47.1715 7.53026 42.6638C6.98257 37.8828 10.5425 33.5116 15.3348 33.375C17.2517 33.375 18.758 33.785 19.1687 33.9216V38.1559Z" fill="#333333"/>
<path d="M80.5114 41.4342C80.5114 45.9419 77.0883 49.6301 72.4329 49.6301C67.6406 49.6301 64.3545 45.9419 64.3545 41.4342C64.3545 36.9264 67.7775 33.2383 72.4329 33.2383C77.0883 33.3749 80.5114 36.9264 80.5114 41.4342ZM72.4329 37.3362C70.1052 37.3362 68.4622 39.2486 68.4622 41.4342C68.4622 43.7564 70.1052 45.5321 72.4329 45.5321C74.7606 45.5321 76.4037 43.6198 76.4037 41.4342C76.4037 39.2486 74.6237 37.3362 72.4329 37.3362Z" fill="#333333"/>
<path d="M43.8151 37.0667C43.8151 37.0667 42.0351 36.5204 40.8028 36.5204C39.1597 36.5204 38.3382 37.0668 38.3382 37.8864C38.3382 38.8426 39.4335 39.2525 40.1181 39.3891L41.2135 39.7987C43.8151 40.6183 44.9105 42.3941 44.9105 44.3065C44.9105 48.2678 41.4874 49.634 38.4751 49.634C36.4212 49.634 34.3674 49.2242 34.2305 49.2242V45.5361C34.6412 45.6727 36.2842 46.0823 37.9273 46.0823C39.8442 46.0823 40.8028 45.5358 40.8028 44.5796C40.8028 43.76 39.9812 43.3503 39.0228 42.9405C38.7489 42.8039 38.475 42.804 38.2012 42.6674C36.0104 41.9844 34.2305 40.6185 34.2305 38.0232C34.2305 35.018 36.4212 32.9688 39.9812 32.9688C41.8981 32.9688 43.6782 33.5153 43.8151 33.5153V37.0667Z" fill="#333333"/>
<path d="M4.10769 16.5763C4.10769 15.4835 3.14923 14.5273 2.05385 14.5273C0.958462 14.5273 0 15.4835 0 16.5763V20.9477C0 22.1771 0.958462 22.9967 2.05385 22.9967C3.14923 22.9967 4.10769 22.0405 4.10769 20.9477V16.5763Z" fill="#333333"/>
<path d="M15.0618 10.9748C15.0618 9.88197 14.1033 8.92578 13.0079 8.92578C11.9126 8.92578 10.9541 9.88197 10.9541 10.9748V21.2196C10.9541 22.449 11.9126 23.2686 13.0079 23.2686C14.1033 23.2686 15.0618 22.3124 15.0618 21.2196V10.9748Z" fill="#333333"/>
<path d="M24.6468 3.1896C24.6468 2.09681 23.6883 1.14062 22.5929 1.14062C21.4975 1.14062 20.5391 2.09681 20.5391 3.1896V25.4549C20.5391 26.5477 21.4975 27.5038 22.5929 27.5038C23.6883 27.5038 24.6468 26.5477 24.6468 25.4549V3.1896Z" fill="#333333"/>
<path d="M35.5999 10.9748C35.5999 9.88197 34.6414 8.92578 33.546 8.92578C32.4506 8.92578 31.4922 9.88197 31.4922 10.9748V21.2196C31.4922 22.449 32.4506 23.2686 33.546 23.2686C34.6414 23.2686 35.5999 22.3124 35.5999 21.2196V10.9748Z" fill="#333333"/>
<path d="M46.554 16.5763C46.554 15.4835 45.5955 14.5273 44.5001 14.5273C43.4048 14.5273 42.4463 15.4835 42.4463 16.5763V20.9477C42.4463 22.1771 43.4048 22.9967 44.5001 22.9967C45.5955 22.9967 46.554 22.0405 46.554 20.9477V16.5763Z" fill="#333333"/>
<path d="M57.5081 10.9748C57.5081 9.88197 56.5496 8.92578 55.4542 8.92578C54.3589 8.92578 53.4004 9.88197 53.4004 10.9748V21.2196C53.4004 22.449 54.3589 23.2686 55.4542 23.2686C56.5496 23.2686 57.5081 22.3124 57.5081 21.2196V10.9748Z" fill="#333333"/>
<path d="M67.093 3.1896C67.093 1.96022 66.1346 1.14062 65.0392 1.14062C63.9438 1.14062 62.9854 2.09681 62.9854 3.1896V25.5916C62.9854 26.821 63.9438 27.6406 65.0392 27.6406C66.1346 27.6406 67.093 26.6844 67.093 25.5916V3.1896Z" fill="#333333"/>
<path d="M78.0462 10.9748C78.0462 9.88197 77.0877 8.92578 75.9923 8.92578C74.8969 8.92578 73.9385 9.88197 73.9385 10.9748V21.2196C73.9385 22.449 74.8969 23.2686 75.9923 23.2686C77.0877 23.2686 78.0462 22.3124 78.0462 21.2196V10.9748Z" fill="#333333"/>
<path d="M89.0003 16.5763C89.0003 15.4835 88.0418 14.5273 86.9464 14.5273C85.851 14.5273 84.8926 15.4835 84.8926 16.5763V20.9477C84.8926 22.1771 85.851 22.9967 86.9464 22.9967C88.0418 22.9967 89.0003 22.0405 89.0003 20.9477V16.5763Z" fill="#333333"/>
</svg>
