<svg width="18" height="18" viewBox="0 0 18 18" fill="none" xmlns="http://www.w3.org/2000/svg">
<path fill-rule="evenodd" clip-rule="evenodd" d="M15 0C16.6569 0 18 1.34315 18 3V15C18 16.6569 16.6569 18 15 18H3C1.34315 18 0 16.6569 0 15V3C0 1.34315 1.34315 0 3 0H15ZM14.9998 1.5H2.99981C2.20904 1.5 1.56119 2.11191 1.50393 2.88805L1.49981 3V15C1.49981 15.7908 2.11172 16.4386 2.88787 16.4959L2.99981 16.5H14.9998C15.7906 16.5 16.4384 15.8881 16.4957 15.1119L16.4998 15V3C16.4998 2.20923 15.8879 1.56137 15.1118 1.50411L14.9998 1.5ZM4.49981 8.25H13.4998C13.914 8.25 14.2498 8.58578 14.2498 9C14.2498 9.41421 13.914 9.75 13.4998 9.75H4.49981C4.0856 9.75 3.74981 9.41421 3.74981 9C3.74981 8.58578 4.0856 8.25 4.49981 8.25Z" fill="#059FD9"/>
</svg>
