<svg width="18" height="19" viewBox="0 0 18 19" fill="none" xmlns="http://www.w3.org/2000/svg">
<path fill-rule="evenodd" clip-rule="evenodd" d="M0 1.51562C0 0.687198 0.671573 0.015625 1.5 0.015625H16.5C17.3284 0.015625 18 0.687198 18 1.51562C18 2.34405 17.3284 3.01562 16.5 3.01562H1.5C0.671573 3.01562 0 2.34405 0 1.51562ZM3 9.51562C3 8.6872 3.67157 8.01562 4.5 8.01562H13.5C14.3284 8.01562 15 8.6872 15 9.51562C15 10.3441 14.3284 11.0156 13.5 11.0156H4.5C3.67157 11.0156 3 10.3441 3 9.51562ZM8.5 15.0156C7.67157 15.0156 7 15.6872 7 16.5156C7 17.3441 7.67157 18.0156 8.5 18.0156H9.5C10.3284 18.0156 11 17.3441 11 16.5156C11 15.6872 10.3284 15.0156 9.5 15.0156H8.5Z" fill="#005073"/>
</svg>
