<?xml version="1.0" encoding="utf-8"?>
<!-- Generator: Adobe Illustrator 22.1.0, SVG Export Plug-In . SVG Version: 6.00 Build 0)  -->
<svg version="1.1" id="Layer_1" xmlns="http://www.w3.org/2000/svg" xmlns:xlink="http://www.w3.org/1999/xlink" x="0px" y="0px"
	 viewBox="0 0 374.2 192" style="enable-background:new 0 0 374.2 192;" xml:space="preserve">
<style type="text/css">
	.st0{fill:none;stroke:#B9B9BA;stroke-width:2;stroke-miterlimit:10;}
	.st1{fill:#B9B9BA;}
</style>
<g>
	<g>
		<path class="st0" d="M0,191c0,0,294.9-5,369.2-189"/>
		<g>
			<polygon class="st1" points="374.2,11.3 372.3,12 368.9,2.7 359.9,6.8 359.1,5 370,0 			"/>
		</g>
	</g>
</g>
<path class="st1" d="M374.2,11.3L370,0l-10.9,5l0.8,1.8l7.7-3.5c-17,41.1-46.6,76.4-88,105c-33.6,23.2-75,42.2-123.1,56.2
	C74.6,188.5,0.7,190,0,190l0,2c0.7,0,74.8-1.5,157-25.5c48.3-14.1,89.9-33.1,123.7-56.5c41.7-28.8,71.5-64.5,88.7-105.9l2.9,7.8
	L374.2,11.3z"/>
</svg>
