<?xml version="1.0" encoding="utf-8"?>
<!-- Generator: Adobe Illustrator 22.1.0, SVG Export Plug-In . SVG Version: 6.00 Build 0)  -->
<svg version="1.1" id="Layer_1" xmlns="http://www.w3.org/2000/svg" xmlns:xlink="http://www.w3.org/1999/xlink" x="0px" y="0px"
	 viewBox="0 0 78 78" style="enable-background:new 0 0 78 78;" xml:space="preserve">
<style type="text/css">
	.st0{fill:#EDEDED;}
	.st1{fill:#C1C1C1;}
</style>
<circle class="st0" cx="39" cy="39" r="39"/>
<path class="st1" d="M45.1,14.8c-2.7-2.4-6.8-2.4-9.5-0.1L18,29v28h44V29L45.1,14.8z M36.9,16.3c2-1.7,4.9-1.7,6.9,0.1L59,29H21
	L36.9,16.3z M44.5,39H34l-10.4-8h32.5L44.5,39z M32.2,40.2L20,53.7V31h0.5L32.2,40.2z M21.5,55l12.7-14H44l14.3,14H21.5z M60,31
	v22.9L46.1,40.3l13-9.3H60z"/>
</svg>
