<svg width="180" height="126" viewBox="0 0 180 126" fill="none" xmlns="http://www.w3.org/2000/svg">
<path d="M94.5939 125.723C141.015 125.723 178.646 113.877 178.646 99.2647C178.646 84.6522 141.015 72.8064 94.5939 72.8064C48.173 72.8064 10.5414 84.6522 10.5414 99.2647C10.5414 113.877 48.173 125.723 94.5939 125.723Z" fill="#EEEEEE"/>
<path d="M33.2005 92.7445L94.5954 76.7233V6.66006L33.2005 23.339V92.7445Z" fill="#DDDDDD" stroke="#CCCCCB" stroke-miterlimit="10"/>
<path d="M94.5954 110.155L33.2005 94.1484V24.0706L94.5954 40.7495V110.155Z" fill="white" stroke="#CCCCCB" stroke-miterlimit="10"/>
<path d="M155.991 93.4177L94.596 77.2713V6.66006L155.991 23.4695V93.4177Z" fill="#F2F2F3" stroke="#CCCCCB" stroke-miterlimit="10"/>
<path d="M94.596 110.155L155.991 94.1484V24.0706L94.596 40.7495V110.155Z" fill="white" stroke="#CCCCCC" stroke-miterlimit="10"/>
<path d="M73.502 54.7249C73.502 54.7249 76.1772 53.38 78.8525 58.7452" stroke="#BCBCBC" stroke-miterlimit="10"/>
<path d="M44.7902 53.321C44.8768 51.9218 45.515 50.6141 46.5647 49.685C47.6145 48.7558 48.99 48.2811 50.3894 48.3651" stroke="#BCBCBC" stroke-miterlimit="10"/>
<path d="M76.8492 70.7897C77.9553 70.7897 78.852 69.893 78.852 68.7868C78.852 67.6807 77.9553 66.784 76.8492 66.784C75.7431 66.784 74.8464 67.6807 74.8464 68.7868C74.8464 69.893 75.7431 70.7897 76.8492 70.7897Z" fill="#BCBCBC"/>
<path d="M46.7078 64.0946C47.814 64.0946 48.7107 63.1979 48.7107 62.0918C48.7107 60.9856 47.814 60.0889 46.7078 60.0889C45.6017 60.0889 44.705 60.9856 44.705 62.0918C44.705 63.1979 45.6017 64.0946 46.7078 64.0946Z" fill="#BCBCBC"/>
<path d="M71.8205 78.508C71.8205 78.508 67.1429 71.1991 60.4333 70.4682C56.6525 69.9837 52.8278 70.9386 49.7184 73.1432" stroke="#BCBCBC" stroke-miterlimit="10"/>
<path d="M6.15822 10.5644C7.02564 10.5644 7.87355 10.8216 8.59478 11.3035C9.31601 11.7854 9.87822 12.4704 10.2102 13.2718C10.5421 14.0732 10.629 14.955 10.4597 15.8058C10.2905 16.6565 9.8728 17.438 9.25944 18.0513C8.64608 18.6647 7.86458 19.0824 7.01383 19.2516C6.16308 19.4208 5.28123 19.334 4.47984 19.0021C3.67845 18.6701 2.99355 18.108 2.51164 17.3868C2.02973 16.6655 1.77247 15.8176 1.77247 14.9502C1.77247 13.787 2.23452 12.6715 3.057 11.849C3.87949 11.0265 4.99505 10.5644 6.15822 10.5644V10.5644ZM6.15822 9.10249C5.00166 9.10249 3.87106 9.44546 2.90942 10.088C1.94778 10.7306 1.19831 11.6438 0.755718 12.7123C0.313122 13.7809 0.197263 14.9566 0.422896 16.091C0.64853 17.2253 1.20548 18.2673 2.02329 19.0851C2.84111 19.9029 3.8831 20.4598 5.01744 20.6854C6.15177 20.9111 7.32755 20.7953 8.39607 20.3527C9.46459 19.9101 10.3778 19.1606 11.0204 18.199C11.6629 17.2373 12.0059 16.1067 12.0059 14.9502C12.0059 13.3993 11.3898 11.9119 10.2931 10.8152C9.1965 9.71857 7.70912 9.10249 6.15822 9.10249Z" fill="#E2E2E2"/>
<path d="M22.2376 13.4877C23.8524 13.4877 25.1614 12.1786 25.1614 10.5639C25.1614 8.94907 23.8524 7.64002 22.2376 7.64002C20.6228 7.64002 19.3138 8.94907 19.3138 10.5639C19.3138 12.1786 20.6228 13.4877 22.2376 13.4877Z" fill="#E2E2E2"/>
<path d="M25.1614 31.0298H22.2375V28.106H19.3137V31.0298H16.3899V33.9536H19.3137V36.8775H22.2375V33.9536H25.1614V31.0298Z" fill="#999999"/>
<path d="M170.608 27.9285C171.37 27.9256 172.116 28.149 172.75 28.5703C173.385 28.9917 173.88 29.592 174.172 30.2951C174.465 30.9983 174.543 31.7726 174.395 32.5198C174.247 33.267 173.88 33.9534 173.342 34.492C172.803 35.0305 172.117 35.397 171.37 35.5449C170.622 35.6928 169.848 35.6154 169.145 35.3226C168.442 35.0298 167.842 34.5348 167.42 33.9002C166.999 33.2657 166.775 32.5203 166.778 31.7587C166.778 31.2557 166.877 30.7576 167.07 30.2929C167.262 29.8282 167.544 29.4059 167.9 29.0503C168.256 28.6946 168.678 28.4125 169.143 28.22C169.607 28.0275 170.105 27.9285 170.608 27.9285V27.9285ZM170.608 26.642C169.597 26.642 168.607 26.942 167.766 27.5043C166.924 28.0665 166.269 28.8656 165.881 29.8006C165.494 30.7356 165.393 31.7644 165.59 32.7569C165.788 33.7495 166.275 34.6612 166.99 35.3767C167.706 36.0923 168.618 36.5796 169.61 36.777C170.603 36.9745 171.632 36.8732 172.567 36.4859C173.502 36.0986 174.301 35.4428 174.863 34.6013C175.425 33.7599 175.725 32.7707 175.725 31.7587C175.725 30.4016 175.186 29.1002 174.227 28.1406C173.267 27.181 171.966 26.642 170.608 26.642V26.642Z" fill="#E2E2E2"/>
<path d="M161.415 4.71642C161.415 6.50142 159.968 7.94846 158.183 7.94846C156.398 7.94846 154.951 6.50142 154.951 4.71642C154.951 2.93141 156.398 1.48438 158.183 1.48438C159.968 1.48438 161.415 2.93141 161.415 4.71642Z" stroke="#999999"/>
<path d="M171.34 13.9117L173.431 17.0402L178.65 12.8592" stroke="#E2E2E2" stroke-width="1.43" stroke-miterlimit="10"/>
</svg>
