<svg width="313" height="301" viewBox="0 0 313 301" fill="none" xmlns="http://www.w3.org/2000/svg">
<path d="M93.8829 280.882V293.842H95.2869V289.036H98.0949C101.191 289.036 102.991 287.56 102.991 285.022C102.991 282.376 101.245 280.882 98.1669 280.882H93.8829ZM98.2029 282.052C100.327 282.052 101.515 283.15 101.515 285.022C101.515 286.822 100.399 287.866 98.1309 287.866H95.2869V282.052H98.2029ZM106.428 280.882H105.096V293.842H106.428V280.882ZM115.656 291.214C115.35 292.276 114.36 292.978 113.1 292.978C111.372 292.978 110.022 291.88 109.914 289.468H117.222C117.222 285.796 115.404 284.212 112.92 284.212C110.418 284.212 108.546 285.922 108.546 289.162C108.546 292.402 110.454 294.112 113.046 294.112C115.17 294.112 116.628 292.924 117.096 291.214H115.656ZM112.938 285.292C114.54 285.292 115.728 286.318 115.854 288.388H109.95C110.166 286.336 111.39 285.292 112.938 285.292ZM120.519 287.002C120.645 285.958 121.455 285.274 122.877 285.274C124.371 285.274 125.253 286.03 125.253 287.272V287.92L122.463 288.388C119.889 288.82 118.899 289.792 118.899 291.448C118.899 293.05 120.141 294.112 122.085 294.112C123.669 294.112 124.731 293.338 125.325 292.42L125.487 293.842H126.585V287.362C126.585 285.454 125.199 284.212 122.931 284.212C120.735 284.212 119.277 285.328 119.115 287.002H120.519ZM125.253 290.458C125.253 291.916 123.813 292.978 122.409 292.978C121.113 292.978 120.303 292.402 120.303 291.322C120.303 290.35 120.861 289.738 122.823 289.396L125.253 288.982V290.458ZM134.723 291.34C134.723 292.258 133.895 293.032 132.329 293.032C130.871 293.032 129.971 292.42 129.791 291.268H128.423C128.603 292.978 130.043 294.112 132.311 294.112C134.705 294.112 136.091 292.852 136.091 291.25C136.091 289.486 134.831 288.802 132.527 288.334C130.637 287.956 130.133 287.542 130.133 286.66C130.133 285.904 130.799 285.274 132.257 285.274C133.607 285.274 134.489 285.922 134.669 286.876H136.037C135.749 285.238 134.309 284.212 132.293 284.212C129.971 284.212 128.765 285.292 128.765 286.786C128.765 288.208 129.791 289.018 131.825 289.432C133.733 289.81 134.723 290.188 134.723 291.34ZM144.783 291.214C144.477 292.276 143.487 292.978 142.227 292.978C140.499 292.978 139.149 291.88 139.041 289.468H146.349C146.349 285.796 144.531 284.212 142.047 284.212C139.545 284.212 137.673 285.922 137.673 289.162C137.673 292.402 139.581 294.112 142.173 294.112C144.297 294.112 145.755 292.924 146.223 291.214H144.783ZM142.065 285.292C143.667 285.292 144.855 286.318 144.981 288.388H139.077C139.293 286.336 140.517 285.292 142.065 285.292ZM159.543 291.34C159.543 292.258 158.715 293.032 157.149 293.032C155.691 293.032 154.791 292.42 154.611 291.268H153.243C153.423 292.978 154.863 294.112 157.131 294.112C159.525 294.112 160.911 292.852 160.911 291.25C160.911 289.486 159.651 288.802 157.347 288.334C155.457 287.956 154.953 287.542 154.953 286.66C154.953 285.904 155.619 285.274 157.077 285.274C158.427 285.274 159.309 285.922 159.489 286.876H160.857C160.569 285.238 159.129 284.212 157.113 284.212C154.791 284.212 153.585 285.292 153.585 286.786C153.585 288.208 154.611 289.018 156.645 289.432C158.553 289.81 159.543 290.188 159.543 291.34ZM169.603 291.214C169.297 292.276 168.307 292.978 167.047 292.978C165.319 292.978 163.969 291.88 163.861 289.468H171.169C171.169 285.796 169.351 284.212 166.867 284.212C164.365 284.212 162.493 285.922 162.493 289.162C162.493 292.402 164.401 294.112 166.993 294.112C169.117 294.112 170.575 292.924 171.043 291.214H169.603ZM166.885 285.292C168.487 285.292 169.675 286.318 169.801 288.388H163.897C164.113 286.336 165.337 285.292 166.885 285.292ZM174.719 280.882H173.387V293.842H174.719V280.882ZM183.947 291.214C183.641 292.276 182.651 292.978 181.391 292.978C179.663 292.978 178.313 291.88 178.205 289.468H185.513C185.513 285.796 183.695 284.212 181.211 284.212C178.709 284.212 176.837 285.922 176.837 289.162C176.837 292.402 178.745 294.112 181.337 294.112C183.461 294.112 184.919 292.924 185.387 291.214H183.947ZM181.229 285.292C182.831 285.292 184.019 286.318 184.145 288.388H178.241C178.457 286.336 179.681 285.292 181.229 285.292ZM194.012 290.962C193.814 292.204 192.824 292.978 191.51 292.978C189.908 292.978 188.594 291.808 188.594 289.288C188.594 286.588 189.836 285.346 191.51 285.346C192.77 285.346 193.688 286.012 193.922 287.164H195.398C195.092 285.346 193.544 284.212 191.474 284.212C188.99 284.212 187.19 286.012 187.19 289.234C187.19 292.42 189.062 294.112 191.474 294.112C193.67 294.112 195.182 292.744 195.452 290.962H194.012ZM201.39 285.634V284.482H199.284V282.232H198.042L197.952 284.482H196.584V285.634H197.952V291.736C197.952 293.212 198.762 294.112 200.256 294.112C200.67 294.112 201.048 294.058 201.498 293.932V292.798C200.994 292.924 200.724 292.942 200.4 292.942C199.698 292.942 199.284 292.564 199.284 291.772V285.634H201.39ZM209.658 287.002C209.784 285.958 210.594 285.274 212.016 285.274C213.51 285.274 214.392 286.03 214.392 287.272V287.92L211.602 288.388C209.028 288.82 208.038 289.792 208.038 291.448C208.038 293.05 209.28 294.112 211.224 294.112C212.808 294.112 213.87 293.338 214.464 292.42L214.626 293.842H215.724V287.362C215.724 285.454 214.338 284.212 212.07 284.212C209.874 284.212 208.416 285.328 208.254 287.002H209.658ZM214.392 290.458C214.392 291.916 212.952 292.978 211.548 292.978C210.252 292.978 209.442 292.402 209.442 291.322C209.442 290.35 210 289.738 211.962 289.396L214.392 288.982V290.458ZM219.613 293.842V288.046C219.613 286.372 220.873 285.346 222.205 285.346C223.627 285.346 224.455 286.138 224.455 287.632V293.842H225.787V287.596C225.787 285.454 224.527 284.212 222.511 284.212C221.323 284.212 220.189 284.788 219.541 285.886L219.379 284.482H218.281V293.842H219.613ZM240.32 291.214C240.014 292.276 239.024 292.978 237.764 292.978C236.036 292.978 234.686 291.88 234.578 289.468H241.886C241.886 285.796 240.068 284.212 237.584 284.212C235.082 284.212 233.21 285.922 233.21 289.162C233.21 292.402 235.118 294.112 237.71 294.112C239.834 294.112 241.292 292.924 241.76 291.214H240.32ZM237.602 285.292C239.204 285.292 240.392 286.318 240.518 288.388H234.614C234.83 286.336 236.054 285.292 237.602 285.292ZM251.339 284.482H249.809L247.397 287.92L244.841 284.482H243.221L246.587 288.964L243.023 293.842H244.589L247.379 289.918L250.241 293.842H251.879L248.153 288.874L251.339 284.482ZM259.192 290.962C258.994 292.204 258.004 292.978 256.69 292.978C255.088 292.978 253.774 291.808 253.774 289.288C253.774 286.588 255.016 285.346 256.69 285.346C257.95 285.346 258.868 286.012 259.102 287.164H260.578C260.272 285.346 258.724 284.212 256.654 284.212C254.17 284.212 252.37 286.012 252.37 289.234C252.37 292.42 254.242 294.112 256.654 294.112C258.85 294.112 260.362 292.744 260.632 290.962H259.192ZM269.324 291.214C269.018 292.276 268.028 292.978 266.768 292.978C265.04 292.978 263.69 291.88 263.582 289.468H270.89C270.89 285.796 269.072 284.212 266.588 284.212C264.086 284.212 262.214 285.922 262.214 289.162C262.214 292.402 264.122 294.112 266.714 294.112C268.838 294.112 270.296 292.924 270.764 291.214H269.324ZM266.606 285.292C268.208 285.292 269.396 286.318 269.522 288.388H263.618C263.834 286.336 265.058 285.292 266.606 285.292ZM273.107 284.482V297.082H274.439V292.402C275.015 293.41 276.077 294.112 277.535 294.112C279.911 294.112 281.693 292.348 281.693 289.072C281.693 285.904 280.037 284.212 277.661 284.212C276.149 284.212 275.033 284.95 274.403 285.976L274.205 284.482H273.107ZM280.289 289.036C280.289 291.736 279.047 292.978 277.337 292.978C275.591 292.978 274.349 291.628 274.349 289.108C274.349 286.48 275.789 285.346 277.355 285.346C279.047 285.346 280.289 286.516 280.289 289.036ZM287.611 285.634V284.482H285.505V282.232H284.263L284.173 284.482H282.805V285.634H284.173V291.736C284.173 293.212 284.983 294.112 286.477 294.112C286.891 294.112 287.269 294.058 287.719 293.932V292.798C287.215 292.924 286.945 292.942 286.621 292.942C285.919 292.942 285.505 292.564 285.505 291.772V285.634H287.611ZM290.698 293.842V284.482H289.348V293.842H290.698ZM290.788 282.556V280.882H289.258V282.556H290.788ZM294.151 289.162C294.151 286.606 295.465 285.31 297.229 285.31C298.993 285.31 300.289 286.57 300.289 289.162C300.289 291.7 299.029 293.014 297.247 293.014C295.483 293.014 294.151 291.7 294.151 289.162ZM292.765 289.162C292.765 292.402 294.691 294.112 297.229 294.112C299.785 294.112 301.675 292.438 301.675 289.162C301.675 285.85 299.749 284.212 297.229 284.212C294.745 284.212 292.765 285.832 292.765 289.162ZM305.131 293.842V288.046C305.131 286.372 306.391 285.346 307.723 285.346C309.145 285.346 309.973 286.138 309.973 287.632V293.842H311.305V287.596C311.305 285.454 310.045 284.212 308.029 284.212C306.841 284.212 305.707 284.788 305.059 285.886L304.897 284.482H303.799V293.842H305.131Z" fill="#999999"/>
<g opacity="0.6">
<path d="M200.254 136.227C200.579 137.283 201.699 137.875 202.755 137.549C203.81 137.223 204.402 136.104 204.076 135.048L200.254 136.227ZM0.397683 15.8649C-0.263349 16.7498 -0.0818396 18.0031 0.803096 18.6641L15.224 29.4363C16.1089 30.0973 17.3621 29.9158 18.0232 29.0308C18.6842 28.1459 18.5027 26.8926 17.6178 26.2316L4.79922 16.6564L14.3745 3.83784C15.0355 2.95291 14.854 1.69966 13.969 1.03862C13.0841 0.377592 11.8309 0.559101 11.1698 1.44404L0.397683 15.8649ZM204.076 135.048C192.829 98.584 179.689 63.014 150.456 39.3857C121.139 15.6888 76.0683 4.31357 1.71333 15.0824L2.28667 19.0411C76.0818 8.35334 119.841 19.7828 147.942 42.4965C176.128 65.2787 188.995 99.7251 200.254 136.227L204.076 135.048Z" fill="#D6D6D6"/>
</g>
<g opacity="0.4">
<path d="M166.375 160.842C164.263 160.842 162.551 162.55 162.551 164.658V195.147H168.816V198.498H162.551V213.58H168.816V216.932H162.551V237.577C162.551 239.684 164.263 241.393 166.375 241.393H231.352C233.464 241.393 235.176 239.684 235.176 237.577V164.658C235.176 162.55 233.464 160.842 231.352 160.842H166.375Z" fill="#C4C4C4"/>
<path d="M245 254.842C245 257.051 224.181 258.842 198.5 258.842C172.819 258.842 152 257.051 152 254.842C152 252.632 172.819 250.841 198.5 250.841C224.181 250.841 245 252.632 245 254.842Z" fill="#C4C4C4"/>
</g>
<rect x="172" y="169.842" width="54" height="64" rx="5" fill="#FFFAF9"/>
<path fill-rule="evenodd" clip-rule="evenodd" d="M187.746 185.759C187.746 185.654 187.634 185.549 187.579 185.549L184.674 183.976C184.619 183.923 184.507 183.818 184.451 183.766L184.116 183.032C184.507 182.769 184.842 181.878 184.898 181.301C184.898 181.248 184.898 181.144 184.898 181.091V179.885C184.898 178.888 184.06 178.102 182.999 178.102C181.938 178.102 181.1 178.888 181.1 179.885V181.091C181.1 181.144 181.1 181.196 181.1 181.301C181.156 181.93 181.435 182.769 181.882 183.084L181.547 183.818C181.491 183.923 181.435 183.976 181.324 184.028L178.419 185.602C178.364 185.654 178.252 185.759 178.252 185.811L177.973 187.595H188.025L187.746 185.759Z" fill="#D6D6D6"/>
<rect x="190.152" y="178.848" width="22.5036" height="1.84772" rx="0.923858" fill="#D6D6D6"/>
<rect x="190.152" y="182.848" width="12.0965" height="1.84772" rx="0.923858" fill="#D6D6D6"/>
<path fill-rule="evenodd" clip-rule="evenodd" d="M187.863 203.739C187.863 203.635 187.75 203.531 187.694 203.531L184.763 201.965C184.707 201.912 184.594 201.808 184.537 201.756L184.199 201.025C184.594 200.764 184.932 199.876 184.988 199.302C184.988 199.25 184.988 199.146 184.988 199.093V197.893C184.988 196.901 184.143 196.118 183.072 196.118C182.001 196.118 181.156 196.901 181.156 197.893V199.093C181.156 199.146 181.156 199.198 181.156 199.302C181.212 199.929 181.494 200.764 181.945 201.077L181.607 201.808C181.551 201.912 181.494 201.965 181.381 202.017L178.451 203.583C178.395 203.635 178.282 203.739 178.282 203.792L178 205.566H188.144L187.863 203.739Z" fill="#D6D6D6"/>
<path d="M190.291 197.779C190.291 197.271 190.708 196.859 191.223 196.859H212.068C212.583 196.859 213 197.271 213 197.779C213 198.287 212.583 198.698 212.068 198.698H191.223C190.708 198.698 190.291 198.287 190.291 197.779Z" fill="#D6D6D6"/>
<path d="M190.291 201.761C190.291 201.253 190.708 200.841 191.223 200.841H201.566C202.081 200.841 202.498 201.253 202.498 201.761C202.498 202.269 202.081 202.68 201.566 202.68H191.223C190.708 202.68 190.291 202.269 190.291 201.761Z" fill="#D6D6D6"/>
<path fill-rule="evenodd" clip-rule="evenodd" d="M187.863 222.015C187.863 221.91 187.75 221.806 187.694 221.806L184.763 220.24C184.707 220.188 184.594 220.083 184.537 220.031L184.199 219.3C184.594 219.039 184.932 218.152 184.988 217.578C184.988 217.525 184.988 217.421 184.988 217.369V216.168C184.988 215.176 184.143 214.393 183.072 214.393C182.001 214.393 181.156 215.176 181.156 216.168V217.369C181.156 217.421 181.156 217.473 181.156 217.578C181.212 218.204 181.494 219.039 181.945 219.352L181.607 220.083C181.551 220.188 181.494 220.24 181.381 220.292L178.451 221.858C178.395 221.91 178.282 222.015 178.282 222.067L178 223.842H188.144L187.863 222.015Z" fill="#D6D6D6"/>
<path d="M190.291 216.055C190.291 215.547 190.708 215.135 191.223 215.135H212.068C212.583 215.135 213 215.547 213 216.055C213 216.562 212.583 216.974 212.068 216.974H191.223C190.708 216.974 190.291 216.562 190.291 216.055Z" fill="#D6D6D6"/>
<path d="M190.291 220.037C190.291 219.529 190.708 219.117 191.223 219.117H201.566C202.081 219.117 202.498 219.529 202.498 220.037C202.498 220.544 202.081 220.956 201.566 220.956H191.223C190.708 220.956 190.291 220.544 190.291 220.037Z" fill="#D6D6D6"/>
<path fill-rule="evenodd" clip-rule="evenodd" d="M187.863 185.463C187.863 185.359 187.75 185.254 187.694 185.254L184.763 183.688C184.707 183.636 184.594 183.532 184.537 183.48L184.199 182.749C184.594 182.488 184.932 181.6 184.988 181.026C184.988 180.974 184.988 180.87 184.988 180.817V179.617C184.988 178.625 184.143 177.842 183.072 177.842C182.001 177.842 181.156 178.625 181.156 179.617V180.817C181.156 180.87 181.156 180.922 181.156 181.026C181.212 181.653 181.494 182.488 181.945 182.801L181.607 183.532C181.551 183.636 181.494 183.688 181.381 183.741L178.451 185.307C178.395 185.359 178.282 185.463 178.282 185.515L178 187.29H188.144L187.863 185.463Z" fill="#D6D6D6"/>
<path d="M190.291 179.503C190.291 178.995 190.708 178.584 191.223 178.584H212.068C212.583 178.584 213 178.995 213 179.503C213 180.011 212.583 180.423 212.068 180.423H191.223C190.708 180.423 190.291 180.011 190.291 179.503Z" fill="#D6D6D6"/>
<path d="M190.291 183.485C190.291 182.977 190.708 182.566 191.223 182.566H201.566C202.081 182.566 202.498 182.977 202.498 183.485C202.498 183.993 202.081 184.405 201.566 184.405H191.223C190.708 184.405 190.291 183.993 190.291 183.485Z" fill="#D6D6D6"/>
<circle cx="245.501" cy="227.342" r="3.5" fill="white" stroke="#D6D6D6" stroke-width="2"/>
<path d="M144 205.342C144 207.919 142.122 209.842 140 209.842C137.878 209.842 136 207.919 136 205.342C136 202.765 137.878 200.842 140 200.842C142.122 200.842 144 202.765 144 205.342Z" fill="white" stroke="#D6D6D6" stroke-width="2"/>
</svg>
