<svg width="50" height="50" viewBox="0 0 50 50" fill="none" xmlns="http://www.w3.org/2000/svg">
<mask id="mask0" mask-type="alpha" maskUnits="userSpaceOnUse" x="0" y="0" width="50" height="50">
<circle cx="25" cy="25" r="25" fill="white"/>
</mask>
<g mask="url(#mask0)">
<path d="M17.9451 26.4337C18.3237 28.8948 20.2254 32.0271 23.3491 33.1286C24.6313 33.576 26.034 33.5846 27.3161 33.12C30.3882 32.0099 32.3502 28.8862 32.7374 26.4337C33.1505 26.3993 33.6926 25.8227 34.2778 23.7489C35.078 20.9178 34.2261 20.4961 33.5033 20.565C33.641 20.1777 33.7442 19.7819 33.8131 19.4033C35.035 12.063 31.4208 11.8135 31.4208 11.8135C31.4208 11.8135 30.8185 10.6604 29.2437 9.79124C28.1853 9.16305 26.7138 8.68116 24.7776 8.84466C24.1494 8.87048 23.5557 8.99956 22.9963 9.18027C22.2821 9.42121 21.6281 9.77402 21.0343 10.1871C20.3115 10.6432 19.6231 11.2111 19.0207 11.8565C18.0655 12.8375 17.2136 14.1024 16.8436 15.6772C16.5338 16.8561 16.6027 18.0867 16.8608 19.4119C16.9297 19.7991 17.0329 20.1863 17.1706 20.5736C16.4478 20.5047 15.5958 20.9264 16.3961 23.7575C16.9899 25.8227 17.532 26.3993 17.9451 26.4337Z" fill="#005073" fill-opacity="0.8"/>
<path d="M39.5353 36.0629C35.138 34.9442 31.5668 32.4315 31.5668 32.4315L28.7787 41.2519L28.2538 42.9127L28.2452 42.8869L27.7891 44.2981L26.3177 40.1246C29.9318 35.0819 25.5862 35.1336 25.3453 35.1422C25.1043 35.1336 20.7587 35.0819 24.3729 40.1246L22.9014 44.2981L22.4453 42.8869L22.4367 42.9127L21.9118 41.2519L19.1151 32.4315C19.1151 32.4315 15.5439 34.9442 11.1467 36.0629C7.86808 36.8976 7.71319 40.6839 7.84226 42.5512C7.84226 42.5512 8.03158 45.0898 8.22089 46.2085C8.22089 46.2085 14.6232 50.3648 25.3453 50.3734C36.0674 50.3734 42.4696 46.2085 42.4696 46.2085C42.6589 45.0898 42.8483 42.5512 42.8483 42.5512C42.9687 40.6839 42.8138 36.8976 39.5353 36.0629Z" fill="#005073" fill-opacity="0.8"/>
</g>
</svg>
