<svg width="18" height="16" viewBox="0 0 18 16" fill="none" xmlns="http://www.w3.org/2000/svg">
<path d="M0 3.02479C0 1.35425 1.36482 0 3.0484 0H14.9516C16.6352 0 18 1.35424 18 3.02479V12.9752C18 14.6458 16.6352 16 14.9516 16H3.0484C1.36482 16 0 14.6458 0 12.9752V3.02479Z" fill="#005073"/>
<path fill-rule="evenodd" clip-rule="evenodd" d="M14.9516 1.00826H3.0484C1.92601 1.00826 1.01613 1.91109 1.01613 3.02479V12.9752C1.01613 14.0889 1.92601 14.9917 3.0484 14.9917H14.9516C16.074 14.9917 16.9839 14.0889 16.9839 12.9752V3.02479C16.9839 1.91109 16.074 1.00826 14.9516 1.00826ZM3.0484 0C1.36482 0 0 1.35425 0 3.02479V12.9752C0 14.6458 1.36482 16 3.0484 16H14.9516C16.6352 16 18 14.6458 18 12.9752V3.02479C18 1.35424 16.6352 0 14.9516 0H3.0484Z" fill="white"/>
<path fill-rule="evenodd" clip-rule="evenodd" d="M10 5.7903L10.6357 5L14 8L10.6357 11L10 10.3135L12.5559 8L10 5.7903Z" fill="white"/>
<path fill-rule="evenodd" clip-rule="evenodd" d="M8 10.2097L7.36427 11L4 8L7.36427 5L8 5.68654L5.44413 8L8 10.2097Z" fill="white"/>
</svg>
