<?xml version="1.0" encoding="utf-8"?>
<!-- Generator: Adobe Illustrator 22.1.0, SVG Export Plug-In . SVG Version: 6.00 Build 0)  -->
<svg version="1.1" id="Layer_1" xmlns="http://www.w3.org/2000/svg" xmlns:xlink="http://www.w3.org/1999/xlink" x="0px" y="0px"
	 viewBox="0 0 13 13" style="enable-background:new 0 0 13 13;" xml:space="preserve">
<style type="text/css">
	.st0{fill:#005073;}
	.st1{fill:#FFFFFF;}
</style>
<path class="st0" d="M10,13H3c-1.6,0-3-1.3-3-3l0-7c0-1.6,1.3-3,3-3h7c1.6,0,3,1.3,3,3v7C13,11.7,11.7,13,10,13z"/>
<path class="st1" d="M10,1c1.1,0,2,0.9,2,2v7c0,1.1-0.9,2-2,2H3c-1.1,0-2-0.9-2-2V3c0-1.1,0.9-2,2-2H10 M10,0H3C1.3,0,0,1.3,0,3v7
	c0,1.6,1.3,3,3,3h7c1.6,0,3-1.3,3-3V3C13,1.3,11.7,0,10,0L10,0z"/>
<polygon class="st1" points="5.2,8.7 2.9,6.5 5.2,4.3 5.7,4.8 3.9,6.5 5.8,8.2 "/>
<polygon class="st1" points="7.8,8.7 7.2,8.2 9.1,6.5 7.3,4.8 7.8,4.3 10.1,6.5 "/>
</svg>
