<svg width="779" height="257" viewBox="0 0 779 257" fill="none" xmlns="http://www.w3.org/2000/svg">
<path d="M0 0H779V235.861H0V0Z" fill="#EAF4FB"/>
<mask id="mask0" style="mask-type:alpha" maskUnits="userSpaceOnUse" x="0" y="0" width="779" height="257">
<path d="M0 0H779V257H0V0Z" fill="#EAF4FB"/>
</mask>
<g mask="url(#mask0)">
<path d="M543.15 122.602C502.727 122.602 469.957 155.315 469.957 195.67C469.957 210.577 474.429 224.442 482.107 236H543.15H604.193C611.87 224.442 616.342 210.577 616.342 195.67C616.342 155.315 583.573 122.602 543.15 122.602Z" fill="#FFE199"/>
<path d="M547.676 122.923C562.12 124.321 576.241 128.626 607.178 115.067C642.535 98.0641 628.846 58.8935 688.563 67.1795C724.783 75.1428 713.422 121.374 730.496 146.166C758.583 186.951 770.811 153.161 776.416 209.119C772.5 242.5 719 238.5 719 238.5L638.763 239.358C638.763 239.358 586.931 230.866 563 237C555.131 222.903 559.534 228.596 552.635 211.917C547.999 188.78 544.335 156.497 547.676 122.923Z" fill="#FFE199"/>
<path d="M674.121 151.225C698.41 151.225 718.101 131.568 718.101 107.32C718.101 83.0712 698.41 63.4141 674.121 63.4141C649.831 63.4141 630.141 83.0712 630.141 107.32C630.141 131.568 649.831 151.225 674.121 151.225Z" fill="#FFE199"/>
<path d="M586.483 112.915C593.448 112.915 599.095 107.279 599.095 100.325C599.095 93.3714 593.448 87.7344 586.483 87.7344C579.518 87.7344 573.871 93.3714 573.871 100.325C573.871 107.279 579.518 112.915 586.483 112.915Z" fill="#FFE199"/>
<path d="M737.502 165.859C709.046 165.859 685.977 188.889 685.977 217.298C685.977 224.857 687.61 232.035 690.543 238.5H737.502H784.461C787.395 232.035 789.028 224.857 789.028 217.298C789.028 188.889 765.959 165.859 737.502 165.859Z" fill="#FFE199"/>
<path fill-rule="evenodd" clip-rule="evenodd" d="M219.71 144.502C219.659 144.964 219.243 145.296 218.78 145.245C208.221 144.082 192.336 144.316 178.989 148.755C172.321 150.972 166.338 154.224 161.959 158.827C157.596 163.414 154.794 169.377 154.521 177.11C153.978 192.472 166.59 205.391 184.548 215.319C202.441 225.211 225.32 231.943 244.603 235.034C261.642 237.764 284.696 235.908 303.092 231.181C302.84 230.331 302.647 229.474 302.504 228.617C301.418 222.037 303.412 215.486 305.513 211.057C307.687 206.474 311.365 202.516 315.613 200.561C319.901 198.586 324.776 198.665 329.112 202.213C332.456 204.949 334.364 207.724 334.898 210.513C335.439 213.331 334.546 216 332.644 218.432C328.89 223.231 321.035 227.343 311.329 230.533C309.387 231.172 307.365 231.776 305.276 232.342C307.136 236.985 311.098 241.394 318.555 244.625C328.257 248.828 344.382 252.454 361.061 253.037C377.756 253.62 394.829 251.147 406.535 243.323C406.922 243.065 407.444 243.169 407.703 243.555C407.961 243.94 407.858 244.463 407.472 244.721C395.328 252.837 377.826 255.304 361.002 254.717C344.159 254.129 327.818 250.47 317.885 246.167C309.941 242.726 305.637 237.921 303.637 232.776C285.021 237.578 261.671 239.472 244.336 236.694C224.916 233.582 201.84 226.8 183.732 216.79C165.691 206.816 152.259 193.445 152.838 177.051C153.126 168.904 156.095 162.551 160.739 157.67C165.367 152.804 171.625 149.433 178.456 147.16C192.11 142.618 208.26 142.396 218.965 143.574C219.428 143.625 219.761 144.04 219.71 144.502ZM304.721 230.752C306.821 230.183 308.852 229.578 310.801 228.937C320.466 225.759 327.894 221.773 331.316 217.398C333.002 215.243 333.671 213.054 333.244 210.829C332.812 208.574 331.225 206.115 328.044 203.513C324.273 200.428 320.102 200.345 316.317 202.088C312.491 203.849 309.072 207.484 307.035 211.777C305.009 216.049 303.157 222.235 304.166 228.343C304.299 229.146 304.481 229.95 304.721 230.752Z" fill="#FFE199"/>
<path d="M284.694 119.162C290.311 119.162 294.865 114.616 294.865 109.009C294.865 103.401 290.311 98.8555 284.694 98.8555C279.077 98.8555 274.523 103.401 274.523 109.009C274.523 114.616 279.077 119.162 284.694 119.162Z" fill="#D4EAF7"/>
<path d="M251.132 129.318C253.941 129.318 256.218 127.045 256.218 124.241C256.218 121.437 253.941 119.164 251.132 119.164C248.324 119.164 246.047 121.437 246.047 124.241C246.047 127.045 248.324 129.318 251.132 129.318Z" fill="#54AADE"/>
<path d="M398.52 106.545C402.166 106.545 405.122 103.594 405.122 99.9541C405.122 96.3141 402.166 93.3633 398.52 93.3633C394.874 93.3633 391.918 96.3141 391.918 99.9541C391.918 103.594 394.874 106.545 398.52 106.545Z" fill="#54AADE"/>
<path d="M449.7 196.091L439.844 188.84L405.559 235.281L415.415 242.533L449.7 196.091Z" fill="#FFB500"/>
<path d="M453.477 190.978L443.621 183.727L439.844 188.843L449.7 196.094L453.477 190.978Z" fill="#FF5A33"/>
<path d="M571.875 99.8784C570.405 94.9893 569.344 75.1069 570.895 69.8105L586.076 60.7656L604.932 65.4102L608.605 76.4107C611.136 75.4329 616.098 75.2373 615.706 82.2777C615.315 89.3179 610.809 90.1001 608.605 89.6113C608.605 89.6113 610.075 114.008 613.014 115.768C615.952 117.528 619.707 117.072 623.543 118.702L619.379 127.746L596.362 134.835C585.587 132.88 563.207 127.941 567.712 124.813C572.218 121.683 580.364 120.332 582.893 118.702V111.123C576.429 109.168 573.344 104.767 571.875 99.8784Z" fill="#623A17"/>
<path d="M518.738 194.237L524.86 175.902L554 178.348V195.704C550.409 201.489 544.762 213.983 542.247 217.46C539.063 221.86 534.247 223.49 531.961 223.816L451.644 226.016C446.991 226.586 436.853 227.532 433.523 226.749C430.193 225.967 428.381 226.423 427.892 226.749C430.046 231.834 428.3 233.757 427.156 234.083L424.032 230.964C424.026 230.972 424.02 230.979 424.015 230.987C425.721 234.458 424.702 236.535 423.973 237.506C422.259 237.994 421.769 236.935 421.034 234.817C421.943 233.714 422.959 232.399 424.015 230.987C424.001 230.96 423.987 230.933 423.973 230.905L424.032 230.964C428.664 224.764 434.013 216.726 434.013 216.726C434.013 216.726 425.442 215.993 423.239 215.505C422.259 222.545 418.75 223.164 417.117 222.594C417.199 218.927 417.704 210.615 419.076 206.705C421.427 198.881 439.645 206.053 446.012 208.416L518.738 194.237Z" fill="#623A17"/>
<path fill-rule="evenodd" clip-rule="evenodd" d="M599.662 103.002C599.965 103.2 600.049 103.606 599.851 103.908C595.156 111.041 586.87 111.955 583.309 111.532C582.949 111.489 582.693 111.164 582.735 110.805C582.779 110.446 583.104 110.19 583.464 110.233C586.759 110.624 594.439 109.746 598.755 103.189C598.954 102.888 599.36 102.804 599.662 103.002Z" fill="#93613C"/>
<path fill-rule="evenodd" clip-rule="evenodd" d="M580.097 79.5244C579.953 79.3776 579.753 79.3484 579.467 79.4628C579.131 79.597 578.749 79.4338 578.615 79.0984C578.481 78.7629 578.643 78.3822 578.98 78.248C579.509 78.0365 580.365 77.9243 581.035 78.612C581.644 79.235 581.914 80.3557 581.836 82.063C581.716 84.729 581.596 86.7537 580.738 88.6301C579.874 90.5201 578.301 92.1877 575.462 94.2846C575.407 94.3298 575.348 94.3907 575.305 94.4561C575.257 94.5263 575.243 94.5749 575.24 94.5968C575.24 94.5974 575.24 94.5978 575.24 94.5984C575.239 94.6058 575.238 94.6154 575.257 94.6432C575.285 94.6847 575.37 94.7795 575.599 94.8933C576.046 95.1167 576.776 95.2197 577.589 95.2276C578.379 95.2354 579.148 95.1536 579.605 95.0777C579.962 95.0182 580.3 95.259 580.36 95.6154C580.419 95.9717 580.178 96.3087 579.82 96.3681C579.299 96.455 578.452 96.5445 577.576 96.5359C576.724 96.5275 575.74 96.4268 575.013 96.0635C574.653 95.8839 574.363 95.659 574.171 95.3755C573.972 95.0803 573.904 94.7592 573.938 94.4533C574 93.8904 574.386 93.4678 574.652 93.2564L574.66 93.2486L574.672 93.2412C577.456 91.1865 578.818 89.6781 579.545 88.0871C580.28 86.4798 580.404 84.7156 580.528 82.0037C580.603 80.3669 580.303 79.7356 580.097 79.5244Z" fill="#93613C"/>
<path d="M599.058 77.8789C594.814 77.3901 586.031 76.7055 584.855 77.8789C585.019 76.7381 588.087 75.141 599.058 77.8789Z" fill="#AA7D54"/>
<path d="M589.261 80.3224C587.694 79.9314 586.976 81.1374 586.812 81.7892C587.4 83.3537 588.853 83.2559 589.506 83.0115C590.078 82.2781 590.828 80.7136 589.261 80.3224Z" fill="#301E10"/>
<path d="M575.551 81.2989C574.571 79.9299 573.674 80.7285 573.348 81.2989C573.348 81.9507 573.592 83.2056 574.571 83.01C575.551 82.8144 575.632 81.7877 575.551 81.2989Z" fill="#301E10"/>
<path d="M569.672 78.2033C571.623 77.699 575.977 77.04 577.782 78.4385C577.189 77.2183 574.737 75.4629 569.672 78.2033Z" fill="#AA7D54"/>
<path d="M598.325 70.0537C599.696 63.6001 595.468 65.0832 593.182 66.6313L586.082 71.2759C576.874 75.8914 571.144 73.7205 568.45 71.2759C565.756 68.8314 565.022 62.8667 568.94 58.5643C572.858 54.2619 578.898 50.9047 581.429 49.7639C584.367 48.786 591.713 46.9771 597.591 47.5638C603.467 48.1505 609.834 53.5122 612.282 56.1198C614.829 63.9422 614.323 73.5575 613.751 76.8984C611.401 75.5294 609.017 75.839 608.12 76.654L606.161 88.3877C601.655 87.2143 601.181 83.4986 601.508 81.7874C599.059 79.8319 596.611 78.1207 598.325 70.0537Z" fill="#AA7D54"/>
<path d="M597.341 32.4098C592.64 40.2324 598.32 47.566 601.748 50.255L606.646 55.3886C616.441 57.7353 620.849 52.944 621.828 50.255C626.138 40.4768 620.032 32.8172 616.441 30.2097C612.034 27.6836 602.042 24.5873 597.341 32.4098Z" fill="#AA7D54"/>
<path fill-rule="evenodd" clip-rule="evenodd" d="M591.959 96.7572C592.197 97.0284 592.172 97.4417 591.9 97.6804C586.79 102.169 580.421 101.933 577.83 101.244C577.48 101.151 577.273 100.792 577.366 100.443C577.459 100.094 577.818 99.8866 578.168 99.9796C580.474 100.594 586.349 100.814 591.034 96.6982C591.306 96.4596 591.719 96.4859 591.959 96.7572Z" fill="#93613C"/>
<path d="M588.528 89.6094C588.332 83.1558 594.65 82.765 596.609 83.2536C598.568 83.7424 600.673 83.7424 601.262 89.6094C601.849 95.4766 598.078 97.106 596.118 97.1874C593.67 97.3504 588.724 96.0631 588.528 89.6094Z" fill="#93613C"/>
<path d="M573.345 88.3916C574.08 92.5474 572.365 96.4587 571.386 96.7031L570.406 84.7248C570.406 84.7248 572.611 84.2358 573.345 88.3916Z" fill="#93613C"/>
<path d="M591.712 131.171C579.763 131.562 572.041 124.978 569.674 121.637C566.572 122.534 558.704 127.456 552.043 128.238C545.383 129.02 538.331 137.364 535.637 141.438C532.046 148.12 524.569 162.412 523.393 166.128C522.218 169.844 519.149 173.869 517.762 175.417L548.86 186.173L547.146 248.265L645.829 246.798L644.115 189.352L684.274 184.952C683.49 183.386 682.968 180.551 682.805 179.329C676.927 147.55 672.765 143.638 669.826 138.505C666.888 133.371 656.358 129.216 645.829 127.505C637.406 126.135 627.464 118.622 623.545 116.504L619.138 121.637C614.975 124.652 603.662 130.78 591.712 131.171Z" fill="#FFB500"/>
<path d="M643.133 212.569C645.173 212.081 650.479 211.152 655.376 211.347" stroke="black" stroke-width="0.373703"/>
<path d="M642.648 212.818V189.105L678.079 185.219C677.833 200.7 678.938 232.471 673.256 238.729C667.576 244.987 645.587 247.53 635.302 248.019C611.468 248.264 570.536 247.444 566.031 247.444H554.277C548.481 249.236 536.842 252.479 536.646 251.111C536.45 249.742 540.972 246.466 543.257 245C537.38 247.037 525.235 251.111 523.668 251.111C522.1 251.111 522.198 249.645 522.443 248.91C516.567 251.111 515.342 249.4 515.831 248.177C516.322 246.955 525.957 239.78 525.713 238.558C525.517 237.58 523.509 237.825 522.529 238.068C516.26 246.934 511.914 246.82 511.18 245C514.77 239.214 524.341 225.125 528.651 225.515C532.96 225.907 549.38 228.132 554.277 229.843L642.648 212.818Z" fill="#623A17"/>
<path d="M516.507 232.417C519.579 231.089 521.211 231.693 521.643 232.161L520.86 236.116C520.631 236.455 519.248 237.225 515.54 237.605C511.833 237.986 511.306 236.266 511.505 235.359C511.893 234.932 513.435 233.744 516.507 232.417Z" fill="#623A17"/>
<path fill-rule="evenodd" clip-rule="evenodd" d="M521.073 232.128C521.345 232.367 521.371 232.78 521.132 233.051L515.745 239.162C515.505 239.434 515.092 239.461 514.82 239.221C514.548 238.983 514.522 238.569 514.761 238.298L520.148 232.187C520.388 231.915 520.801 231.89 521.073 232.128Z" fill="#93613C"/>
<path fill-rule="evenodd" clip-rule="evenodd" d="M529.618 233.402C529.162 233.319 528.889 233.312 528.778 233.334C528.749 233.34 528.656 233.37 528.484 233.46C528.322 233.545 528.125 233.664 527.897 233.814C527.443 234.113 526.9 234.515 526.329 234.961C525.19 235.852 523.978 236.894 523.209 237.58C522.939 237.821 522.526 237.798 522.284 237.529C522.043 237.26 522.066 236.846 522.335 236.605C523.119 235.907 524.354 234.845 525.521 233.932C526.103 233.476 526.678 233.05 527.175 232.721C527.424 232.558 527.66 232.414 527.875 232.302C528.079 232.195 528.305 232.094 528.52 232.051C528.899 231.976 529.392 232.032 529.853 232.115C530.344 232.205 530.903 232.348 531.465 232.51C532.589 232.837 533.772 233.26 534.52 233.549C534.856 233.68 535.023 234.06 534.892 234.396C534.761 234.733 534.381 234.9 534.044 234.769C533.323 234.488 532.178 234.08 531.099 233.767C530.559 233.61 530.047 233.48 529.618 233.402Z" fill="#93613C"/>
<path fill-rule="evenodd" clip-rule="evenodd" d="M535.63 233.05C537.994 232.71 539.553 233.484 540.22 234.54C540.413 234.845 540.322 235.249 540.016 235.442C539.71 235.634 539.305 235.543 539.113 235.238C538.8 234.746 537.838 234.054 535.817 234.345C533.791 234.636 530.779 235.921 526.612 239.307C526.331 239.535 525.918 239.493 525.69 239.214C525.462 238.933 525.504 238.52 525.785 238.292C530.042 234.833 533.273 233.389 535.63 233.05Z" fill="#93613C"/>
<path fill-rule="evenodd" clip-rule="evenodd" d="M535.471 239.985C535.675 240.284 535.598 240.691 535.298 240.894L523.789 248.717C523.491 248.92 523.083 248.843 522.879 248.544C522.676 248.246 522.753 247.839 523.052 247.635L534.561 239.813C534.86 239.609 535.268 239.687 535.471 239.985Z" fill="#93613C"/>
<path fill-rule="evenodd" clip-rule="evenodd" d="M550.275 241.45C550.454 241.633 550.521 241.861 550.521 242.066C550.521 242.428 550.228 242.72 549.866 242.72C549.657 242.72 549.469 242.621 549.349 242.468C549.342 242.469 549.335 242.47 549.328 242.471C549.217 242.489 549.062 242.528 548.857 242.598C548.023 242.887 546.55 243.641 544.113 245.296C543.814 245.499 543.407 245.422 543.203 245.122C543 244.824 543.077 244.417 543.377 244.214C545.838 242.543 547.426 241.709 548.427 241.362C548.914 241.194 549.347 241.109 549.702 241.166C549.891 241.196 550.105 241.274 550.275 241.45Z" fill="#93613C"/>
<path fill-rule="evenodd" clip-rule="evenodd" d="M669.726 229.769C670.083 229.715 670.418 229.96 670.472 230.317C670.654 231.493 670.546 233.302 669.644 234.989C668.727 236.707 667.013 238.253 664.086 238.879C663.731 238.955 663.383 238.729 663.308 238.376C663.232 238.022 663.457 237.675 663.81 237.599C666.368 237.052 667.755 235.746 668.488 234.374C669.235 232.975 669.322 231.459 669.177 230.516C669.122 230.159 669.368 229.825 669.726 229.769Z" fill="#93613C"/>
<path fill-rule="evenodd" clip-rule="evenodd" d="M549.105 166.203C549.467 166.203 549.76 166.496 549.76 166.857V186.169C549.76 186.531 549.467 186.823 549.105 186.823C548.743 186.823 548.449 186.531 548.449 186.169V166.857C548.449 166.496 548.743 166.203 549.105 166.203Z" fill="#995500"/>
<path d="M642.156 189.103L634.32 189.593V156.836" stroke="#995500" stroke-linecap="round"/>
<path fill-rule="evenodd" clip-rule="evenodd" d="M536.941 212.411C537.3 212.457 537.555 212.783 537.509 213.142C537.281 214.971 536.047 216.296 534.723 217.19C533.394 218.086 531.88 218.616 530.877 218.833C530.523 218.91 530.174 218.686 530.097 218.333C530.02 217.98 530.245 217.631 530.599 217.555C531.472 217.365 532.824 216.892 533.989 216.106C535.158 215.317 536.046 214.279 536.21 212.98C536.254 212.622 536.582 212.367 536.941 212.411Z" fill="#93613C"/>
<path d="M413.69 214.28C414.67 206.85 417.527 205.97 418.833 206.458L420.302 208.169L416.874 219.903L413.446 224.792C413.037 224.14 412.71 221.712 413.69 214.28Z" fill="#623A17"/>
<path d="M412.223 226.259C409.48 220.001 411.896 217.132 413.447 216.48L413.937 224.059L412.223 226.259Z" fill="#623A17"/>
<path fill-rule="evenodd" clip-rule="evenodd" d="M434.163 215.682C434.472 215.493 434.875 215.591 435.062 215.901C436.129 217.65 439.517 220.967 444.447 220.239C444.805 220.185 445.138 220.432 445.191 220.789C445.244 221.146 444.996 221.479 444.639 221.532C438.991 222.368 435.163 218.58 433.943 216.58C433.755 216.272 433.853 215.87 434.163 215.682Z" fill="#93613C"/>
<path fill-rule="evenodd" clip-rule="evenodd" d="M436.208 217.583C436.546 217.712 436.715 218.09 436.585 218.429C436.419 218.859 436.28 219.614 436.438 220.392C436.59 221.146 437.019 221.935 438.018 222.517C438.33 222.7 438.436 223.1 438.253 223.412C438.071 223.724 437.67 223.829 437.357 223.648C436.005 222.86 435.372 221.735 435.154 220.652C434.94 219.594 435.12 218.587 435.362 217.958C435.491 217.621 435.87 217.453 436.208 217.583Z" fill="#93613C"/>
<path fill-rule="evenodd" clip-rule="evenodd" d="M437.362 211.063C437.387 211.424 437.113 211.735 436.752 211.76L422.596 212.718C422.442 212.94 422.379 213.131 422.36 213.288C422.336 213.493 422.379 213.697 422.484 213.904C422.707 214.343 423.173 214.725 423.554 214.933C423.872 215.106 423.989 215.503 423.816 215.82C423.642 216.138 423.244 216.254 422.927 216.082C422.411 215.8 421.701 215.254 421.315 214.495C421.117 214.104 420.999 213.641 421.059 213.134C421.12 212.624 421.354 212.126 421.768 211.654L421.947 211.45L436.664 210.455C437.025 210.43 437.338 210.703 437.362 211.063Z" fill="#93613C"/>
<path fill-rule="evenodd" clip-rule="evenodd" d="M418.444 208.747C418.802 208.804 419.045 209.139 418.988 209.496C418.665 211.513 417.966 216.929 417.771 222.372C417.759 222.734 417.454 223.016 417.093 223.003C416.731 222.989 416.449 222.687 416.461 222.325C416.659 216.817 417.364 211.347 417.694 209.289C417.751 208.932 418.087 208.69 418.444 208.747Z" fill="#93613C"/>
<path fill-rule="evenodd" clip-rule="evenodd" d="M419.81 30.0391C405.226 30.0391 393.402 41.8423 393.402 56.4024C393.402 70.9624 405.226 82.7656 419.81 82.7656H507.288L529.617 98.0172C531.576 99.356 534.238 97.9549 534.238 95.5841V82.7656H535.346C549.931 82.7656 561.754 70.9624 561.754 56.4024C561.754 41.8423 549.931 30.0391 535.346 30.0391H419.81Z" fill="#FFF0CC"/>
<path fill-rule="evenodd" clip-rule="evenodd" d="M435.338 40.2677C435.679 40.9854 435.975 41.9123 436.231 43.0568C438.271 52.2232 435.428 58.5954 431.012 62.9978C429.84 64.1652 428.561 65.1917 427.238 66.0955C427.516 67.3054 427.908 68.3466 428.422 69.1734C429.172 70.3829 430.165 71.1172 431.468 71.3029C434.276 71.7032 436.529 71.5197 438.471 70.2459C440.434 68.9582 442.218 66.4652 443.846 61.9138C444.27 60.7262 444.716 59.8119 445.192 59.1571C445.663 58.5084 446.223 58.0357 446.893 57.893C447.589 57.7446 448.218 57.9896 448.727 58.38C449.226 58.7624 449.669 59.3233 450.061 59.9575C451.399 62.1195 452.517 65.7402 453.242 68.8107C454.902 67.089 457.143 65.2188 459.378 64.3075C460.746 63.7488 462.217 63.5085 463.573 64.0098C464.829 64.4748 465.834 65.5199 466.539 67.1754H491.267C492.419 65.9478 494.2 64.5025 496.041 64.0465C497.056 63.7952 498.144 63.8327 499.135 64.4372C500.002 64.9661 500.699 65.8729 501.215 67.1754H532.041C532.462 67.1754 532.803 67.5163 532.803 67.9368C532.803 68.3573 532.462 68.6983 532.041 68.6983H500.131L499.957 68.1777C499.496 66.7961 498.905 66.082 498.339 65.7365C497.785 65.3986 497.141 65.3434 496.409 65.5247C494.886 65.9016 493.239 67.246 492.174 68.4428L491.945 68.6983H465.486L465.303 68.197C464.693 66.5196 463.871 65.7446 463.042 65.4379C462.19 65.1224 461.143 65.2323 459.954 65.7174C457.563 66.693 455.018 69.0152 453.395 70.9047L452.386 72.0805L452.069 70.5643C451.383 67.2732 450.166 63.0235 448.763 60.7578C448.416 60.1973 448.09 59.8107 447.799 59.5882C447.518 59.3734 447.337 59.3558 447.211 59.3824C447.061 59.4146 446.788 59.5547 446.427 60.0516C446.07 60.5424 445.682 61.3068 445.282 62.426C443.609 67.1017 441.679 69.9639 439.309 71.5187C436.918 73.0876 434.22 73.2339 431.251 72.8106C429.418 72.5492 428.065 71.491 427.125 69.9753C426.587 69.1104 426.182 68.0921 425.884 66.9714C422.666 68.9412 419.327 70.2435 416.753 71.1289C416.356 71.266 415.921 71.0548 415.784 70.6573C415.647 70.2597 415.859 69.8263 416.256 69.6892C418.93 68.7689 422.342 67.4231 425.543 65.3883C425.487 65.06 425.439 64.7256 425.398 64.3866C424.873 60.092 425.426 54.7813 426.489 50.1262C427.023 47.7928 427.688 45.6044 428.424 43.7708C429.153 41.9537 429.972 40.4247 430.838 39.4603C431.27 38.9794 431.764 38.5804 432.321 38.3981C432.921 38.2021 433.535 38.2773 434.084 38.6474C434.596 38.9923 435.003 39.5597 435.338 40.2677ZM426.943 64.4419C426.933 64.3625 426.922 64.2825 426.913 64.2021C426.416 60.142 426.936 55.0193 427.977 50.4648C428.496 48.1933 429.141 46.083 429.84 44.3366C430.547 42.5739 431.287 41.2417 431.975 40.4768C432.319 40.093 432.599 39.9102 432.797 39.8454C432.953 39.7941 433.077 39.8061 433.229 39.9095C433.42 40.0381 433.68 40.3302 433.959 40.9194C434.235 41.4991 434.501 42.3072 434.742 43.3872C436.662 52.0158 434.003 57.8642 429.934 61.92C429.001 62.8498 427.992 63.687 426.943 64.4419Z" fill="#FFC433"/>
<path d="M467.668 58.0518C469.491 58.0518 470.969 56.5764 470.969 54.7563C470.969 52.9363 469.491 51.4609 467.668 51.4609C465.845 51.4609 464.367 52.9363 464.367 54.7563C464.367 56.5764 465.845 58.0518 467.668 58.0518Z" fill="#FFC433"/>
<path d="M692.061 124.861C701.577 124.861 709.29 117.16 709.29 107.661C709.29 98.1616 701.577 90.4609 692.061 90.4609C682.546 90.4609 674.832 98.1616 674.832 107.661C674.832 117.16 682.546 124.861 692.061 124.861Z" fill="#FFF0CC"/>
<path d="M745.395 146.486C749.041 146.486 751.997 143.536 751.997 139.896C751.997 136.255 749.041 133.305 745.395 133.305C741.749 133.305 738.793 136.255 738.793 139.896C738.793 143.536 741.749 146.486 745.395 146.486Z" fill="#FFC433"/>
<path d="M406.128 244.81L405.559 235.281L415.415 242.533L406.128 244.81Z" fill="#FFD299"/>
</g>
</svg>
