<svg width="90" height="18" viewBox="0 0 90 18" fill="none" xmlns="http://www.w3.org/2000/svg">
<path fill-rule="evenodd" clip-rule="evenodd" d="M16.8014 6.67581H12.2141C11.6075 6.67581 10.963 6.1827 10.7735 5.61373L9.33284 1.06198C9.14328 0.493012 8.83999 0.493012 8.68834 1.06198L7.2477 5.61373C7.05814 6.1827 6.41364 6.67581 5.80705 6.67581H1.21974C0.61315 6.67581 0.499415 6.97926 0.992267 7.35857L4.70761 10.2793C5.20047 10.6586 5.42794 11.4172 5.27629 12.0241V12.0241L3.83564 16.5379L3.75982 16.7276C3.57026 17.2966 3.83564 17.4862 4.3285 17.1069V17.1069L8.15758 14.2241C8.65043 13.8448 9.44658 13.8448 9.93943 14.2241L13.7306 17.069C14.2235 17.4483 14.4509 17.2586 14.2993 16.6897L12.7828 12.0241C12.5932 11.4552 12.8586 10.6586 13.3515 10.2793L17.1047 7.32064C17.5218 6.97926 17.408 6.67581 16.8014 6.67581V6.67581Z" fill="#FBAB18"/>
<path fill-rule="evenodd" clip-rule="evenodd" d="M34.8596 6.67581H30.2723C29.6657 6.67581 29.0212 6.1827 28.8317 5.61373L27.391 1.06198C27.2015 0.493012 26.8982 0.493012 26.7465 1.06198L25.3059 5.61373C25.1163 6.1827 24.4718 6.67581 23.8652 6.67581H19.2779C18.6713 6.67581 18.5576 6.97926 19.0504 7.35857L22.7658 10.2793C23.2586 10.6586 23.4861 11.4172 23.3345 12.0241V12.0241L21.8938 16.5379L21.818 16.7276C21.6284 17.2966 21.8938 17.4862 22.3867 17.1069V17.1069L26.2158 14.2241C26.7086 13.8448 27.5048 13.8448 27.9976 14.2241L31.7888 17.069C32.2816 17.4483 32.5091 17.2586 32.3574 16.6897L30.841 12.0241C30.6514 11.4552 30.9168 10.6586 31.4097 10.2793L35.1629 7.32064C35.5799 6.97926 35.4662 6.67581 34.8596 6.67581V6.67581Z" fill="#FBAB18"/>
<path fill-rule="evenodd" clip-rule="evenodd" d="M51.5286 6.67581H46.9412C46.3347 6.67581 45.6902 6.1827 45.5006 5.61373L44.06 1.06198C43.8704 0.493012 43.5671 0.493012 43.4155 1.06198L41.9748 5.61373C41.7853 6.1827 41.1408 6.67581 40.5342 6.67581H35.9468C35.3403 6.67581 35.2265 6.97926 35.7194 7.35857L39.4347 10.2793C39.9276 10.6586 40.155 11.4172 40.0034 12.0241V12.0241L38.5628 16.5379L38.4869 16.7276C38.2974 17.2966 38.5628 17.4862 39.0556 17.1069V17.1069L42.8847 14.2241C43.3775 13.8448 44.1737 13.8448 44.6665 14.2241L48.4577 17.069C48.9506 17.4483 49.178 17.2586 49.0264 16.6897L47.5099 12.0241C47.3204 11.4552 47.5857 10.6586 48.0786 10.2793L51.8319 7.32064C52.2489 6.97926 52.1351 6.67581 51.5286 6.67581V6.67581Z" fill="#FBAB18"/>
<path fill-rule="evenodd" clip-rule="evenodd" d="M69.6326 6.67581H65.4276C64.8715 6.67581 64.2807 6.1827 64.107 5.61373L62.7864 1.06198C62.6126 0.493012 62.3346 0.493012 62.1956 1.06198L60.875 5.61373C60.7012 6.1827 60.1105 6.67581 59.5544 6.67581H55.3494C54.7933 6.67581 54.6891 6.97926 55.1409 7.35857L58.5466 10.2793C58.9984 10.6586 59.2069 11.4172 59.0679 12.0241V12.0241L57.7473 16.5379L57.6778 16.7276C57.504 17.2966 57.7473 17.4862 58.1991 17.1069V17.1069L61.7091 14.2241C62.1608 13.8448 62.8906 13.8448 63.3424 14.2241L66.8177 17.069C67.2694 17.4483 67.478 17.2586 67.339 16.6897L65.9489 12.0241C65.7751 11.4552 66.0184 10.6586 66.4701 10.2793L69.9106 7.32064C70.2929 6.97926 70.1886 6.67581 69.6326 6.67581V6.67581Z" fill="#FBAB18"/>
<path fill-rule="evenodd" clip-rule="evenodd" d="M62.4981 13.9383C62.8027 13.9322 63.1096 14.0269 63.3425 14.2225L66.8177 17.0674C67.2695 17.4467 67.478 17.257 67.339 16.688L65.9489 12.0225C65.7752 11.4535 66.0184 10.657 66.4702 10.2777L69.9107 7.31902C70.293 6.97764 70.1887 6.67419 69.6327 6.67419H65.4276C64.8716 6.67419 64.2808 6.18108 64.107 5.61211L62.7865 1.06036C62.7049 0.793408 62.6005 0.651706 62.4981 0.635254V13.9383Z" fill="#D6D6D6"/>
<path fill-rule="evenodd" clip-rule="evenodd" d="M89.0337 6.67581H84.4464C83.8398 6.67581 83.1953 6.1827 83.0058 5.61373L81.5651 1.06198C81.3756 0.493012 81.0723 0.493012 80.9206 1.06198L79.48 5.61373C79.2904 6.1827 78.6459 6.67581 78.0393 6.67581H73.452C72.8454 6.67581 72.7317 6.97926 73.2246 7.35857L76.9399 10.2793C77.4328 10.6586 77.6602 11.4172 77.5086 12.0241V12.0241L76.0679 16.5379L75.9921 16.7276C75.8025 17.2966 76.0679 17.4862 76.5608 17.1069V17.1069L80.3899 14.2241C80.8827 13.8448 81.6789 13.8448 82.1717 14.2241L85.9629 17.069C86.4557 17.4483 86.6832 17.2586 86.5316 16.6897L85.0151 12.0241C84.8255 11.4552 85.0909 10.6586 85.5838 10.2793L89.337 7.32064C89.7541 6.97926 89.6403 6.67581 89.0337 6.67581V6.67581Z" fill="#D6D6D6"/>
</svg>
