<?xml version="1.0" encoding="utf-8"?>
<!-- Generator: Adobe Illustrator 23.0.3, SVG Export Plug-In . SVG Version: 6.00 Build 0)  -->
<svg version="1.1" id="Layer_1" xmlns="http://www.w3.org/2000/svg" xmlns:xlink="http://www.w3.org/1999/xlink" x="0px" y="0px"
	 viewBox="0 0 23.95 24" style="enable-background:new 0 0 23.95 24;" xml:space="preserve">
<style type="text/css">
	.st0{fill:#6CC04A;}
</style>
<path class="st0" d="M22.8,12c-0.66,0-1.19,0.54-1.27,1.2c-0.59,4.72-4.65,8.4-9.53,8.4c-5.28,0-9.6-4.32-9.6-9.6S6.72,2.4,12,2.4
	c0.69,0,1.32,0.06,1.94,0.19c0.44,0.09,0.9-0.02,1.22-0.34c0.65-0.65,0.38-1.75-0.51-1.94C13.78,0.12,12.89,0,12,0C5.4,0,0,5.4,0,12
	s5.4,12,12,12c6.2,0,11.33-4.76,11.94-10.8C24.01,12.54,23.46,12,22.8,12z M7.92,10.56c-0.46-0.46-1.22-0.46-1.68,0
	c-0.46,0.46-0.46,1.22,0,1.68l4.56,4.56L21.96,5.64c0.46-0.46,0.46-1.22,0-1.68c-0.46-0.46-1.22-0.46-1.68,0l-9.48,9.48L7.92,10.56z
	"/>
</svg>
