<svg width="19" height="17" viewBox="0 0 19 17" fill="none" xmlns="http://www.w3.org/2000/svg">
<path fill-rule="evenodd" clip-rule="evenodd" d="M11.0709 1.11521L11.0721 1.11731L18.7599 14.3805L18.762 14.3842C18.9817 14.7686 19.0675 15.2655 18.812 15.7067C18.5566 16.148 18.083 16.3206 17.6414 16.3206H2.29612C1.85452 16.3206 1.38092 16.148 1.12546 15.7067C0.870047 15.2655 0.955823 14.7686 1.17547 14.3842L1.17692 14.3817L8.83077 1.11731L8.83156 1.11593C9.05225 0.730561 9.43983 0.404785 9.95143 0.404785C10.4627 0.404785 10.8501 0.730152 11.0709 1.11521ZM10.4541 13.3987C10.3155 13.5373 10.1423 13.6066 9.96913 13.6066C9.79593 13.6066 9.62273 13.5373 9.48417 13.3987C9.34562 13.2602 9.27634 13.087 9.27634 12.9138C9.27634 12.7406 9.34562 12.5674 9.48417 12.4288C9.72665 12.1864 10.2116 12.1864 10.4541 12.4288C10.5926 12.5674 10.6619 12.7406 10.6619 12.9138C10.6619 13.087 10.5926 13.2602 10.4541 13.3987ZM9.9689 11.1829C10.3499 11.1829 10.6617 10.8712 10.6617 10.4901V6.33339C10.6617 5.95236 10.3499 5.6406 9.9689 5.6406C9.58786 5.6406 9.27611 5.95236 9.27611 6.33339V10.4901C9.27611 10.8712 9.58786 11.1829 9.9689 11.1829Z" fill="#FBAB18"/>
</svg>
