<svg width="20" height="20" viewBox="0 0 20 20" fill="none" xmlns="http://www.w3.org/2000/svg">
<path fill-rule="evenodd" clip-rule="evenodd" d="M1.25 10C1.25 5.175 5.175 1.25 10 1.25C14.825 1.25 18.75 5.175 18.75 10C18.75 14.825 14.825 18.75 10 18.75C5.175 18.75 1.25 14.825 1.25 10ZM2.5 10C2.5 14.1375 5.8625 17.5 10 17.5C14.1375 17.5 17.5 14.1375 17.5 10C17.5 5.8625 14.1375 2.5 10 2.5C5.8625 2.5 2.5 5.8625 2.5 10ZM8.80623 12.5687L13.1937 6.70623V6.69999C13.4 6.42499 13.7937 6.36874 14.0687 6.57499C14.3437 6.78124 14.4 7.17499 14.1937 7.44999L9.38748 13.875C9.28123 14.0187 9.11873 14.1125 8.94373 14.125H8.88748C8.72498 14.125 8.57498 14.0625 8.45623 13.9562L5.63748 11.3C5.38748 11.0687 5.37498 10.6687 5.61248 10.4187C5.84998 10.1687 6.24373 10.1562 6.49373 10.3937L8.80623 12.5687Z" fill="#227BB1"/>
</svg>
