<svg width="37" height="20" viewBox="0 0 37 20" fill="none" xmlns="http://www.w3.org/2000/svg">
<rect x="1" y="1" width="23" height="16" rx="4.5" fill="#F0F7FC"/>
<rect x="1" y="1" width="23" height="16" rx="4.5" stroke="#D6D6D6"/>
<path fill-rule="evenodd" clip-rule="evenodd" d="M20.3188 13.8806C20.5594 13.6262 20.5594 13.2136 20.3188 12.9592L13.6587 5.91472C13.4181 5.66028 13.0281 5.66028 12.7876 5.91472C12.547 6.16916 12.547 6.58169 12.7876 6.83613L19.4477 13.8806C19.6882 14.135 20.0782 14.135 20.3188 13.8806Z" fill="#005073"/>
<path fill-rule="evenodd" clip-rule="evenodd" d="M9.43427 12.5196C7.94183 12.5196 6.73198 11.2399 6.73198 9.66132C6.73198 8.08276 7.94183 6.80308 9.43427 6.80308C9.84662 6.80308 10.2358 6.90032 10.5839 7.0737C10.8916 7.227 11.2586 7.08737 11.4036 6.76183C11.5485 6.43628 11.4165 6.0481 11.1087 5.8948C10.5999 5.64136 10.0318 5.5 9.43427 5.5C7.26143 5.5 5.5 7.36309 5.5 9.66132C5.5 11.9596 7.26143 13.8226 9.43427 13.8226C10.1906 13.8226 10.8988 13.5963 11.4995 13.2038C11.7889 13.0147 11.8786 12.6132 11.6998 12.307C11.521 12.0009 11.1415 11.9061 10.852 12.0952C10.4403 12.3642 9.95538 12.5196 9.43427 12.5196Z" fill="#00BCEB"/>
<path d="M15.4568 9.95262L13.7859 11.5457V8.33463L15.4568 9.95262Z" fill="#6ABF4B"/>
<path fill-rule="evenodd" clip-rule="evenodd" d="M12.7884 13.8806C13.0289 14.135 13.4189 14.135 13.6595 13.8806L20.3196 6.83613C20.5601 6.58169 20.5601 6.16916 20.3196 5.91472C20.079 5.66028 19.689 5.66028 19.4484 5.91472L12.7884 12.9592C12.5478 13.2136 12.5478 13.6262 12.7884 13.8806Z" fill="#FBAB18"/>
<rect x="19.5" y="9.625" width="16.7203" height="9.76" rx="4.88" fill="#D7EAFC"/>
<path d="M33.4683 11.625H34.2203L32.7003 17.385H31.7563L30.4523 12.505L29.1083 17.385H28.1083L26.5963 11.625H27.4282L28.6523 16.417L29.9723 11.625H30.9883L32.2363 16.401L33.4683 11.625Z" fill="#00509E"/>
<path d="M25.132 11.625H25.956V17.385H25.132V14.817H22.316V17.385H21.5V11.625H22.316V14.129H25.132V11.625Z" fill="#00509E"/>
</svg>
