<svg width="37" height="20" viewBox="0 0 37 20" fill="none" xmlns="http://www.w3.org/2000/svg">
<rect x="1" y="1" width="23" height="16" rx="4.5" fill="#F0F7FC"/>
<rect x="1" y="1" width="23" height="16" rx="4.5" stroke="#D6D6D6"/>
<path fill-rule="evenodd" clip-rule="evenodd" d="M20.3188 13.8806C20.5594 13.6262 20.5594 13.2136 20.3188 12.9592L13.6587 5.91472C13.4181 5.66028 13.0281 5.66028 12.7876 5.91472C12.547 6.16916 12.547 6.58169 12.7876 6.83613L19.4477 13.8806C19.6882 14.135 20.0782 14.135 20.3188 13.8806Z" fill="#005073"/>
<path fill-rule="evenodd" clip-rule="evenodd" d="M9.43427 12.5196C7.94183 12.5196 6.73198 11.2399 6.73198 9.66132C6.73198 8.08276 7.94183 6.80308 9.43427 6.80308C9.84662 6.80308 10.2358 6.90032 10.5839 7.0737C10.8916 7.227 11.2586 7.08737 11.4036 6.76183C11.5485 6.43628 11.4165 6.0481 11.1087 5.8948C10.5999 5.64136 10.0318 5.5 9.43427 5.5C7.26143 5.5 5.5 7.36309 5.5 9.66132C5.5 11.9596 7.26143 13.8226 9.43427 13.8226C10.1906 13.8226 10.8988 13.5963 11.4995 13.2038C11.7889 13.0147 11.8786 12.6132 11.6998 12.307C11.521 12.0009 11.1415 11.9061 10.852 12.0952C10.4403 12.3642 9.95538 12.5196 9.43427 12.5196Z" fill="#00BCEB"/>
<path d="M15.4568 9.95262L13.7859 11.5457V8.33463L15.4568 9.95262Z" fill="#6ABF4B"/>
<path fill-rule="evenodd" clip-rule="evenodd" d="M12.7884 13.8806C13.0289 14.135 13.4189 14.135 13.6595 13.8806L20.3196 6.83613C20.5601 6.58169 20.5601 6.16916 20.3196 5.91472C20.079 5.66028 19.689 5.66028 19.4484 5.91472L12.7884 12.9592C12.5478 13.2136 12.5478 13.6262 12.7884 13.8806Z" fill="#FBAB18"/>
<rect x="19.5" y="9.625" width="16.5324" height="10" rx="5" fill="#D7EAFC"/>
<path d="M33.2804 11.745H34.0324L32.5124 17.505H31.5684L30.2644 12.625L28.9204 17.505H27.9204L26.4084 11.745H27.2404L28.4644 16.537L29.7844 11.745H30.8004L32.0484 16.521L33.2804 11.745Z" fill="#00509E"/>
<path d="M25.268 15.945C25.268 15.753 25.2253 15.601 25.14 15.489C25.044 15.3557 24.868 15.233 24.612 15.121C24.356 15.009 23.9693 14.881 23.452 14.737C22.7587 14.545 22.2813 14.3077 22.02 14.025C21.8067 13.7957 21.7 13.489 21.7 13.105C21.7 12.641 21.9027 12.273 22.308 12.001C22.6813 11.7503 23.1667 11.625 23.764 11.625C24.4307 11.625 24.972 11.7823 25.388 12.097C25.7613 12.3743 25.98 12.737 26.044 13.185H25.204C25.156 12.881 24.996 12.6543 24.724 12.505C24.484 12.3663 24.164 12.297 23.764 12.297C23.316 12.297 22.9853 12.3823 22.772 12.553C22.6013 12.6863 22.516 12.8597 22.516 13.073C22.516 13.2117 22.5373 13.3263 22.58 13.417C22.628 13.5023 22.708 13.5797 22.82 13.649C23.028 13.7877 23.4307 13.9397 24.028 14.105C24.86 14.3397 25.4227 14.6063 25.716 14.905C25.9613 15.1503 26.084 15.4863 26.084 15.913C26.084 16.4197 25.8627 16.8383 25.42 17.169C25.004 17.473 24.476 17.625 23.836 17.625C23.1693 17.625 22.6173 17.4463 22.18 17.089C21.8013 16.7797 21.5747 16.3797 21.5 15.889H22.34C22.3933 16.241 22.5613 16.5103 22.844 16.697C23.1 16.8677 23.4253 16.953 23.82 16.953C24.3107 16.953 24.6867 16.841 24.948 16.617C25.1613 16.4357 25.268 16.2117 25.268 15.945Z" fill="#00509E"/>
</svg>
