<svg width="37" height="25" viewBox="0 0 37 25" fill="none" xmlns="http://www.w3.org/2000/svg">
<rect x="1.39844" y="1" width="27" height="16" rx="4.5" fill="#F0F7FC"/>
<rect x="1.39844" y="1" width="27" height="16" rx="4.5" stroke="#D6D6D6"/>
<path d="M11.7388 5.3H12.7688V12.5H11.7388V9.29H8.21883V12.5H7.19883V5.3H8.21883V8.43H11.7388V5.3ZM22.3591 5.3H23.2991L21.3991 12.5H20.2191L18.5891 6.4L16.9091 12.5H15.6591L13.7691 5.3H14.8091L16.3391 11.29L17.9891 5.3H19.2591L20.8191 11.27L22.3591 5.3Z" fill="#1B1C1D"/>
<rect x="21.3984" y="9" width="15" height="15" rx="7.5" fill="white"/>
<rect x="21.3984" y="9" width="15" height="15" rx="7.5" stroke="#FAFAFA"/>
<path fill-rule="evenodd" clip-rule="evenodd" d="M34.0221 19.3664C34.1905 19.1883 34.1905 18.8995 34.0221 18.7214L29.3601 13.7903C29.1917 13.6122 28.9187 13.6122 28.7503 13.7903C28.5819 13.9684 28.5819 14.2572 28.7503 14.4353L33.4123 19.3664C33.5807 19.5445 33.8538 19.5445 34.0221 19.3664Z" fill="#005073"/>
<path fill-rule="evenodd" clip-rule="evenodd" d="M26.4024 18.414C25.3577 18.414 24.5108 17.5182 24.5108 16.4132C24.5108 15.3082 25.3577 14.4125 26.4024 14.4125C26.6911 14.4125 26.9635 14.4805 27.2071 14.6019C27.4226 14.7092 27.6795 14.6115 27.7809 14.3836C27.8824 14.1557 27.79 13.884 27.5746 13.7767C27.2184 13.5993 26.8207 13.5003 26.4024 13.5003C24.8814 13.5003 23.6484 14.8045 23.6484 16.4132C23.6484 18.022 24.8814 19.3262 26.4024 19.3262C26.9319 19.3262 27.4276 19.1677 27.8481 18.893C28.0507 18.7606 28.1135 18.4795 27.9883 18.2653C27.8632 18.051 27.5975 17.9846 27.3949 18.1169C27.1066 18.3053 26.7672 18.414 26.4024 18.414Z" fill="#00BCEB"/>
<path d="M30.6189 16.6173L29.4492 17.7324V15.4847L30.6189 16.6173Z" fill="#6ABF4B"/>
<path fill-rule="evenodd" clip-rule="evenodd" d="M28.7513 19.3664C28.9197 19.5445 29.1927 19.5445 29.3611 19.3664L34.0232 14.4353C34.1915 14.2572 34.1915 13.9684 34.0232 13.7903C33.8548 13.6122 33.5817 13.6122 33.4134 13.7903L28.7513 18.7214C28.5829 18.8995 28.5829 19.1883 28.7513 19.3664Z" fill="#FBAB18"/>
</svg>
