<svg width="36" height="24" viewBox="0 0 36 24" fill="none" xmlns="http://www.w3.org/2000/svg">
<rect x="1.39844" y="1" width="27" height="16" rx="4.5" fill="#F0F7FC"/>
<rect x="1.39844" y="1" width="27" height="16" rx="4.5" stroke="#D6D6D6"/>
<path d="M11.8262 10.55C11.8262 10.31 11.7729 10.12 11.6662 9.98C11.5462 9.81333 11.3262 9.66 11.0062 9.52C10.6862 9.38 10.2029 9.22 9.55621 9.04C8.68954 8.8 8.09288 8.50333 7.76621 8.15C7.49954 7.86333 7.36621 7.48 7.36621 7C7.36621 6.42 7.61954 5.96 8.12621 5.62C8.59288 5.30667 9.19954 5.15 9.94621 5.15C10.7795 5.15 11.4562 5.34667 11.9762 5.74C12.4429 6.08667 12.7162 6.54 12.7962 7.1H11.7462C11.6862 6.72 11.4862 6.43667 11.1462 6.25C10.8462 6.07667 10.4462 5.99 9.94621 5.99C9.38621 5.99 8.97288 6.09667 8.70621 6.31C8.49288 6.47667 8.38621 6.69333 8.38621 6.96C8.38621 7.13333 8.41288 7.27667 8.46621 7.39C8.52621 7.49667 8.62621 7.59333 8.76621 7.68C9.02621 7.85333 9.52954 8.04333 10.2762 8.25C11.3162 8.54333 12.0195 8.87667 12.3862 9.25C12.6929 9.55667 12.8462 9.97667 12.8462 10.51C12.8462 11.1433 12.5695 11.6667 12.0162 12.08C11.4962 12.46 10.8362 12.65 10.0362 12.65C9.20288 12.65 8.51288 12.4267 7.96621 11.98C7.49288 11.5933 7.20954 11.0933 7.11621 10.48H8.16621C8.23288 10.92 8.44288 11.2567 8.79621 11.49C9.11621 11.7033 9.52288 11.81 10.0162 11.81C10.6295 11.81 11.0995 11.67 11.4262 11.39C11.6929 11.1633 11.8262 10.8833 11.8262 10.55ZM22.0418 5.3H22.9818L21.0818 12.5H19.9018L18.2718 6.4L16.5918 12.5H15.3418L13.4518 5.3H14.4918L16.0218 11.29L17.6718 5.3H18.9418L20.5018 11.27L22.0418 5.3Z" fill="#00509E"/>
<rect x="21.8984" y="9.5" width="14" height="14" rx="7" fill="white"/>
<path fill-rule="evenodd" clip-rule="evenodd" d="M34.0221 19.3664C34.1905 19.1883 34.1905 18.8995 34.0221 18.7214L29.3601 13.7903C29.1917 13.6122 28.9187 13.6122 28.7503 13.7903C28.5819 13.9684 28.5819 14.2572 28.7503 14.4353L33.4123 19.3664C33.5807 19.5445 33.8538 19.5445 34.0221 19.3664Z" fill="#005073"/>
<path fill-rule="evenodd" clip-rule="evenodd" d="M26.4024 18.4135C25.3577 18.4135 24.5108 17.5178 24.5108 16.4128C24.5108 15.3078 25.3577 14.412 26.4024 14.412C26.6911 14.412 26.9635 14.4801 27.2071 14.6014C27.4226 14.7087 27.6795 14.611 27.7809 14.3831C27.8824 14.1552 27.79 13.8835 27.5746 13.7762C27.2184 13.5988 26.8207 13.4998 26.4024 13.4998C24.8814 13.4998 23.6484 14.804 23.6484 16.4128C23.6484 18.0215 24.8814 19.3257 26.4024 19.3257C26.9319 19.3257 27.4276 19.1672 27.8481 18.8925C28.0507 18.7601 28.1135 18.4791 27.9883 18.2648C27.8632 18.0505 27.5975 17.9841 27.3949 18.1164C27.1066 18.3048 26.7672 18.4135 26.4024 18.4135Z" fill="#00BCEB"/>
<path d="M30.6189 16.6168L29.4492 17.7319V15.4842L30.6189 16.6168Z" fill="#6ABF4B"/>
<path fill-rule="evenodd" clip-rule="evenodd" d="M28.7513 19.3664C28.9197 19.5445 29.1927 19.5445 29.3611 19.3664L34.0232 14.4353C34.1915 14.2572 34.1915 13.9684 34.0232 13.7903C33.8548 13.6122 33.5817 13.6122 33.4134 13.7903L28.7513 18.7214C28.5829 18.8995 28.5829 19.1883 28.7513 19.3664Z" fill="#FBAB18"/>
</svg>
