<svg width="491" height="504" viewBox="0 0 491 504" fill="none" xmlns="http://www.w3.org/2000/svg">
<g opacity="0.3">
<path d="M289.822 195.565C303.262 171.584 318.552 109.565 272.188 53.3462" stroke="#00BCEB" stroke-width="3" stroke-linecap="round" stroke-linejoin="round"/>
<path d="M263.491 69.427C263.952 68.4847 268.743 55.6566 269.837 51.1597L291.061 54.3488" stroke="#00BCEB" stroke-width="3" stroke-linecap="round" stroke-linejoin="round"/>
</g>
<path d="M359.895 264.93H378.389C378.389 264.93 377.336 257.005 383.653 251.671C388.488 247.705 394.229 248.594 397.313 249.962C400.396 251.331 402.685 253.211 404.273 256.758C404.273 256.758 405.281 258.999 405.644 260.549" stroke="#00BCEB" stroke-opacity="0.4" stroke-width="3" stroke-linecap="round"/>
<path d="M397.857 267.85C397.857 267.85 399.398 262.515 404.184 260.874C408.971 259.232 413.509 261.418 415.322 263.617C417.134 265.816 417.709 267.583 418.051 269.427C418.393 271.27 418.298 273.69 418.298 273.69C418.298 273.69 424.345 273.444 426.408 276.123C428.071 278.258 428.241 280.813 427.635 282.694C427.03 284.575 425.009 287.317 421.218 287.317H344.321" stroke="#00BCEB" stroke-opacity="0.4" stroke-width="3" stroke-linecap="round"/>
<path d="M334.586 274.663H397.857" stroke="#00BCEB" stroke-opacity="0.4" stroke-width="3" stroke-linecap="round"/>
<path d="M317.066 274.663H324.853" stroke="#00BCEB" stroke-opacity="0.4" stroke-width="3" stroke-linecap="round"/>
<path fill-rule="evenodd" clip-rule="evenodd" d="M277.159 259.575L306.847 230.374L405.645 329.659" fill="white"/>
<path d="M78.587 328.686L211.454 195.333L306.845 289.751" stroke="#00BCEB" stroke-opacity="0.4" stroke-width="3" stroke-linecap="round" stroke-linejoin="round"/>
<path d="M211.456 196.306V300.458L183.228 271.257L125.312 328.686" stroke="#00BCEB" stroke-opacity="0.4" stroke-width="3" stroke-linecap="round" stroke-linejoin="round"/>
<path d="M277.159 259.575L306.847 230.374L405.645 329.659" stroke="#00BCEB" stroke-opacity="0.4" stroke-width="3" stroke-linecap="round" stroke-linejoin="round"/>
<path fill-rule="evenodd" clip-rule="evenodd" d="M123.37 318.682C123.634 317.692 125.039 317.692 125.303 318.682L128.23 329.659H120.443L123.37 318.682Z" fill="#00BCEB" fill-opacity="0.4"/>
<path fill-rule="evenodd" clip-rule="evenodd" d="M68.18 309.559C67.9062 308.6 66.552 308.589 66.2618 309.542L60.4351 328.687H65.8553L73.7204 328.954L68.18 309.559Z" fill="#00BCEB" fill-opacity="0.4"/>
<path fill-rule="evenodd" clip-rule="evenodd" d="M265.467 236.313C265.77 235.383 267.09 235.396 267.375 236.331L273.264 255.682L268.754 252.797L261.926 247.188L265.467 236.313Z" fill="#00BCEB" fill-opacity="0.4"/>
<path fill-rule="evenodd" clip-rule="evenodd" d="M400.795 309.441C401.082 308.496 402.42 308.496 402.708 309.441L408.565 328.686H403.145L397.227 321.165L400.795 309.441Z" fill="#00BCEB" fill-opacity="0.4"/>
<path fill-rule="evenodd" clip-rule="evenodd" d="M74.7015 318.682C74.9655 317.692 76.3701 317.692 76.634 318.682L79.5613 329.659H71.7742L74.7015 318.682Z" fill="#00BCEB" fill-opacity="0.4"/>
<path fill-rule="evenodd" clip-rule="evenodd" d="M408.573 318.682C408.837 317.692 410.241 317.692 410.505 318.682L413.432 329.659H405.645L408.573 318.682Z" fill="#00BCEB" fill-opacity="0.4"/>
<path d="M188.442 366.582C181.391 368.048 177.014 361.012 177.014 361.012H177.006C177.006 361.012 173.668 366.799 166.811 366.799C160.242 366.799 156.636 361.012 156.636 361.012H156.625C156.625 361.012 153.292 366.799 146.436 366.799C139.864 366.799 136.261 361.012 136.261 361.012H136.25C136.25 361.012 130.609 368.164 123.71 366.697" stroke="#00BCEB" stroke-opacity="0.4" stroke-width="3" stroke-linecap="round" stroke-linejoin="round"/>
<path d="M96.9433 351.426C89.8926 352.892 85.5158 345.855 85.5158 345.855H85.5074C85.5074 345.855 82.1692 351.642 75.3127 351.642C68.7432 351.642 65.1376 345.855 65.1376 345.855H65.1264C65.1264 345.855 61.7938 351.642 54.9373 351.642C48.3651 351.642 44.7623 345.855 44.7623 345.855H44.751C44.751 345.855 39.1104 353.008 32.2117 351.541" stroke="#00BCEB" stroke-opacity="0.4" stroke-width="3" stroke-linecap="round" stroke-linejoin="round"/>
<path d="M158.302 351.425C151.251 352.891 146.874 345.854 146.874 345.854H146.866C146.866 345.854 143.528 351.641 136.671 351.641C130.102 351.641 126.496 345.854 126.496 345.854H126.485C126.485 345.854 123.152 351.641 116.296 351.641C109.723 351.641 106.121 345.854 106.121 345.854H106.109C106.109 345.854 100.469 353.006 93.5701 351.54" stroke="#00BCEB" stroke-opacity="0.4" stroke-width="3" stroke-linecap="round" stroke-linejoin="round"/>
<path d="M13.371 330.147H236.276C236.276 330.147 208.18 335.961 207.074 358.862C207.074 380.944 229.399 388.55 236.276 388.55H327.774C336.939 388.55 346.268 392.551 346.268 402.664C346.268 412.778 337.964 417.752 329.721 417.752H302.466C298.088 417.752 291.759 420.893 291.759 427.972C291.759 435.051 298.068 438.193 301.492 438.193H400.602" stroke="#8CD3F8" stroke-width="3" stroke-linecap="round" stroke-linejoin="round"/>
<path d="M1.69043 330.146H7.53073" stroke="#8CD3F8" stroke-width="3" stroke-linecap="round"/>
<path d="M329.723 330.146H465.997" stroke="#8CD3F8" stroke-width="3" stroke-linecap="round"/>
<path d="M471.834 330.146H489.355" stroke="#8CD3F8" stroke-width="3" stroke-linecap="round"/>
<path fill-rule="evenodd" clip-rule="evenodd" d="M302.498 310.703C303.073 308.811 305.751 308.811 306.326 310.703L320.175 356.28C320.566 357.564 319.604 358.861 318.262 358.861H290.563C289.22 358.861 288.259 357.564 288.649 356.28L302.498 310.703Z" fill="#00BCEB" fill-opacity="0.4"/>
<path fill-rule="evenodd" clip-rule="evenodd" d="M304.899 307.758L320.96 359.347H287.865L304.899 307.758Z" stroke="#8CD3F8" stroke-width="3" stroke-linecap="round" stroke-linejoin="round"/>
<path fill-rule="evenodd" clip-rule="evenodd" d="M304.899 312.454C304.899 312.454 304.899 366.692 304.899 367.937C304.899 366.692 304.899 312.454 304.899 312.454Z" stroke="#8CD3F8" stroke-width="3" stroke-linecap="round" stroke-linejoin="round"/>
<path fill-rule="evenodd" clip-rule="evenodd" d="M313.173 334.842C313.173 334.842 305.386 344.276 305.386 344.576C305.386 344.276 313.173 334.842 313.173 334.842Z" stroke="#8CD3F8" stroke-width="3" stroke-linecap="round" stroke-linejoin="round"/>
<path fill-rule="evenodd" clip-rule="evenodd" d="M272.923 285.857L297.31 356.206C297.761 357.505 296.796 358.861 295.421 358.861H250.425C249.05 358.861 248.085 357.505 248.535 356.206L272.923 285.857Z" fill="#00BCEB" fill-opacity="0.4"/>
<path fill-rule="evenodd" clip-rule="evenodd" d="M272.778 282.937L298.23 359.347H247.614L272.778 282.937Z" stroke="#8CD3F8" stroke-width="3" stroke-linecap="round" stroke-linejoin="round"/>
<path fill-rule="evenodd" clip-rule="evenodd" d="M272.778 287.803C272.778 287.803 272.778 365.427 272.778 367.621C272.778 365.427 272.778 287.803 272.778 287.803Z" stroke="#8CD3F8" stroke-width="3" stroke-linecap="round" stroke-linejoin="round"/>
<path fill-rule="evenodd" clip-rule="evenodd" d="M262.215 315.059C262.215 315.059 272.923 325.395 272.923 325.767C272.923 325.395 262.215 315.059 262.215 315.059Z" stroke="#8CD3F8" stroke-width="3" stroke-linecap="round" stroke-linejoin="round"/>
<path fill-rule="evenodd" clip-rule="evenodd" d="M273.896 343.286C273.896 343.286 287.523 327.34 287.523 327.712C287.523 327.34 273.896 343.286 273.896 343.286Z" stroke="#8CD3F8" stroke-width="3" stroke-linecap="round" stroke-linejoin="round"/>
<path fill-rule="evenodd" clip-rule="evenodd" d="M162.207 237.9L165.833 239.467L168.229 246.101L154.557 256.537H141.985L162.207 237.9Z" fill="white"/>
<path d="M107.791 233.783H126.285C126.285 233.783 125.232 225.859 131.549 220.524C136.384 216.559 142.125 217.448 145.208 218.816C148.291 220.184 150.581 222.064 152.168 225.612C152.168 225.612 153.177 227.852 153.54 229.403" stroke="#00BCEB" stroke-opacity="0.4" stroke-width="3" stroke-linecap="round"/>
<path d="M145.752 236.703C145.752 236.703 147.294 231.368 152.08 229.727C156.866 228.086 161.405 230.272 163.217 232.471C165.03 234.67 165.605 236.437 165.947 238.28C166.289 240.124 166.194 242.544 166.194 242.544C166.194 242.544 172.241 242.297 174.303 244.977C175.966 247.112 176.137 249.666 175.531 251.547C174.925 253.428 172.905 256.171 169.114 256.171H92.2164" stroke="#00BCEB" stroke-opacity="0.4" stroke-width="3" stroke-linecap="round"/>
<path d="M82.4819 243.516H145.752" stroke="#00BCEB" stroke-opacity="0.4" stroke-width="3" stroke-linecap="round"/>
<path d="M64.9616 243.516H72.7487" stroke="#00BCEB" stroke-opacity="0.4" stroke-width="3" stroke-linecap="round"/>
<path d="M61.0681 445.006H153.534C153.534 445.006 162.3 445.749 162.3 452.663C162.3 459.577 153.534 460.58 153.534 460.58H144.779C144.779 460.58 138.897 461.774 138.897 466.569C138.897 471.363 144.779 472.26 144.779 472.26H282.026" stroke="#8CD3F8" stroke-width="3" stroke-linecap="round" stroke-linejoin="round"/>
<path d="M289.327 472.26H293.707" stroke="#8CD3F8" stroke-width="3" stroke-linecap="round"/>
<path fill-rule="evenodd" clip-rule="evenodd" d="M113.145 379.302L136.02 455.713H89.2972L113.145 379.302Z" fill="#00BCEB" fill-opacity="0.4" stroke="#8CD3F8" stroke-width="3" stroke-linecap="round" stroke-linejoin="round"/>
<path fill-rule="evenodd" clip-rule="evenodd" d="M113.144 379.789C113.144 379.789 113.144 463.616 113.144 465.566C113.144 463.616 113.144 379.789 113.144 379.789Z" stroke="#8CD3F8" stroke-width="3" stroke-linecap="round" stroke-linejoin="round"/>
<path fill-rule="evenodd" clip-rule="evenodd" d="M98.0561 431.463C98.0561 431.463 112.657 444.166 112.657 444.624C112.657 444.166 98.0561 431.463 98.0561 431.463Z" stroke="#8CD3F8" stroke-width="3" stroke-linecap="round" stroke-linejoin="round"/>
<path fill-rule="evenodd" clip-rule="evenodd" d="M113.63 433.406C113.63 433.406 125.311 419.787 125.311 420.245C125.311 419.787 113.63 433.406 113.63 433.406Z" stroke="#8CD3F8" stroke-width="3" stroke-linecap="round" stroke-linejoin="round"/>
<path fill-rule="evenodd" clip-rule="evenodd" d="M195.882 373.466L163.76 484.913H228.003L195.882 373.466Z" fill="#00BCEB" fill-opacity="0.4" stroke="#8CD3F8" stroke-width="3" stroke-linecap="round" stroke-linejoin="round"/>
<path fill-rule="evenodd" clip-rule="evenodd" d="M195.882 374.922C195.882 374.922 195.882 499.096 195.882 502.133C195.882 499.096 195.882 374.922 195.882 374.922Z" stroke="#8CD3F8" stroke-width="3" stroke-linecap="round" stroke-linejoin="round"/>
<path fill-rule="evenodd" clip-rule="evenodd" d="M216.323 449.025C216.323 449.025 195.882 470.489 195.882 470.96C195.882 470.489 216.323 449.025 216.323 449.025Z" stroke="#8CD3F8" stroke-width="3" stroke-linecap="round" stroke-linejoin="round"/>
<path fill-rule="evenodd" clip-rule="evenodd" d="M207.563 416.854C207.563 416.854 195.882 432.468 195.882 432.94C195.882 432.468 207.563 416.854 207.563 416.854Z" stroke="#8CD3F8" stroke-width="3" stroke-linecap="round" stroke-linejoin="round"/>
<path fill-rule="evenodd" clip-rule="evenodd" d="M195.881 453.411C195.881 453.411 179.82 431.005 179.82 431.476C179.82 431.005 195.881 453.411 195.881 453.411Z" stroke="#8CD3F8" stroke-width="3" stroke-linecap="round" stroke-linejoin="round"/>
</svg>
