<svg width="81" height="83" viewBox="0 0 81 83" fill="none" xmlns="http://www.w3.org/2000/svg">
<path d="M21.9761 12.5291V69.681C21.9761 72.4424 24.2147 74.681 26.9761 74.681H52.8742H71.7687C74.5301 74.681 76.7687 72.4424 76.7687 69.681V28.0728C76.7687 26.786 76.2726 25.5488 75.3837 24.6185L60.5308 9.07482C59.5875 8.08757 58.2814 7.52911 56.9159 7.52911H26.9761C24.2147 7.52911 21.9761 9.76769 21.9761 12.5291Z" fill="#EBEDED"/>
<path d="M16.1894 7V64.1519C16.1894 66.9133 18.428 69.1519 21.1894 69.1519H47.0875H65.982C68.7434 69.1519 70.982 66.9133 70.982 64.1519V22.5437C70.982 21.2569 70.4859 20.0197 69.597 19.0894L54.7441 3.54571C53.8008 2.55847 52.4947 2 51.1292 2H21.1894C18.428 2 16.1894 4.23858 16.1894 7Z" stroke="#005073" stroke-width="3"/>
<path d="M52.9781 15.8363V2.30317C52.9781 2.21252 53.0891 2.16864 53.1511 2.23478L70.4322 20.6679C70.4921 20.7318 70.4468 20.8363 70.3592 20.8363H57.9781C55.2167 20.8363 52.9781 18.5978 52.9781 15.8363Z" fill="white" stroke="#005073" stroke-width="3"/>
<path d="M33.2564 14.3067H25.6758" stroke="#005073" stroke-width="3" stroke-linecap="round"/>
<path d="M39.8099 21.3969H25.6749" stroke="#005073" stroke-width="3" stroke-linecap="round"/>
<path d="M61.9749 28.7871L25.9309 28.8098" stroke="#005073" stroke-width="3" stroke-linecap="round"/>
<path d="M61.7192 36.6143L25.6751 36.637" stroke="#005073" stroke-width="3" stroke-linecap="round"/>
<path d="M61.7192 44.7756L25.6751 44.7983" stroke="#005073" stroke-width="3" stroke-linecap="round"/>
<path d="M61.7192 52.8686L25.6751 52.8913" stroke="#005073" stroke-width="3" stroke-linecap="round"/>
<path d="M62.28 60.0924L25.6743 60.1199" stroke="#005073" stroke-width="3" stroke-linecap="round"/>
</svg>
