<svg width="81" height="80" viewBox="0 0 81 80" fill="none" xmlns="http://www.w3.org/2000/svg">
<path d="M35.6859 10.7284H50.7626C52.7619 10.7284 54.6793 11.5227 56.093 12.9364C57.5067 14.3501 58.3009 16.2675 58.3009 18.2668V23.3782H73.3777C75.377 23.3782 77.2944 24.1725 78.7081 25.5862C80.1218 26.9999 80.916 28.9173 80.916 30.9166V72.3776C80.916 74.3769 80.1218 76.2943 78.7081 77.708C77.2944 79.1217 75.377 79.9159 73.3777 79.9159H13.0708C8.887 79.9159 5.53243 76.5237 5.53243 72.3776V30.9166C5.53243 26.7328 8.887 23.3782 13.0708 23.3782H28.1475V18.2668C28.1475 14.083 31.5021 10.7284 35.6859 10.7284Z" fill="#EBEDED"/>
<mask id="path-2-inside-1" fill="white">
<path d="M31.2328 7.82879H46.3912C48.4014 7.82879 50.3292 8.62731 51.7505 10.0487C53.1719 11.4701 53.9704 13.3979 53.9704 15.408V18.9775H69.1289C71.139 18.9775 73.0668 19.7761 74.4882 21.1974C75.9095 22.6188 76.7081 24.5466 76.7081 26.5567V68.2424C76.7081 70.2525 75.9095 72.1803 74.4882 73.6017C73.0668 75.0231 71.139 75.8216 69.1289 75.8216H8.49522C4.28876 75.8216 0.916016 72.4109 0.916016 68.2424V26.5567C0.916016 22.3503 4.28876 18.9775 8.49522 18.9775H23.6536V15.408C23.6536 11.2015 27.0264 7.82879 31.2328 7.82879Z"/>
</mask>
<path d="M25.7008 21.9817H52.2435V18.9817H25.7008V21.9817ZM46.3912 7.82879V4.82879V7.82879ZM53.9704 18.9775H50.9704V21.9775H53.9704V18.9775ZM69.1289 18.9775V15.9775V18.9775ZM23.6536 18.9775V21.9775H26.6536V18.9775H23.6536ZM31.2328 10.8288H46.3912V4.82879H31.2328V10.8288ZM46.3912 10.8288C47.6057 10.8288 48.7705 11.3112 49.6292 12.17L53.8719 7.92737C51.8879 5.94338 49.197 4.82879 46.3912 4.82879V10.8288ZM49.6292 12.17C50.488 13.0288 50.9704 14.1935 50.9704 15.408H56.9704C56.9704 12.6022 55.8559 9.91136 53.8719 7.92737L49.6292 12.17ZM50.9704 15.408V18.9775H56.9704V15.408H50.9704ZM53.9704 21.9775H69.1289V15.9775H53.9704V21.9775ZM69.1289 21.9775C70.3433 21.9775 71.5081 22.46 72.3668 23.3187L76.6095 19.0761C74.6255 17.0921 71.9346 15.9775 69.1289 15.9775V21.9775ZM72.3668 23.3187C73.2256 24.1775 73.7081 25.3423 73.7081 26.5567H79.7081C79.7081 23.751 78.5935 21.0601 76.6095 19.0761L72.3668 23.3187ZM73.7081 26.5567V68.2424H79.7081V26.5567H73.7081ZM73.7081 68.2424C73.7081 69.4569 73.2256 70.6216 72.3668 71.4804L76.6095 75.723C78.5935 73.739 79.7081 71.0482 79.7081 68.2424H73.7081ZM72.3668 71.4804C71.5081 72.3391 70.3433 72.8216 69.1289 72.8216V78.8216C71.9346 78.8216 74.6255 77.707 76.6095 75.723L72.3668 71.4804ZM69.1289 72.8216H8.49522V78.8216H69.1289V72.8216ZM8.49522 72.8216C5.95537 72.8216 3.91602 70.7639 3.91602 68.2424H-2.08398C-2.08398 74.058 2.62215 78.8216 8.49522 78.8216V72.8216ZM3.91602 68.2424V26.5567H-2.08398V68.2424H3.91602ZM3.91602 26.5567C3.91602 24.0071 5.94562 21.9775 8.49522 21.9775V15.9775C2.63191 15.9775 -2.08398 20.6934 -2.08398 26.5567H3.91602ZM8.49522 21.9775H23.6536V15.9775H8.49522V21.9775ZM26.6536 18.9775V15.408H20.6536V18.9775H26.6536ZM26.6536 15.408C26.6536 12.8584 28.6832 10.8288 31.2328 10.8288V4.82879C25.3695 4.82879 20.6536 9.54469 20.6536 15.408H26.6536Z" fill="#005073" mask="url(#path-2-inside-1)"/>
<path d="M74.3172 37.2783C74.3172 37.2783 59.7295 43.3696 38.6822 43.3696C17.6349 43.3696 3.30781 37.2783 3.30781 37.2783" stroke="#005073" stroke-width="3" stroke-linecap="round"/>
<path d="M40.3051 46.4132L37.3173 46.3988" stroke="#005073" stroke-width="10" stroke-linecap="round"/>
</svg>
