<svg width="105" height="90" viewBox="0 0 105 90" fill="none" xmlns="http://www.w3.org/2000/svg">
<path d="M64.8595 33.1586L52.613 75.6693C52.2258 77.0136 53.0016 78.4174 54.346 78.8047L73.712 84.3836L88.1366 88.5391C89.4809 88.9264 90.8847 88.1505 91.272 86.8062L100.17 55.9174C100.351 55.291 100.283 54.6191 99.9806 54.0415L92.2232 39.2203C91.9024 38.6074 91.3449 38.1523 90.6801 37.9608L67.9949 31.4257C66.6506 31.0384 65.2468 31.8142 64.8595 33.1586Z" fill="#EBEDED"/>
<path d="M7.04189 32.028L20.4 70.9761C20.8538 72.2995 22.2946 73.0043 23.6179 72.5505L41.3477 66.4697L54.5157 61.9534C55.839 61.4996 56.5439 60.0588 56.09 58.7355L46.3812 30.4275C46.1697 29.8109 45.7286 29.2995 45.1497 28.9998L31.3331 21.8467C30.7188 21.5286 30.0011 21.4757 29.3467 21.7001L8.61622 28.81C7.29287 29.2639 6.58801 30.7046 7.04189 32.028Z" fill="#EBEDED"/>
<path fill-rule="evenodd" clip-rule="evenodd" d="M26.9278 18.8633C26.1292 18.4499 25.1961 18.381 24.3454 18.6728L3.61499 25.7827C1.89463 26.3728 0.978316 28.2457 1.56835 29.9661L14.9264 68.9142C15.5165 70.6346 17.3894 71.5509 19.1098 70.9608L50.0075 60.3638C51.7279 59.7738 52.6442 57.9008 52.0542 56.1805L42.3454 27.8725C42.0704 27.0709 41.497 26.4061 40.7444 26.0165L26.9278 18.8633ZM24.8385 20.1105C25.2966 19.9534 25.799 19.9904 26.229 20.2131L40.0456 27.3662C40.4509 27.576 40.7596 27.934 40.9077 28.3656L50.6165 56.6736C50.9342 57.5999 50.4408 58.6084 49.5144 58.9261L18.6167 69.5232C17.6903 69.8409 16.6818 69.3475 16.3641 68.4211L3.00604 29.473C2.68833 28.5466 3.18172 27.5381 4.10807 27.2204L24.8385 20.1105Z" fill="#005073"/>
<path fill-rule="evenodd" clip-rule="evenodd" d="M92.2655 33.8522C91.8485 33.0554 91.1237 32.4638 90.2595 32.2148L67.5743 25.6796C65.8266 25.1762 64.0017 26.1848 63.4982 27.9325L51.2517 70.4431C50.7483 72.1908 51.7569 74.0157 53.5045 74.5192L87.2952 84.2536C89.0428 84.757 90.8677 83.7484 91.3712 82.0008L100.27 51.112C100.504 50.2977 100.416 49.4242 100.023 48.6734L92.2655 33.8522ZM89.8387 33.6753C90.3041 33.8094 90.6943 34.1279 90.9189 34.557L98.6763 49.3782C98.8879 49.7825 98.9355 50.2528 98.8091 50.6913L89.9107 81.58C89.6396 82.5211 88.6569 83.0642 87.7159 82.7931L53.9253 73.0587C52.9842 72.7876 52.4411 71.8049 52.7122 70.8639L64.9587 28.3532C65.2298 27.4121 66.2125 26.869 67.1535 27.1401L89.8387 33.6753Z" fill="#005073"/>
<path d="M87.7591 44.0421L90.8408 33.3449C90.8535 33.3008 90.9137 33.295 90.9346 33.3359L99.4308 49.9519C99.4509 49.9914 99.4142 50.0359 99.3716 50.0237L89.4921 47.1775C88.1477 46.7903 87.3719 45.3865 87.7591 44.0421Z" fill="white"/>
<path fill-rule="evenodd" clip-rule="evenodd" d="M91.6121 32.9895C91.2775 32.3351 90.3148 32.428 90.1114 33.1341L87.0297 43.8313C86.5263 45.579 87.5349 47.4039 89.2825 47.9073L99.1621 50.7534C99.844 50.9499 100.431 50.2373 100.108 49.6055L99.4316 49.9515L100.108 49.6055L91.6121 32.9895ZM91.0754 35.2784L98.0096 48.8397L89.7033 46.4468C88.7622 46.1757 88.2191 45.1931 88.4902 44.2521L91.0754 35.2784ZM90.2591 33.6819L90.2588 33.6814L90.2588 33.6814C90.2589 33.6816 90.259 33.6818 90.2591 33.6819Z" fill="#005073"/>
<path fill-rule="evenodd" clip-rule="evenodd" d="M17.6857 54.4923C17.8252 54.8882 18.4276 55.037 19.0312 54.8246L41.1113 47.0579C41.7149 46.8455 42.0912 46.3525 41.9517 45.9567C41.8122 45.5608 41.2098 45.412 40.6062 45.6244L18.5261 53.3911C17.9225 53.6034 17.5462 54.0965 17.6857 54.4923Z" fill="#005073"/>
<path fill-rule="evenodd" clip-rule="evenodd" d="M19.0822 59.7506C19.2217 60.1465 19.8241 60.2953 20.4277 60.0829L42.5078 52.3162C43.1114 52.1038 43.4877 51.6108 43.3482 51.215C43.2087 50.8191 42.6063 50.6703 42.0027 50.8827L19.9226 58.6494C19.319 58.8617 18.9427 59.3548 19.0822 59.7506Z" fill="#005073"/>
<path fill-rule="evenodd" clip-rule="evenodd" d="M34.1234 33.2192C32.1043 28.1251 26.7885 25.2544 21.6277 26.3424L25.0693 36.337L34.1234 33.2192Z" fill="#005073"/>
<path fill-rule="evenodd" clip-rule="evenodd" d="M33.3328 35.3688C34.8184 40.6824 32.0188 46.2618 26.8577 48.039C21.4966 49.8851 15.6175 46.9296 13.7264 41.4377C11.8353 35.9459 14.6483 29.9973 20.0094 28.1512C20.0889 28.1238 20.1685 28.0975 20.2483 28.0722L23.8815 38.6233L33.3328 35.3688Z" fill="#005073"/>
<path d="M79.958 49.1147L74.6971 67.5638" stroke="#005073" stroke-dasharray="1 1"/>
<rect x="69.4802" y="43.8762" width="23.1433" height="5.6177" transform="rotate(15.9159 69.4802 43.8762)" fill="white" stroke="#005073"/>
<path d="M63.1477 65.178L66.0538 54.9871L88.852 61.4882L85.9961 71.5034" stroke="#005073" stroke-linecap="round" stroke-linejoin="bevel"/>
<rect x="72.5196" y="62.7904" width="6.99659" height="6.95599" transform="rotate(15.9159 72.5196 62.7904)" fill="#005073"/>
<ellipse cx="63.3579" cy="63.5159" rx="3.7674" ry="3.74553" transform="rotate(15.9159 63.3579 63.5159)" fill="#005073"/>
<path d="M85.1039 73.913L90.6747 68.8246L83.0548 66.6518L85.1039 73.913Z" fill="#005073"/>
<path d="M31.6533 4.97502V49.9433C31.6533 51.3654 32.7927 52.5182 34.1982 52.5182H54.4453H69.5262C70.9317 52.5182 72.0711 51.3654 72.0711 49.9433V17.2689C72.0711 16.6062 71.8186 15.9691 71.3661 15.49L59.7555 3.19615C59.2753 2.68774 58.6105 2.40014 57.9155 2.40014H34.1982C32.7927 2.40014 31.6533 3.55296 31.6533 4.97502Z" fill="#005073" stroke="white" stroke-width="2"/>
<path fill-rule="evenodd" clip-rule="evenodd" d="M36.9823 10.5085C36.9823 10.9282 37.3225 11.2684 37.7422 11.2684H43.3082C43.7279 11.2684 44.0682 10.9282 44.0682 10.5085C44.0682 10.0887 43.7279 9.74851 43.3082 9.74851H37.7422C37.3225 9.74851 36.9823 10.0887 36.9823 10.5085Z" fill="white"/>
<path fill-rule="evenodd" clip-rule="evenodd" d="M36.9822 15.715C36.9822 16.1347 37.3224 16.4749 37.7421 16.4749H48.1207C48.5404 16.4749 48.8806 16.1347 48.8806 15.715C48.8806 15.2953 48.5404 14.955 48.1207 14.955H37.7421C37.3224 14.955 36.9822 15.2953 36.9822 15.715Z" fill="white"/>
<path fill-rule="evenodd" clip-rule="evenodd" d="M37.1794 21.1587C37.1796 21.5784 37.5201 21.9185 37.9398 21.9182L65.7237 21.9015C66.1434 21.9013 66.4835 21.5608 66.4832 21.1411C66.4829 20.7214 66.1425 20.3814 65.7228 20.3816L37.9389 20.3983C37.5192 20.3986 37.1791 20.739 37.1794 21.1587Z" fill="white"/>
<path fill-rule="evenodd" clip-rule="evenodd" d="M36.9815 32.6529C36.9817 33.0726 37.3222 33.4127 37.7419 33.4124L58.0058 33.4002C58.4255 33.4 58.7656 33.0595 58.7653 32.6398C58.7651 32.2201 58.4246 31.8801 58.0049 31.8803L37.741 31.8925C37.3213 31.8928 36.9812 32.2332 36.9815 32.6529Z" fill="white"/>
<path fill-rule="evenodd" clip-rule="evenodd" d="M36.9823 26.9056C36.9826 27.3253 37.323 27.6654 37.7427 27.6651L65.5267 27.6484C65.9464 27.6482 66.2864 27.3077 66.2862 26.888C66.2859 26.4683 65.9455 26.1283 65.5258 26.1285L37.7418 26.1452C37.3221 26.1455 36.9821 26.4859 36.9823 26.9056Z" fill="white"/>
<path fill-rule="evenodd" clip-rule="evenodd" d="M37.1474 38.4001C37.1478 38.8198 37.6668 39.1599 38.3067 39.1596L62.9896 39.1499C63.6295 39.1496 64.1479 38.8092 64.1475 38.3895C64.1472 37.9698 63.6281 37.6297 62.9882 37.63L38.3053 37.6397C37.6654 37.64 37.147 37.9804 37.1474 38.4001Z" fill="white"/>
<path fill-rule="evenodd" clip-rule="evenodd" d="M37.149 44.1482C37.1493 44.5679 37.6684 44.9079 38.3083 44.9077L61.7145 44.8984C62.3544 44.8982 62.8728 44.5577 62.8724 44.138C62.872 43.7183 62.353 43.3783 61.7131 43.3785L38.3069 43.3878C37.667 43.388 37.1486 43.7285 37.149 44.1482Z" fill="white"/>
</svg>
