<svg width="30" height="30" viewBox="0 0 30 30" fill="none" xmlns="http://www.w3.org/2000/svg">
<path d="M13.6893 1.13713C14.4413 0.484703 15.5587 0.484704 16.3107 1.13713L17.5261 2.19165C17.9901 2.59421 18.6134 2.76122 19.2165 2.64458L20.7964 2.33907C21.7738 2.15005 22.7415 2.70872 23.0665 3.64973L23.5919 5.1707C23.7924 5.75133 24.2487 6.20759 24.8293 6.40815L26.3503 6.9335C27.2913 7.25853 27.85 8.22618 27.6609 9.20363L27.3554 10.7835C27.2388 11.3866 27.4058 12.0099 27.8084 12.4739L28.8629 13.6893C29.5153 14.4413 29.5153 15.5587 28.8629 16.3107L27.8084 17.5261C27.4058 17.9901 27.2388 18.6134 27.3554 19.2165L27.6609 20.7964C27.85 21.7738 27.2913 22.7415 26.3503 23.0665L24.8293 23.5919C24.2487 23.7924 23.7924 24.2487 23.5919 24.8293L23.0665 26.3503C22.7415 27.2913 21.7738 27.85 20.7964 27.6609L19.2165 27.3554C18.6134 27.2388 17.9901 27.4058 17.5261 27.8084L16.3107 28.8629C15.5587 29.5153 14.4413 29.5153 13.6893 28.8629L12.4739 27.8084C12.0099 27.4058 11.3866 27.2388 10.7835 27.3554L9.20363 27.6609C8.22618 27.85 7.25853 27.2913 6.9335 26.3503L6.40815 24.8293C6.20759 24.2487 5.75133 23.7924 5.1707 23.5919L3.64973 23.0665C2.70872 22.7415 2.15005 21.7738 2.33907 20.7964L2.64458 19.2165C2.76122 18.6134 2.59421 17.9901 2.19165 17.5261L1.13713 16.3107C0.484703 15.5587 0.484704 14.4413 1.13713 13.6893L2.19165 12.4739C2.59421 12.0099 2.76122 11.3866 2.64458 10.7835L2.33907 9.20363C2.15005 8.22618 2.70872 7.25853 3.64973 6.9335L5.1707 6.40815C5.75133 6.20759 6.20759 5.75133 6.40815 5.1707L6.9335 3.64973C7.25853 2.70872 8.22618 2.15005 9.20363 2.33907L10.7835 2.64458C11.3866 2.76122 12.0099 2.59421 12.4739 2.19165L13.6893 1.13713Z" fill="#516A93"/>
<path d="M14.5245 7.08852C14.6741 6.62787 15.3259 6.62787 15.4755 7.08853L16.9926 11.7575C17.0595 11.9635 17.2515 12.103 17.4681 12.103H22.3773C22.8617 12.103 23.0631 12.7228 22.6712 13.0075L18.6996 15.893C18.5243 16.0204 18.451 16.246 18.5179 16.4521L20.035 21.121C20.1846 21.5817 19.6574 21.9647 19.2655 21.68L15.2939 18.7945C15.1186 18.6671 14.8814 18.6671 14.7061 18.7945L10.7345 21.68C10.3426 21.9647 9.81537 21.5817 9.96504 21.121L11.4821 16.4521C11.549 16.246 11.4757 16.0204 11.3004 15.893L7.32879 13.0075C6.93694 12.7228 7.13833 12.103 7.62269 12.103H12.5319C12.7485 12.103 12.9405 11.9635 13.0074 11.7575L14.5245 7.08852Z" fill="white"/>
</svg>
