<svg width="25" height="26" viewBox="0 0 25 26" fill="none" xmlns="http://www.w3.org/2000/svg">
<path d="M11.3094 25.0013C11.1294 25.0013 10.9495 24.9323 10.8129 24.7958L0.20551 14.1884C0.0740347 14.0569 0 13.8782 0 13.6919C0 13.5055 0.0740347 13.3268 0.20551 13.1953L13.1935 0.206069C13.3722 0.0273647 13.6326 -0.0415641 13.8764 0.0248118L22.1963 2.31223C22.435 2.37733 22.6214 2.56496 22.6878 2.80366L24.9752 11.1236C25.0416 11.3674 24.9726 11.6278 24.7939 11.8065L11.8047 24.7958C11.6681 24.9323 11.4881 25.0013 11.3081 25.0013H11.3094ZM1.69386 13.6919L11.3094 23.3074L23.5136 11.1032L21.4407 3.56188L13.8994 1.48891L1.69386 13.6919Z" fill="#005073"/>
<path d="M18.6877 7.01601C18.5077 7.01601 18.3278 6.94708 18.1912 6.8105C17.9167 6.53606 17.9167 6.09185 18.1912 5.81742L18.5269 5.48171C18.8013 5.20727 19.2455 5.20727 19.52 5.48171C19.7944 5.75615 19.7944 6.20035 19.52 6.47479L19.1843 6.8105C19.0477 6.94708 18.8677 7.01601 18.6877 7.01601Z" fill="#005073"/>
<path d="M17.0769 13.1404H8.27822C7.89018 13.1404 7.57617 12.8264 7.57617 12.4384C7.57617 12.0503 7.89018 11.7363 8.27822 11.7363H17.0769C17.4649 11.7363 17.7789 12.0503 17.7789 12.4384C17.7789 12.8264 17.4649 13.1404 17.0769 13.1404Z" fill="#005073"/>
<path d="M12.5589 10.5288C12.0726 10.5288 11.5863 10.3437 11.2174 9.97354C10.477 9.23319 10.477 8.02949 11.2174 7.28915C11.9577 6.5488 13.1614 6.5488 13.9018 7.28915C14.6421 8.02949 14.6421 9.23319 13.9018 9.97354C13.5316 10.3437 13.0453 10.5288 12.5602 10.5288H12.5589ZM12.5589 8.13799C12.4326 8.13799 12.3062 8.1865 12.2092 8.28223C12.0164 8.47498 12.0164 8.78771 12.2092 8.98045C12.4019 9.1732 12.7147 9.1732 12.9074 8.98045C13.1001 8.78771 13.1001 8.47498 12.9074 8.28223C12.8117 8.1865 12.684 8.13799 12.5576 8.13799H12.5589Z" fill="#005073"/>
<path d="M12.5585 18.2758C12.0378 18.2758 11.5476 18.0728 11.18 17.7052C10.4205 16.9457 10.4205 15.7088 11.18 14.948C11.9407 14.1873 13.1764 14.1885 13.9371 14.948C14.6966 15.7075 14.6966 16.9444 13.9371 17.7052C13.5695 18.0728 13.0793 18.2758 12.5585 18.2758ZM12.5585 15.7816C12.4194 15.7816 12.279 15.8352 12.1731 15.9411C11.9612 16.1543 11.9599 16.5002 12.1731 16.7121C12.2764 16.8155 12.413 16.8717 12.5585 16.8717C12.7041 16.8717 12.8406 16.8155 12.944 16.7121C13.1572 16.4989 13.1559 16.153 12.944 15.9411C12.8381 15.8352 12.6977 15.7816 12.5585 15.7816Z" fill="#005073"/>
</svg>
