<svg width="22" height="23" viewBox="0 0 22 23" fill="none" xmlns="http://www.w3.org/2000/svg">
<path fill-rule="evenodd" clip-rule="evenodd" d="M11.3777 1.42084L13.4002 4.11306L16.6189 3.12381L17.4151 2.8791L17.4284 3.71194L17.4822 7.07879L20.6677 8.17036L21.4556 8.44038L20.9769 9.12199L19.0414 11.8774L20.9769 14.6329L21.4556 15.3145L20.6677 15.5845L17.4822 16.6761L17.4284 20.0429L17.4151 20.8758L16.6189 20.6311L13.4002 19.6418L11.3777 22.334L10.8774 23L10.3771 22.334L8.35464 19.6418L5.13596 20.6311L4.33977 20.8758L4.32646 20.0429L4.27266 16.6761L1.08723 15.5845L0.299259 15.3145L0.778026 14.6329L2.71348 11.8774L0.778026 9.12199L0.299259 8.44038L1.08723 8.17036L4.27266 7.07879L4.32646 3.71194L4.33977 2.8791L5.13596 3.12381L8.35464 4.11306L10.3771 1.42084L10.8774 0.754883L11.3777 1.42084ZM13.6353 4.87775L16.6322 3.95665L16.6823 7.09157L16.6913 7.65342L17.2229 7.83559L20.1889 8.85197L18.3868 11.4176L18.0638 11.8774L18.3868 12.3373L20.1889 14.9029L17.2229 15.9193L16.6913 16.1015L16.6823 16.6633L16.6322 19.7982L13.6353 18.8771L13.0981 18.712L12.7606 19.1613L10.8774 21.6681L8.99426 19.1613L8.65674 18.712L8.11961 18.8771L5.12265 19.7982L5.07256 16.6633L5.06358 16.1015L4.532 15.9193L1.56599 14.9029L3.36813 12.3373L3.69111 11.8774L3.36813 11.4176L1.56599 8.85197L4.532 7.83559L5.06358 7.65342L5.07256 7.09157L5.12265 3.95665L8.11961 4.87775L8.65674 5.04284L8.99426 4.59356L10.8774 2.0868L12.7606 4.59356L13.0981 5.04284L13.6353 4.87775ZM10.3858 7.87557V7.05859L11.6149 7.05869V7.88377C12.0415 7.92692 12.4329 8.00824 12.7874 8.13454C13.3258 8.32634 13.743 8.61118 14.0328 8.98387C14.3225 9.35657 14.4801 9.77443 14.5018 10.2458L13.2969 10.3267C13.232 9.81877 13.0078 9.42933 12.6338 9.1699C12.3774 8.99209 12.0388 8.878 11.6149 8.82206V11.3863C12.336 11.5357 12.8615 11.6732 13.1675 11.7908C13.721 12.0063 14.1248 12.2771 14.3886 12.6077C14.6523 12.9384 14.7848 13.3172 14.7848 13.7483C14.7848 14.1758 14.6379 14.5835 14.3481 14.9617C14.0584 15.3399 13.6455 15.6333 13.1028 15.8434C12.6542 16.0171 12.1566 16.1126 11.6149 16.1427V16.9435H10.3857V16.1103C9.90651 16.061 9.47576 15.9693 9.10805 15.8353C8.52644 15.6234 8.07225 15.3065 7.74143 14.8808C7.41064 14.4551 7.23311 13.9781 7.21582 13.4409L8.40456 13.3519C8.46076 13.7539 8.58731 14.0812 8.79271 14.3388C8.99813 14.5964 9.3226 14.8027 9.75503 14.9617C9.95425 15.0349 10.1636 15.0921 10.3858 15.1315V12.2275C9.71823 12.0807 9.22558 11.9394 8.9302 11.8069C8.47613 11.6059 8.13399 11.3605 7.91129 11.0627C7.6886 10.7649 7.57975 10.4287 7.57975 10.0596C7.57975 9.65406 7.71975 9.27976 7.99218 8.92715C8.26462 8.57457 8.65769 8.30095 9.18092 8.11825C9.55192 7.98871 9.95609 7.91326 10.3858 7.87557ZM10.3858 11.1274V8.81391C9.92431 8.86177 9.5678 8.96863 9.31835 9.1375C8.97026 9.37316 8.79274 9.65435 8.79274 9.98684C8.79274 10.2755 8.91823 10.5123 9.16472 10.6987C9.34772 10.8395 9.75715 10.9814 10.3858 11.1274ZM12.456 12.7048C12.3016 12.654 11.9958 12.5795 11.615 12.4945V15.1801C11.9311 15.1551 12.2203 15.1036 12.4802 15.0183C12.8478 14.8977 13.1256 14.735 13.3051 14.5249C13.4845 14.3148 13.5719 14.0858 13.5719 13.8373C13.5719 13.5852 13.4861 13.3622 13.3131 13.174C13.1402 12.9858 12.8538 12.8327 12.456 12.7048Z" fill="#005073"/>
</svg>
