<svg width="5" height="16" viewBox="0 0 5 16" fill="none" xmlns="http://www.w3.org/2000/svg">
<path d="M4.22443 2.47696C4.22443 3.52269 3.37669 4.37042 2.33096 4.37042C1.28523 4.37042 0.4375 3.52269 0.4375 2.47696C0.4375 1.43123 1.28523 0.583496 2.33096 0.583496C3.37669 0.583496 4.22443 1.43123 4.22443 2.47696Z" fill="#787885"/>
<path d="M4.22443 8.15201C4.22443 9.19774 3.37669 10.0455 2.33096 10.0455C1.28523 10.0455 0.4375 9.19774 0.4375 8.15201C0.4375 7.10628 1.28523 6.25854 2.33096 6.25854C3.37669 6.25854 4.22443 7.10628 4.22443 8.15201Z" fill="#787885"/>
<path d="M4.22443 13.8271C4.22443 14.8728 3.37669 15.7205 2.33096 15.7205C1.28523 15.7205 0.4375 14.8728 0.4375 13.8271C0.4375 12.7813 1.28523 11.9336 2.33096 11.9336C3.37669 11.9336 4.22443 12.7813 4.22443 13.8271Z" fill="#787885"/>
</svg>
