<svg width="17" height="15" viewBox="0 0 17 15" fill="none" xmlns="http://www.w3.org/2000/svg">
<path d="M6.86559 0.756442L0.210586 11.8664C0.0733754 12.1041 0.000774447 12.3735 6.16167e-06 12.6479C-0.000762124 12.9222 0.0703291 13.192 0.206207 13.4304C0.342085 13.6688 0.538013 13.8675 0.774499 14.0066C1.01099 14.1458 1.27979 14.2206 1.55416 14.2236H14.8642C15.1385 14.2206 15.4073 14.1458 15.6438 14.0066C15.8803 13.8675 16.0762 13.6688 16.2121 13.4304C16.348 13.192 16.4191 12.9222 16.4183 12.6479C16.4175 12.3735 16.3449 12.1041 16.2077 11.8664L9.55273 0.756442C9.41266 0.525525 9.21544 0.334607 8.9801 0.202107C8.74475 0.069608 8.47923 0 8.20916 0C7.93908 0 7.67356 0.069608 7.43822 0.202107C7.20288 0.334607 7.00566 0.525525 6.86559 0.756442V0.756442Z" fill="#98ABC3"/>
<path fill-rule="evenodd" clip-rule="evenodd" d="M8.21094 4.29492C8.48708 4.29492 8.71094 4.51878 8.71094 4.79492V7.93778C8.71094 8.21392 8.48708 8.43778 8.21094 8.43778C7.9348 8.43778 7.71094 8.21392 7.71094 7.93778V4.79492C7.71094 4.51878 7.9348 4.29492 8.21094 4.29492Z" fill="#F9FAFB"/>
<path fill-rule="evenodd" clip-rule="evenodd" d="M8.2115 10.8664C8.09315 10.8664 7.99721 10.9623 7.99721 11.0806C7.99721 11.199 8.09315 11.2949 8.2115 11.2949C8.32984 11.2949 8.42578 11.199 8.42578 11.0806C8.42578 10.9623 8.32984 10.8664 8.2115 10.8664ZM8.2115 11.8664C8.64543 11.8664 8.99721 11.5146 8.99721 11.0806C8.99721 10.6467 8.64543 10.2949 8.2115 10.2949C7.77756 10.2949 7.42578 10.6467 7.42578 11.0806C7.42578 11.5146 7.77756 11.8664 8.2115 11.8664Z" fill="#F9FAFB"/>
</svg>
