<svg width="18" height="16" viewBox="0 0 18 16" fill="none" xmlns="http://www.w3.org/2000/svg">
<path fill-rule="evenodd" clip-rule="evenodd" d="M1.25 2C1.25 1.58579 1.58579 1.25 2 1.25H16C16.4142 1.25 16.75 1.58579 16.75 2V4.18292C15.5606 4.81153 14.75 6.06022 14.75 7.5C14.75 8.93978 15.5606 10.1885 16.75 10.8171V13.75C16.75 14.1642 16.4142 14.5 16 14.5H2C1.58579 14.5 1.25 14.1642 1.25 13.75V10.8171C2.43939 10.1885 3.25 8.93978 3.25 7.5C3.25 6.06022 2.43939 4.81153 1.25 4.18292V2ZM18 2V5.05001C16.8589 5.28164 16 6.29052 16 7.5C16 8.70948 16.8589 9.71836 18 9.94999V13.75C18 14.8546 17.1046 15.75 16 15.75H2C0.89543 15.75 0 14.8546 0 13.75V9.94999C1.14112 9.71836 2 8.70948 2 7.5C2 6.29052 1.14112 5.28164 0 5.05001V2C0 0.895431 0.895431 0 2 0H16C17.1046 0 18 0.89543 18 2ZM6.15147 4.35147C6.37652 4.12643 6.68174 4 7 4C7.31826 4 7.62349 4.12643 7.84853 4.35147C8.07357 4.57652 8.2 4.88174 8.2 5.2C8.2 5.51826 8.07357 5.82349 7.84853 6.04853C7.62349 6.27357 7.31826 6.4 7 6.4C6.68174 6.4 6.37652 6.27357 6.15147 6.04853C5.92643 5.82349 5.8 5.51826 5.8 5.2C5.8 4.88174 5.92643 4.57652 6.15147 4.35147ZM10.1515 9.95147C10.3765 9.72643 10.6817 9.6 11 9.6C11.3183 9.6 11.6235 9.72643 11.8485 9.95147C12.0736 10.1765 12.2 10.4817 12.2 10.8C12.2 11.1183 12.0736 11.4235 11.8485 11.6485C11.6235 11.8736 11.3183 12 11 12C10.6817 12 10.3765 11.8736 10.1515 11.6485C9.92643 11.4235 9.8 11.1183 9.8 10.8C9.8 10.4817 9.92643 10.1765 10.1515 9.95147ZM13 5.128L6.128 12L5 10.872L11.872 4L13 5.128Z" fill="#059FD9"/>
</svg>
