<svg width="37" height="30" viewBox="0 0 37 30" fill="none" xmlns="http://www.w3.org/2000/svg">
<path d="M9.5 10.4C9.5 8.74317 10.8431 7.40002 12.5 7.40002H24.55C26.2069 7.40002 27.55 8.74317 27.55 10.4V14.85C27.55 16.5069 26.2069 17.85 24.55 17.85H12.5C10.8431 17.85 9.5 16.5069 9.5 14.85V10.4Z" fill="#FBAB18"/>
<path d="M0 27.825C0 27.038 0.637995 26.4 1.425 26.4H34.675C35.462 26.4 36.1 27.038 36.1 27.825V27.825C36.1 28.612 35.462 29.25 34.675 29.25H1.425C0.637997 29.25 0 28.612 0 27.825V27.825Z" fill="#43B99F"/>
<path fill-rule="evenodd" clip-rule="evenodd" d="M5.80005 0.599976H30.3001C33.0615 0.599976 35.3001 2.83855 35.3001 5.59998V18.7C35.3001 21.4614 33.0615 23.7 30.3001 23.7H5.80005C3.03862 23.7 0.800049 21.4614 0.800049 18.7V5.59998C0.800049 2.83856 3.03862 0.599976 5.80005 0.599976ZM5.80005 3.59998C4.69548 3.59998 3.80005 4.49541 3.80005 5.59998V18.7C3.80005 19.8045 4.69548 20.7 5.80005 20.7H30.3001C31.4046 20.7 32.3001 19.8045 32.3001 18.7V5.59998C32.3001 4.49541 31.4046 3.59998 30.3001 3.59998H5.80005Z" fill="#43B99F"/>
</svg>
