<svg width="34" height="27" viewBox="0 0 34 27" fill="none" xmlns="http://www.w3.org/2000/svg">
<path d="M31.2937 9.17998C31.1545 9.56721 31.0168 9.95445 30.877 10.3417C30.2722 12.0195 29.666 13.6965 29.0612 15.3743C29.0164 15.4989 28.9724 15.6242 28.9291 15.7495C28.8503 15.9787 28.7467 16.1958 28.6253 16.4051C28.6111 16.4293 28.5919 16.4499 28.5749 16.472C28.516 16.4093 28.5295 16.3303 28.5288 16.2556C28.5273 15.6861 28.5281 15.1166 28.5281 14.5479C28.5281 11.2315 28.5281 7.91505 28.5273 4.59863C28.5273 4.4705 28.5366 4.34309 28.5472 4.21567C28.5479 4.16228 28.5728 4.1153 28.5891 4.0669C28.6473 3.89179 28.7077 3.7181 28.7673 3.5437C28.9277 3.07247 29.1925 2.67029 29.5595 2.33573C29.798 2.11862 30.0727 1.967 30.3907 1.90293C30.5668 1.86734 30.745 1.85168 30.9253 1.87517C31.0509 1.89154 31.1787 1.89368 31.2994 1.93781C31.3221 2.00188 31.3185 2.06808 31.3185 2.13499C31.3185 4.36658 31.3178 6.59817 31.32 8.82975C31.32 8.94721 31.2908 9.06252 31.2937 9.17998Z" fill="white"/>
<path d="M28.5899 4.15674C28.6062 4.17525 28.6126 4.19802 28.6126 4.22223C28.6126 4.26992 28.6133 4.3169 28.6133 4.36459C28.6133 8.31454 28.6133 12.2645 28.6133 16.2144C28.6133 16.2806 28.6161 16.3468 28.6176 16.4138C28.6098 16.4579 28.5814 16.4906 28.5579 16.5255C27.9829 17.3918 27.1914 17.9328 26.1657 18.1214C26.0912 18.135 26.0173 18.1478 25.9414 18.1513C25.8633 18.162 25.8604 18.1015 25.8512 18.0517C25.8399 17.9912 25.8448 17.9285 25.8448 17.8673C25.8448 16.0799 25.8448 14.2925 25.8441 12.5051C25.8441 12.3812 25.8619 12.2602 25.8881 12.1399C25.94 11.9776 25.9896 11.8146 26.0443 11.653C26.4936 10.3248 26.9437 8.99648 27.393 7.6682C27.7806 6.52358 28.1675 5.37966 28.5558 4.23504C28.565 4.20728 28.5785 4.18236 28.5899 4.15674Z" fill="white"/>
<path d="M9.60862 0.54248C9.76195 0.622917 9.8805 0.745352 9.99053 0.875617C10.1659 1.08347 10.2986 1.31766 10.4086 1.56609C10.4796 1.72626 10.552 1.88571 10.6273 2.04373C11.1093 3.05667 11.5927 4.0696 12.0747 5.08254C12.1542 5.24911 12.2287 5.41781 12.3061 5.58509C12.3402 5.68475 12.3508 5.78725 12.3508 5.8926C12.3501 8.79402 12.3508 11.6954 12.3487 14.5969C12.3487 14.6787 12.387 14.7798 12.282 14.836C12.162 14.5997 12.0413 14.3634 11.9221 14.1271C11.6324 13.5519 11.3442 12.976 11.0546 12.4009C10.5861 11.4705 10.1176 10.5401 9.64909 9.60978C9.6214 9.55497 9.58662 9.50372 9.57597 9.44108C9.54474 9.33573 9.53125 9.22895 9.53125 9.11862C9.53196 6.35244 9.53196 3.58627 9.53196 0.820094C9.53196 0.763148 9.52841 0.70549 9.53764 0.649255C9.54474 0.603698 9.54332 0.549599 9.60862 0.54248Z" fill="white"/>
<path d="M12.282 14.836C12.2891 14.819 12.3011 14.8025 12.3018 14.7854C12.3047 14.7384 12.3033 14.6907 12.3033 14.643C12.3033 11.6426 12.3033 8.64228 12.3025 5.64191C12.3025 5.62269 12.3047 5.60431 12.3061 5.58509C12.3246 5.61783 12.3451 5.64903 12.3615 5.68319C12.5474 6.07257 12.7327 6.46194 12.918 6.85131C13.1381 7.31329 13.3588 7.77527 13.5789 8.23724C13.7748 8.64797 13.97 9.0587 14.1652 9.46943C14.3668 9.89296 14.5691 10.3165 14.7707 10.74C14.8524 10.9109 14.934 11.0824 15.0149 11.254C15.0227 11.2704 15.0256 11.2896 15.0305 11.3074C15.049 11.4341 15.0469 11.5622 15.0469 11.6903C15.0469 13.6628 15.0469 15.6346 15.0455 17.6071C15.0455 17.6946 15.0682 17.7893 14.9972 17.8648C14.9745 17.8598 14.9496 17.8584 14.929 17.8491C14.5919 17.6982 14.2717 17.5188 13.9828 17.2853C13.8231 17.1565 13.6953 16.9985 13.5583 16.8497C13.3695 16.6447 13.197 16.4254 13.0365 16.1969C12.8129 15.8795 12.6149 15.547 12.4516 15.1933C12.397 15.073 12.3388 14.9549 12.282 14.836Z" fill="white"/>
<path d="M9.60991 0.542697C9.59216 0.559781 9.58222 0.581135 9.58222 0.60605C9.58151 0.653742 9.58151 0.700723 9.58151 0.748416C9.58151 3.58435 9.58151 6.42028 9.58151 9.25622C9.58151 9.31744 9.5781 9.37915 9.57597 9.44108C9.50924 9.34925 9.46368 9.24483 9.41257 9.14446C8.93554 8.19701 8.4649 7.24672 7.98361 6.30212C7.74723 5.83801 7.52433 5.36749 7.29504 4.89981C7.1843 4.67487 7.07711 4.4478 6.96921 4.22144C6.95076 4.18229 6.9323 4.14385 6.88261 4.13744C6.83434 4.08263 6.83647 4.01501 6.83647 3.94881C6.83576 2.82483 6.83576 1.70085 6.83647 0.576865C6.83647 0.511376 6.82866 0.442328 6.88048 0.388229C6.92733 0.386094 6.97489 0.381823 7.02174 0.381823C7.71741 0.381111 8.41308 0.382535 9.10874 0.380399C9.29473 0.378976 9.46155 0.431651 9.60991 0.542697Z" fill="white"/>
<path d="M15.0299 20.7369C15.7561 20.6265 16.4354 20.7582 17.0651 21.1369C17.2844 21.2686 17.4825 21.4281 17.6592 21.6139C17.6848 21.6409 17.7068 21.6722 17.7302 21.7014C17.7707 21.7697 17.775 21.8445 17.775 21.9207C17.775 23.1229 17.775 24.3245 17.775 25.5268C17.775 25.603 17.7742 25.6784 17.7288 25.7453C17.6117 25.9019 17.4612 26.0244 17.3072 26.1404C16.9082 26.4415 16.4596 26.6301 15.9669 26.7084C15.6574 26.7575 15.3472 26.7568 15.0377 26.7084C15.0249 26.7063 15.0129 26.6963 15.0001 26.6899C14.9561 26.633 14.9575 26.5661 14.9575 26.4999C14.9568 24.6512 14.9568 22.8026 14.9582 20.954C14.9575 20.875 14.9454 20.7888 15.0299 20.7369Z" fill="white"/>
<path d="M25.8521 26.7364C25.5894 26.757 25.3317 26.7164 25.0804 26.6495C24.2378 26.4246 23.6032 25.9263 23.1759 25.1639C23.1574 25.1312 23.1454 25.0956 23.1297 25.0607C23.107 24.9347 23.1056 24.808 23.1056 24.6799C23.107 24.0848 23.1056 23.4897 23.1063 22.8946C23.1063 22.7252 23.0992 22.5551 23.1262 22.3864C23.2128 22.1742 23.342 21.9877 23.4854 21.8126C23.956 21.2382 24.558 20.883 25.2856 20.7442C25.4709 20.7086 25.659 20.6872 25.8485 20.7064C25.8975 20.7605 25.8947 20.8289 25.8947 20.8944C25.8954 22.7786 25.8954 24.6628 25.8947 26.5477C25.8947 26.6132 25.9018 26.6816 25.8521 26.7364Z" fill="white"/>
<path d="M25.8521 26.7364C25.8514 26.6744 25.8491 26.6133 25.8491 26.5513C25.8491 24.6643 25.8491 22.7779 25.8491 20.8908C25.8491 20.8289 25.8484 20.7677 25.8477 20.7058C26.0187 20.688 26.1884 20.7086 26.3545 20.7414C27.2844 20.9236 27.9886 21.4276 28.4621 22.2519C28.5068 22.3295 28.5537 22.4063 28.5742 22.4953C28.609 22.6185 28.6218 22.7437 28.6218 22.8719C28.6197 23.4385 28.6204 24.0044 28.6218 24.571C28.6218 24.6949 28.609 24.8152 28.5764 24.934C28.5728 24.9881 28.5437 25.033 28.5196 25.0785C28.0575 25.9548 27.3448 26.4965 26.373 26.6901C26.2005 26.7243 26.0281 26.7513 25.8521 26.7364Z" fill="white"/>
<path d="M15 17.8638C15.0014 17.8026 15.005 17.7407 15.005 17.6794C15.005 15.6187 15.005 13.5586 15.005 11.4979C15.005 11.4552 15.005 11.4125 15.0057 11.3698C15.0057 11.3449 15.0135 11.3235 15.0327 11.3071C15.076 11.3641 15.0987 11.4324 15.1292 11.4958C15.274 11.7983 15.4138 12.1037 15.5643 12.4033C15.8071 12.8874 16.1372 13.3038 16.5674 13.6348C16.8251 13.8334 17.1118 13.9736 17.4355 14.0285C17.5101 14.0413 17.5846 14.0484 17.6591 14.0584C17.7344 14.0484 17.7592 14.0947 17.7685 14.158C17.7763 14.2142 17.7748 14.2719 17.7748 14.3288C17.7748 15.534 17.7748 16.7384 17.7748 17.9435C17.7748 18.214 17.7741 18.2154 17.503 18.214C17.0962 18.2112 16.6895 18.224 16.2834 18.2069C16.0761 18.1969 15.876 18.1471 15.6751 18.098C15.4792 18.0503 15.2868 17.9898 15.0987 17.9158C15.0632 17.9022 15.0263 17.8923 15 17.8638Z" fill="white"/>
<path d="M25.8481 12.197C25.8488 12.254 25.8509 12.3109 25.8509 12.3679C25.8509 14.2521 25.8509 16.1356 25.8509 18.0198C25.8509 18.0675 25.8509 18.1145 25.8538 18.1622C25.8552 18.1899 25.88 18.1985 25.9013 18.2091C25.8722 18.2312 25.8381 18.2262 25.8055 18.2262C24.9316 18.2269 24.0571 18.2262 23.1833 18.2262C23.1648 18.2262 23.1456 18.222 23.1272 18.2198C23.0967 18.1622 23.1073 18.0988 23.1073 18.0383C23.1073 16.814 23.1073 15.5903 23.1073 14.366C23.1073 14.3325 23.1052 14.2991 23.1073 14.2663C23.1144 14.1546 23.059 14.1118 22.9533 14.1183C22.9107 14.1211 22.8681 14.1183 22.8255 14.1183C22.1206 14.1183 21.4157 14.1183 20.7101 14.1175C20.6348 14.1175 20.5582 14.1254 20.4851 14.0983C20.4673 14.0905 20.4538 14.0777 20.4453 14.0599C20.4971 14.057 20.549 14.0528 20.6008 14.0528C21.6698 14.0521 22.7382 14.0521 23.8072 14.0528C23.8874 14.0528 23.9677 14.0599 24.0479 14.0549C24.3567 14.0357 24.62 13.9026 24.8585 13.7139C25.0502 13.563 25.2057 13.3794 25.3441 13.1793C25.5308 12.9089 25.6742 12.6163 25.7955 12.3109C25.8119 12.2732 25.8161 12.2283 25.8481 12.197Z" fill="white"/>
<path d="M15.0299 20.7369C15.015 20.7668 15.0037 20.7976 15.0051 20.8317C15.0065 20.8695 15.0051 20.9079 15.0051 20.9456C15.0051 22.7992 15.0051 24.6521 15.0051 26.5057C15.0051 26.567 15.0015 26.6287 15.0001 26.6899C14.9035 26.6949 14.8135 26.6666 14.7226 26.6424C14.2718 26.5214 13.87 26.3078 13.518 26.0018C13.2553 25.7733 13.0409 25.5042 12.8677 25.2002C12.6846 24.8792 12.5682 24.5347 12.5142 24.1716C12.478 23.9289 12.4695 23.684 12.4957 23.4356C12.5362 23.0427 12.6406 22.6725 12.8223 22.3252C13.1162 21.7635 13.5456 21.3343 14.1071 21.0396C14.3975 20.8865 14.7034 20.7803 15.0299 20.7369Z" fill="white"/>
<path d="M20.4439 14.0601C20.4489 14.0622 20.4524 14.0665 20.4531 14.0714C20.4744 14.1263 20.4702 14.1832 20.4702 14.2401C20.4694 15.5015 20.4702 16.7629 20.4694 18.0242C20.4694 18.0897 20.4808 18.1574 20.446 18.2193C20.3992 18.2214 20.3516 18.225 20.3048 18.225C19.0235 18.2257 17.7429 18.2264 16.4616 18.2257C16.4012 18.2257 16.3387 18.2392 16.2812 18.2072C16.5084 18.2058 16.7349 18.2043 16.962 18.2036C17.17 18.2029 17.378 18.2036 17.586 18.2029C17.6186 18.2029 17.652 18.2008 17.6847 18.1972C17.7052 18.1951 17.7194 18.1801 17.7209 18.1595C17.7237 18.1168 17.7258 18.0748 17.7258 18.0321C17.7258 17.3637 17.7258 16.6945 17.7258 16.0261C17.7258 15.4332 17.7258 14.8402 17.7258 14.248C17.7258 14.2145 17.7223 14.1811 17.7265 14.1483C17.7329 14.0935 17.6988 14.0736 17.6563 14.0593C17.6797 14.0565 17.7031 14.0515 17.7258 14.0515C18.589 14.0515 19.4529 14.0515 20.3161 14.0522C20.3601 14.0522 20.402 14.0572 20.4439 14.0601Z" fill="white"/>
<path d="M20.4484 18.2191C20.4185 18.1665 20.4292 18.1081 20.4292 18.0518C20.4285 17.3322 20.4292 16.6132 20.4292 15.8936C20.4292 15.3348 20.4285 14.7767 20.4306 14.2179C20.4306 14.1688 20.4093 14.1133 20.4562 14.0713C21.2931 14.0713 22.1307 14.0713 22.9677 14.072C23.1693 14.072 23.1537 14.0585 23.1537 14.2542C23.1537 15.5206 23.1537 16.7869 23.1537 18.0533C23.1537 18.1095 23.1636 18.1679 23.1281 18.2191C22.9109 18.2213 22.6937 18.2255 22.4764 18.2255C21.8482 18.2255 21.2193 18.2241 20.591 18.2227C20.5428 18.2227 20.4952 18.2206 20.4484 18.2191Z" fill="white"/>
<path d="M4.18128 4.13635C4.12946 4.13849 4.07835 4.14276 4.02653 4.14276C3.33868 4.14347 2.65082 4.14276 1.96296 4.14347C1.86855 4.14347 1.77485 4.14846 1.68044 4.1513C1.60519 4.15344 1.52995 4.15201 1.45612 4.13351C1.40643 4.07941 1.41069 4.01107 1.41069 3.94487C1.40998 2.8273 1.40998 1.70972 1.41069 0.591437C1.41069 0.525236 1.40927 0.457612 1.45754 0.402801C1.54414 0.372193 1.6343 0.380735 1.72374 0.380735C2.49607 0.380023 3.26911 0.380023 4.04144 0.380735C4.08829 0.380735 4.13514 0.385006 4.18199 0.387141C4.23523 0.440529 4.22742 0.509576 4.22742 0.575065C4.22884 1.69905 4.22884 2.82303 4.22742 3.94701C4.22813 4.01392 4.23026 4.08154 4.18128 4.13635Z" fill="white"/>
<path d="M4.18359 4.1363C4.18359 2.88704 4.1843 1.63706 4.1843 0.3878C4.2269 0.385664 4.26878 0.381393 4.31137 0.381393C5.12558 0.380681 5.93909 0.380681 6.7533 0.381393C6.79589 0.381393 6.83848 0.384952 6.88036 0.387088C6.88107 0.609891 6.88178 0.831982 6.88178 1.05479C6.88178 2.08196 6.88249 3.10913 6.88249 4.1363C6.84061 4.13844 6.79802 4.14271 6.75543 4.14271C5.93979 4.14342 5.12487 4.14342 4.30924 4.14271C4.26807 4.14271 4.22619 4.13844 4.18359 4.1363Z" fill="white"/>
<path d="M20.4259 9.10358C20.4727 9.10073 20.5203 9.09575 20.5671 9.09575C21.1726 9.09504 21.7782 9.09504 22.3837 9.09575C22.5931 9.09575 22.7982 9.12707 22.9956 9.2011C23.0396 9.21747 23.0857 9.23029 23.1226 9.26232C23.1887 9.30289 23.195 9.3698 23.195 9.43672C23.1972 10.3258 23.1972 11.2142 23.195 12.1032C23.195 12.1559 23.1887 12.2072 23.1503 12.2492C23.0346 12.3282 22.9005 12.3588 22.7677 12.3901C22.6619 12.415 22.5533 12.425 22.444 12.425C21.7959 12.4243 21.1478 12.425 20.499 12.4243C20.4756 12.4243 20.4521 12.4207 20.4287 12.4186C20.3762 12.3659 20.3797 12.2976 20.3797 12.2314C20.379 11.2512 20.3783 10.271 20.3797 9.29008C20.379 9.2253 20.3719 9.15625 20.4259 9.10358Z" fill="white"/>
<path d="M20.4259 9.10358C20.4259 10.1471 20.4264 11.1899 20.4264 12.2335C20.4264 12.2954 20.428 12.3566 20.4287 12.4186C20.3584 12.4207 20.2872 12.4242 20.217 12.4242C19.9103 12.4249 19.6036 12.4271 19.297 12.4235C18.8242 12.4185 18.426 12.2377 18.1037 11.8939C17.9035 11.6804 17.7665 11.4291 17.7069 11.1387C17.6991 10.8831 17.6934 10.6276 17.7097 10.372C17.8694 9.75984 18.2549 9.36193 18.8519 9.16689C19.001 9.11848 19.1557 9.09855 19.3112 9.0957C19.6597 9.09001 20.009 9.09357 20.3575 9.09428C20.3795 9.09499 20.4024 9.10073 20.4259 9.10358Z" fill="white"/>
<path d="M31.2956 9.17938C31.2807 9.16016 31.2743 9.13738 31.2743 9.11318C31.2743 9.07546 31.2736 9.03702 31.2736 8.99929C31.2736 6.70363 31.2736 4.40869 31.2743 2.11304C31.2743 2.05396 31.253 1.98918 31.3006 1.93579C31.9636 2.07816 32.4661 2.4355 32.7728 3.05123C32.8445 3.19573 32.8991 3.34806 32.9432 3.50253C33.0007 3.70469 33.0113 3.91326 32.9943 4.12325C32.9673 4.45638 32.8885 4.77813 32.7756 5.09134C32.2979 6.41463 31.8195 7.73721 31.341 9.0598C31.3261 9.10037 31.3105 9.13952 31.2956 9.17938Z" fill="white"/>
<path d="M1.45906 0.403346C1.45906 1.64691 1.45835 2.88977 1.45835 4.13334C1.0161 4.09988 0.653363 3.91481 0.377937 3.56387C0.223187 3.3667 0.128775 3.13962 0.0734054 2.8976C-0.0472713 2.36871 -0.0167471 1.8448 0.147231 1.32873C0.164268 1.27463 0.184854 1.22195 0.20757 1.16999C0.35948 0.824749 0.611481 0.592693 0.972802 0.483071C1.1311 0.434666 1.29153 0.395515 1.45906 0.403346Z" fill="white"/>
<path d="M17.7273 25.7446C17.7266 24.6192 17.7266 23.4931 17.7266 22.3677C17.7266 22.1456 17.7287 21.9235 17.7294 21.7007C17.7471 21.7163 17.767 21.7292 17.7819 21.747C18.139 22.1726 18.3761 22.6552 18.4684 23.2069C18.4946 23.3664 18.5152 23.5265 18.5145 23.6874C18.5117 24.4085 18.2959 25.057 17.8416 25.6207C17.8068 25.6642 17.7798 25.7161 17.7273 25.7446Z" fill="white"/>
<path d="M23.1527 12.2483C23.1527 11.3123 23.1527 10.3769 23.1527 9.44086C23.1527 9.37964 23.1605 9.317 23.125 9.26147C23.3103 9.3291 23.4636 9.44797 23.5999 9.58607C23.9229 9.91422 24.0947 10.3136 24.084 10.7741C24.0684 11.4283 23.7625 11.9159 23.1931 12.2369C23.1818 12.244 23.1662 12.2448 23.1527 12.2483Z" fill="white"/>
<path d="M23.1262 22.3864C23.134 22.4027 23.1467 22.419 23.1488 22.4368C23.1531 22.4646 23.1509 22.4937 23.1509 22.5222C23.1509 23.323 23.1509 24.1238 23.1502 24.9246C23.1502 24.9709 23.1645 25.0194 23.1297 25.0607C23.024 24.8849 22.9607 24.6926 22.9103 24.4954C22.735 23.8128 22.7861 23.1465 23.0658 22.4987C23.0828 22.4603 23.1063 22.4234 23.1262 22.3864Z" fill="white"/>
<path d="M28.5753 24.9339C28.5732 24.8961 28.5703 24.8584 28.5703 24.8207C28.5703 24.074 28.5703 23.3273 28.5703 22.5806C28.5703 22.5521 28.5728 22.5231 28.5742 22.4953C28.6239 22.5601 28.6434 22.6396 28.669 22.7144C28.911 23.4262 28.8961 24.1338 28.6278 24.8356C28.615 24.8705 28.6058 24.9082 28.5753 24.9339Z" fill="white"/>
<path d="M17.7097 10.372C17.7282 10.3962 17.7282 10.4243 17.7282 10.452C17.7282 10.6542 17.7282 10.8563 17.7282 11.0585C17.7282 11.087 17.7275 11.1152 17.7069 11.1387C17.643 10.8831 17.6451 10.6276 17.7097 10.372Z" fill="white"/>
</svg>
