<svg width="31" height="38" viewBox="0 0 31 38" fill="none" xmlns="http://www.w3.org/2000/svg">
<path d="M30.5843 11.9772C30.5843 18.5921 25.1658 23.9545 18.4817 23.9545C11.7977 23.9545 6.37915 18.5921 6.37915 11.9772C6.37915 5.36239 11.7977 0 18.4817 0C25.1658 0 30.5843 5.36239 30.5843 11.9772Z" fill="#7DD3F3"/>
<path d="M12.6392 4.65773C6.2545 4.65773 1.07314 9.78078 1.07314 16.1072C1.07314 20.0967 3.13377 23.6088 6.25954 25.659C6.40879 25.7569 6.49843 25.9216 6.49843 26.0981V27.855H10.8506C11.147 27.855 11.3872 28.0912 11.3872 28.3827C11.3872 28.6742 11.147 28.9105 10.8506 28.9105H6.49843V30.0347H19.3164C19.6128 30.0347 19.853 30.271 19.853 30.5625V33.4535C19.853 33.745 19.6128 33.9813 19.3164 33.9813H5.96186C5.66553 33.9813 5.4253 33.745 5.4253 33.4535C5.4253 33.162 5.66553 32.9257 5.96186 32.9257H18.7799V31.0902H5.96186C5.66553 31.0902 5.4253 30.8539 5.4253 30.5625V26.3766C2.1464 24.1178 0 20.3601 0 16.1072C0 9.2039 5.65566 3.60217 12.6392 3.60217C19.6226 3.60217 25.2783 9.2039 25.2783 16.1072C25.2783 20.4114 23.0798 24.2085 19.7338 26.4577V28.3827C19.7338 28.6742 19.4936 28.9105 19.1972 28.9105C18.9009 28.9105 18.6607 28.6742 18.6607 28.3827V26.1342C18.6607 25.8828 18.8394 25.6724 19.0787 25.6194C22.1709 23.5638 24.2052 20.0711 24.2052 16.1072C24.2052 9.78078 19.0238 4.65773 12.6392 4.65773Z" fill="#020054"/>
<path d="M12.6392 36.4166C13.4495 36.4166 14.1892 35.6919 14.1892 34.6927C14.1892 34.4012 14.4295 34.1649 14.7258 34.1649C15.0221 34.1649 15.2624 34.4012 15.2624 34.6927C15.2624 36.1807 14.1336 37.4722 12.6392 37.4722C11.1447 37.4722 10.0159 36.1807 10.0159 34.6927C10.0159 34.4012 10.2562 34.1649 10.5525 34.1649C10.8488 34.1649 11.0891 34.4012 11.0891 34.6927C11.0891 35.6919 11.8288 36.4166 12.6392 36.4166Z" fill="#020054"/>
<path fill-rule="evenodd" clip-rule="evenodd" d="M10.8506 23.9543C10.5543 23.9543 10.3141 23.7181 10.3141 23.4266V21.4764H9.30051C8.14809 21.4764 7.21386 20.5518 7.21386 19.4113C7.21386 18.2708 8.14809 17.3463 9.30051 17.3463C10.4529 17.3463 11.3872 18.2708 11.3872 19.4113V20.4207H14.7258V19.4113C14.7258 18.2708 15.6601 17.3463 16.8125 17.3463C17.9649 17.3463 18.8991 18.2708 18.8991 19.4113C18.8991 20.5518 17.9649 21.4764 16.8125 21.4764H15.5605V23.4266C15.5605 23.7181 15.3202 23.9543 15.0239 23.9543C14.7276 23.9543 14.4873 23.7181 14.4873 23.4266V21.4763H11.3872V23.4266C11.3872 23.7181 11.147 23.9543 10.8506 23.9543ZM10.314 20.4208V19.4113C10.314 18.8477 9.8541 18.4019 9.30051 18.4019C8.74693 18.4019 8.287 18.8477 8.287 19.4113C8.287 19.9749 8.74693 20.4208 9.30051 20.4208H10.314ZM15.799 19.4113V20.4208H16.8125C17.3661 20.4208 17.826 19.9749 17.826 19.4113C17.826 18.8477 17.3661 18.4019 16.8125 18.4019C16.2589 18.4019 15.799 18.8477 15.799 19.4113Z" fill="#020054"/>
</svg>
