<svg width="14" height="14" viewBox="0 0 14 14" fill="none" xmlns="http://www.w3.org/2000/svg">
<path d="M2.49999 6.45456C2.49999 6.10311 2.81339 5.8182 3.19999 5.8182H3.29999C3.68659 5.8182 3.99999 6.10311 3.99999 6.45456V6.54547C3.99999 6.89693 3.68659 7.18184 3.29999 7.18184H3.19999C2.81339 7.18184 2.49999 6.89693 2.49999 6.54547V6.45456Z" fill="#333333"/>
<path d="M4.99998 6.45456C4.99998 6.10311 5.31338 5.8182 5.69998 5.8182H5.79997C6.18657 5.8182 6.49997 6.10311 6.49997 6.45456V6.54547C6.49997 6.89693 6.18657 7.18184 5.79997 7.18184H5.69998C5.31338 7.18184 4.99998 6.89693 4.99998 6.54547V6.45456Z" fill="#333333"/>
<path d="M8.19996 5.8182C7.81336 5.8182 7.49996 6.10311 7.49996 6.45456V6.54547C7.49996 6.89693 7.81336 7.18184 8.19996 7.18184H8.29996C8.68656 7.18184 8.99996 6.89693 8.99996 6.54547V6.45456C8.99996 6.10311 8.68656 5.8182 8.29996 5.8182H8.19996Z" fill="#333333"/>
<path d="M10 6.45456C10 6.10311 10.3134 5.8182 10.7 5.8182H10.8C11.1866 5.8182 11.5 6.10311 11.5 6.45456V6.54547C11.5 6.89693 11.1866 7.18184 10.8 7.18184H10.7C10.3134 7.18184 10 6.89693 10 6.54547V6.45456Z" fill="#333333"/>
<path d="M3.19999 8.09092C2.81339 8.09092 2.49999 8.37583 2.49999 8.72728V8.81819C2.49999 9.16964 2.81339 9.45455 3.19999 9.45455H3.29999C3.68659 9.45455 3.99999 9.16964 3.99999 8.81819V8.72728C3.99999 8.37582 3.68659 8.09092 3.29999 8.09092H3.19999Z" fill="#333333"/>
<path d="M4.99998 8.72728C4.99998 8.37583 5.31338 8.09092 5.69998 8.09092H5.79997C6.18657 8.09092 6.49997 8.37582 6.49997 8.72728V8.81819C6.49997 9.16964 6.18657 9.45455 5.79997 9.45455H5.69998C5.31338 9.45455 4.99998 9.16964 4.99998 8.81819V8.72728Z" fill="#333333"/>
<path d="M8.19996 8.09092C7.81336 8.09092 7.49996 8.37583 7.49996 8.72728V8.81819C7.49996 9.16964 7.81336 9.45455 8.19996 9.45455H8.29996C8.68656 9.45455 8.99996 9.16964 8.99996 8.81819V8.72728C8.99996 8.37582 8.68656 8.09092 8.29996 8.09092H8.19996Z" fill="#333333"/>
<path d="M10 8.72728C10 8.37583 10.3134 8.09092 10.7 8.09092H10.8C11.1866 8.09092 11.5 8.37582 11.5 8.72728V8.81819C11.5 9.16964 11.1866 9.45455 10.8 9.45455H10.7C10.3134 9.45455 10 9.16964 10 8.81819V8.72728Z" fill="#333333"/>
<path d="M3.19999 10.3636C2.81339 10.3636 2.49999 10.6485 2.49999 11V11.0909C2.49999 11.4424 2.81339 11.7273 3.19999 11.7273H3.29999C3.68659 11.7273 3.99999 11.4424 3.99999 11.0909V11C3.99999 10.6485 3.68659 10.3636 3.29999 10.3636H3.19999Z" fill="#333333"/>
<path d="M4.99998 11C4.99998 10.6485 5.31338 10.3636 5.69998 10.3636H5.79997C6.18657 10.3636 6.49997 10.6485 6.49997 11V11.0909C6.49997 11.4424 6.18657 11.7273 5.79997 11.7273H5.69998C5.31338 11.7273 4.99998 11.4424 4.99998 11.0909V11Z" fill="#333333"/>
<path d="M8.19996 10.3636C7.81336 10.3636 7.49996 10.6485 7.49996 11V11.0909C7.49996 11.4424 7.81336 11.7273 8.19996 11.7273H8.29996C8.68656 11.7273 8.99996 11.4424 8.99996 11.0909V11C8.99996 10.6485 8.68656 10.3636 8.29996 10.3636H8.19996Z" fill="#333333"/>
<path d="M10 11C10 10.6485 10.3134 10.3636 10.7 10.3636H10.8C11.1866 10.3636 11.5 10.6485 11.5 11V11.0909C11.5 11.4424 11.1866 11.7273 10.8 11.7273H10.7C10.3134 11.7273 10 11.4424 10 11.0909V11Z" fill="#333333"/>
<path fill-rule="evenodd" clip-rule="evenodd" d="M4.2 0H2.8V1.27273H2.1C1.08518 1.27273 0.238482 1.92713 0.0426645 2.79707C0.0146907 2.92135 0 3.05003 0 3.18182V12.0909C0 13.1453 0.940202 14 2.1 14H11.9C13.0598 14 14 13.1453 14 12.0909V3.18182C14 2.12746 13.0598 1.27273 11.9 1.27273H11.2V0H9.8V1.27273H4.2V0ZM9.8 1.27273V2.54545H11.2V1.27273H9.8ZM4.2 1.27273V2.54545H2.8V1.27273H4.2ZM12.6 4.45455H1.4V12.0909C1.4 12.4424 1.7134 12.7273 2.1 12.7273H11.9C12.2866 12.7273 12.6 12.4424 12.6 12.0909V4.45455Z" fill="#333333"/>
</svg>
