<svg width="18" height="18" viewBox="0 0 18 18" fill="none" xmlns="http://www.w3.org/2000/svg">
<path fill-rule="evenodd" clip-rule="evenodd" d="M16 1.50314H15V0H13.5V1.50314H4.5V0H3V1.50314H2C0.89 1.50314 0.01 2.31314 0.01 3.30314L0 16.2C0 17.19 0.89 18 2 18H16C17.1 18 18 17.19 18 16.2V3.30314C18 2.31314 17.1 1.50314 16 1.50314ZM1.5 6.75H16.5V15.75C16.5 16.1642 16.1642 16.5 15.75 16.5H2.25C1.83579 16.5 1.5 16.1642 1.5 15.75V6.75ZM2.25 3H15.75C16.1642 3 16.5 3.33579 16.5 3.75V5.25H1.5V3.75C1.5 3.33579 1.83579 3 2.25 3ZM9.75 9.75H13.5C13.9142 9.75 14.25 10.0858 14.25 10.5V13.5C14.25 13.9142 13.9142 14.25 13.5 14.25H9.75C9.33579 14.25 9 13.9142 9 13.5V10.5C9 10.0858 9.33579 9.75 9.75 9.75Z" fill="#516A93"/>
</svg>
