<svg width="57" height="30" viewBox="0 0 57 30" fill="none" xmlns="http://www.w3.org/2000/svg">
<path fill-rule="evenodd" clip-rule="evenodd" d="M56.9218 9.30322C56.9218 8.62261 56.369 8.06854 55.6872 8.06854C55.0041 8.06854 54.4525 8.62261 54.4525 9.30322V11.9003C54.4525 12.5846 55.0041 13.1387 55.6872 13.1387C56.369 13.1387 56.9218 12.5846 56.9218 11.9003V9.30322ZM50.1265 5.89391C50.1265 5.21207 49.5749 4.65923 48.8759 4.65923C48.1941 4.65923 47.6424 5.21207 47.6424 5.89391V11.9002C47.6424 12.5845 48.1941 13.1386 48.8759 13.1386C49.5749 13.1386 50.1265 12.5845 50.1265 11.9002V5.89391ZM43.3156 1.23345C43.3156 0.550383 42.7628 0 42.0809 0C41.3991 0 40.845 0.550383 40.845 1.23345V14.3665C40.845 15.0532 41.3991 15.6048 42.0809 15.6048C42.7628 15.6048 43.3156 15.0532 43.3156 14.3665V1.23345ZM36.5049 5.89441C36.5049 5.21258 35.9533 4.65974 35.2702 4.65974C34.5872 4.65974 34.0368 5.21258 34.0368 5.89441V11.9007C34.0368 12.585 34.5872 13.1391 35.2702 13.1391C35.9533 13.1391 36.5049 12.585 36.5049 11.9007V5.89441ZM29.6948 9.30397C29.6948 8.62337 29.1445 8.0693 28.4663 8.0693C27.782 8.0693 27.2255 8.62337 27.2255 9.30397V11.9011C27.2255 12.5854 27.782 13.1395 28.4663 13.1395C29.1445 13.1395 29.6948 12.5854 29.6948 11.9011V9.30397ZM22.9012 5.89391C22.9012 5.21207 22.3434 4.65923 21.6603 4.65923C20.9773 4.65923 20.4208 5.21207 20.4208 5.89391V11.9002C20.4208 12.5845 20.9773 13.1386 21.6603 13.1386C22.3434 13.1386 22.9012 12.5845 22.9012 11.9002V5.89391ZM16.0874 1.23345C16.0874 0.550383 15.5334 0 14.8491 0C14.1697 0 13.6107 0.550383 13.6107 1.23345V14.3665C13.6107 15.0532 14.1697 15.6048 14.8491 15.6048C15.5334 15.6048 16.0874 15.0532 16.0874 14.3665V1.23345ZM9.28394 5.89441C9.28394 5.21258 8.72619 4.65974 8.04681 4.65974C7.36252 4.65974 6.80599 5.21258 6.80599 5.89441V11.9007C6.80599 12.585 7.36252 13.1391 8.04681 13.1391C8.72619 13.1391 9.28394 12.585 9.28394 11.9007V5.89441ZM2.47795 9.30397C2.47795 8.62337 1.92143 8.0693 1.23836 8.0693C0.556526 8.0693 0 8.62337 0 9.30397V11.9011C0 12.5854 0.556526 13.1395 1.23836 13.1395C1.92143 13.1395 2.47795 12.5854 2.47795 11.9011V9.30397ZM28.0595 20.0707C27.9833 20.051 26.842 19.7537 25.6258 19.7537C23.3272 19.7537 21.9402 20.997 21.9402 22.846C21.9402 24.4861 23.0987 25.3006 24.4918 25.7404C24.6454 25.792 24.8727 25.8608 25.0225 25.9124C25.6442 26.1065 26.1356 26.3964 26.1356 26.8977C26.1356 27.4579 25.5643 27.8203 24.3235 27.8203C23.2338 27.8203 22.1871 27.5095 21.9647 27.453V29.7307C22.0888 29.7577 23.3321 29.9997 24.6601 29.9997C26.5693 29.9997 28.7548 29.1655 28.7548 26.6814C28.7548 25.4763 28.0165 24.3669 26.3973 23.8509L25.7081 23.6322C25.2977 23.502 24.5643 23.2919 24.5643 22.6899C24.5643 22.2133 25.1085 21.8791 26.1098 21.8791C26.9722 21.8791 28.0214 22.169 28.0595 22.1838V20.0707ZM46.5736 22.2768C48.0503 22.2768 49.1535 23.4415 49.1535 24.8789C49.1535 26.3162 48.0503 27.4809 46.5736 27.4809C45.0907 27.4809 43.9912 26.3162 43.9912 24.8789C43.9912 23.4415 45.0907 22.2768 46.5736 22.2768V22.2768ZM51.7972 24.8796C51.7972 22.0515 49.6129 19.759 46.5723 19.759C43.5292 19.759 41.3449 22.0515 41.3449 24.8796C41.3449 27.7064 43.5292 30.0001 46.5723 30.0001C49.6129 30.0001 51.7972 27.7064 51.7972 24.8796V24.8796ZM12.6692 20.1104C12.4345 20.0441 11.5672 19.759 10.3927 19.759C7.35698 19.759 5.12596 21.9225 5.12596 24.8796C5.12596 28.0652 7.58672 30.0001 10.3927 30.0001C11.5082 30.0001 12.3583 29.736 12.6692 29.6487V26.9927C12.5623 27.0529 11.7465 27.5172 10.5708 27.5172C8.90862 27.5172 7.83611 26.3477 7.83611 24.8796C7.83611 23.3623 8.9553 22.2407 10.5708 22.2407C11.7662 22.2407 12.5697 22.7161 12.6692 22.7677V20.1104ZM38.7202 20.1104C38.4856 20.0441 37.617 19.759 36.445 19.759C33.4043 19.759 31.1758 21.9225 31.1758 24.8796C31.1758 28.0652 33.6378 30.0001 36.445 30.0001C37.5543 30.0001 38.4069 29.736 38.7202 29.6487V26.9927C38.6109 27.0529 37.7951 27.5172 36.6219 27.5172C34.9609 27.5172 33.8884 26.3477 33.8884 24.8796C33.8884 23.3623 35.0076 22.2407 36.6219 22.2407C37.8148 22.2407 38.6207 22.7161 38.7202 22.7677V20.1104ZM16.0987 29.8247H18.5951V19.9326H16.0987V29.8247Z" fill="white"/>
</svg>
