<svg width="36" height="34" viewBox="0 0 36 34" fill="none" xmlns="http://www.w3.org/2000/svg">
<path fill-rule="evenodd" clip-rule="evenodd" d="M2.27406 16.7767C-0.996082 12.9381 -0.721602 7.16732 2.98293 3.65974L3.44004 3.22693C7.26858 -0.398068 13.3109 -0.233059 16.9359 3.59548L17.6103 4.30775C17.6846 4.36983 17.7559 4.43713 17.8237 4.50962L19.7616 6.57993L21.7637 8.69445C21.9085 8.84738 22.0473 9.00384 22.18 9.16354L31.0564 18.6464C31.9538 19.6052 31.9041 21.1099 30.9454 22.0073C29.9866 22.9047 28.4819 22.855 27.5845 21.8962L23.9678 18.0324C23.9493 18.0934 23.9302 18.1543 23.9105 18.2151L28.8337 23.4747C29.7398 24.4427 29.6896 25.9619 28.7216 26.868C27.7536 27.7741 26.2344 27.7239 25.3283 26.7559L21.2147 22.3612L21.0615 22.5062L25.4145 27.1566C26.3206 28.1246 26.2704 29.6438 25.3024 30.5499C24.3344 31.456 22.8152 31.4058 21.9091 30.4378L16.7596 24.9365C16.6804 24.9568 16.601 24.9761 16.5215 24.9944L20.3282 29.0612C21.2342 30.0292 21.184 31.5485 20.2161 32.4545C19.2481 33.3606 17.7288 33.3104 16.8227 32.3424L2.45117 16.9889C2.3874 16.9208 2.32837 16.8499 2.27406 16.7767Z" fill="#FBAB18"/>
<path fill-rule="evenodd" clip-rule="evenodd" d="M2.96941 16.2235L2.98719 16.2475C3.02144 16.2936 3.05884 16.3386 3.09951 16.382L2.45117 16.9889C2.3874 16.9208 2.32837 16.8499 2.27406 16.7767C-0.996083 12.9381 -0.721602 7.16732 2.98293 3.65974L3.44004 3.22693C7.26858 -0.398068 13.3109 -0.233059 16.9359 3.59548L17.6103 4.30775C17.6846 4.36983 17.7559 4.43713 17.8237 4.50962L19.7616 6.57993L21.7637 8.69445C21.9085 8.84738 22.0473 9.00384 22.18 9.16354L31.0564 18.6464C31.9538 19.6052 31.9041 21.1099 30.9454 22.0073C30.4752 22.4474 29.8737 22.6597 29.277 22.6487C28.6569 22.6373 28.0418 22.3848 27.5845 21.8962L23.9678 18.0324C23.9493 18.0934 23.9302 18.1543 23.9105 18.2151L28.8337 23.4747C28.8431 23.4847 28.8523 23.4948 28.8615 23.5049C29.7387 24.474 29.6796 25.9713 28.7216 26.868C28.1519 27.4013 27.3913 27.6033 26.6771 27.482C26.2871 27.4157 25.9108 27.253 25.5871 26.995C25.4964 26.9228 25.4099 26.8431 25.3283 26.7559L21.2155 22.3621L21.2147 22.3612L21.0615 22.5062L25.4145 27.1566C25.705 27.467 25.8973 27.8341 25.9924 28.2194C26.194 29.0359 25.96 29.9344 25.3024 30.5499C24.3344 31.456 22.8152 31.4058 21.9091 30.4378L16.7596 24.9365C16.6804 24.9568 16.601 24.9761 16.5215 24.9944L20.3282 29.0612C20.7712 29.5345 20.9856 30.1396 20.9759 30.7403C20.9657 31.3683 20.7108 31.9915 20.2161 32.4545C19.2481 33.3606 17.7288 33.3104 16.8227 32.3424L2.45117 16.9889L3.09951 16.382L17.4711 31.7356C18.042 32.3455 18.9993 32.3771 19.6092 31.8062C20.2191 31.2353 20.2507 30.278 19.6798 29.6681L14.8184 24.4746L16.3226 24.1289C16.3948 24.1123 16.4668 24.0948 16.5386 24.0764L17.0483 23.9454L22.5574 29.8309C23.1283 30.4409 24.0856 30.4725 24.6955 29.9016C25.3055 29.3306 25.3371 28.3734 24.7662 27.7635L19.8098 22.4684L21.2526 21.1023L25.9766 26.149C26.5476 26.759 27.5048 26.7906 28.1147 26.2197C28.7247 25.6488 28.7563 24.6915 28.1854 24.0816L22.904 18.4393L23.0659 17.9408C23.0837 17.8857 23.1011 17.8305 23.1178 17.7752L23.5638 16.3013L28.2329 21.2894C28.7951 21.89 29.7378 21.9212 30.3385 21.3589C30.9392 20.7967 30.9703 19.854 30.4081 19.2533L21.5138 9.75128L21.497 9.73112C21.3765 9.58615 21.2505 9.44402 21.1189 9.30502L19.1133 7.18681L17.1754 5.11649C17.1324 5.07052 17.0874 5.02813 17.0409 4.98923L17.0011 4.95598L16.291 4.20605C13.0032 0.733655 7.52301 0.583996 4.05061 3.87178L3.5935 4.30459C0.233779 7.4857 -0.0153883 12.7199 2.95006 16.2008L2.96941 16.2235Z" fill="#FBAB18"/>
<path d="M15.2825 18.6049C16.1886 17.6369 16.1384 16.1176 15.1704 15.2116V15.2116C14.2024 14.3055 12.6832 14.3557 11.7771 15.3237L5.71366 21.8014C4.80758 22.7694 4.85777 24.2886 5.82576 25.1947V25.1947C6.79376 26.1008 8.31299 26.0506 9.21908 25.0826L15.2825 18.6049Z" fill="#00BCEB"/>
<path fill-rule="evenodd" clip-rule="evenodd" d="M6.362 22.4083L12.4254 15.9305C12.9963 15.3206 13.9536 15.289 14.5635 15.8599C15.1734 16.4308 15.2051 17.3881 14.6342 17.998L8.57074 24.4757C7.99982 25.0857 7.04256 25.1173 6.43263 24.5464C5.82271 23.9754 5.79108 23.0182 6.362 22.4083ZM15.1704 15.2116C16.1384 16.1176 16.1886 17.6369 15.2825 18.6049L9.21908 25.0826C8.31299 26.0506 6.79376 26.1008 5.82576 25.1947C4.85777 24.2886 4.80758 22.7694 5.71366 21.8014L11.7771 15.3237C12.6832 14.3557 14.2024 14.3055 15.1704 15.2116Z" fill="#00BCEB"/>
<path d="M20.8308 20.01C21.7369 19.042 21.6867 17.5228 20.7187 16.6167V16.6167C19.7507 15.7106 18.2315 15.7608 17.3254 16.7288L9.18046 25.4303C8.27438 26.3983 8.32457 27.9175 9.29256 28.8236V28.8236C10.2606 29.7297 11.7798 29.6795 12.6859 28.7115L20.8308 20.01Z" fill="#00BCEB"/>
<path fill-rule="evenodd" clip-rule="evenodd" d="M9.8288 26.0372L17.9738 17.3357C18.5447 16.7258 19.5019 16.6941 20.1119 17.2651C20.7218 17.836 20.7534 18.7932 20.1825 19.4032L12.0375 28.1047C11.4666 28.7146 10.5094 28.7462 9.89943 28.1753C9.2895 27.6044 9.25788 26.6471 9.8288 26.0372ZM20.7187 16.6167C21.6867 17.5228 21.7369 19.042 20.8308 20.01L12.6859 28.7115C11.7798 29.6795 10.2606 29.7297 9.29256 28.8236C8.32457 27.9175 8.27438 26.3983 9.18046 25.4303L17.3254 16.7288C18.2315 15.7608 19.7507 15.7106 20.7187 16.6167Z" fill="#00BCEB"/>
<path d="M21.5049 26.6242C22.411 25.6562 22.3608 24.1369 21.3928 23.2309V23.2309C20.4248 22.3248 18.9056 22.375 17.9995 23.343L12.7526 28.9484C11.8465 29.9164 11.8967 31.4356 12.8647 32.3417V32.3417C13.8327 33.2478 15.3519 33.1976 16.258 32.2296L21.5049 26.6242Z" fill="#00BCEB"/>
<path fill-rule="evenodd" clip-rule="evenodd" d="M13.4009 29.5552L18.6478 23.9498C19.2187 23.3399 20.176 23.3083 20.7859 23.8792C21.3959 24.4501 21.4275 25.4074 20.8566 26.0173L15.6097 31.6227C15.0387 32.2326 14.0815 32.2643 13.4716 31.6933C12.8616 31.1224 12.83 30.1652 13.4009 29.5552ZM21.3928 23.2309C22.3608 24.1369 22.411 25.6562 21.5049 26.6242L16.258 32.2296C15.3519 33.1976 13.8327 33.2478 12.8647 32.3417C11.8967 31.4356 11.8465 29.9164 12.7526 28.9484L17.9995 23.343C18.9056 22.375 20.4248 22.3248 21.3928 23.2309Z" fill="#00BCEB"/>
<path d="M9.45249 17.5581C10.3499 16.5993 10.3002 15.0946 9.34146 14.1972V14.1972C8.38273 13.2998 6.87803 13.3495 5.98062 14.3083L2.46437 18.0648C1.56696 19.0235 1.61667 20.5282 2.57539 21.4256V21.4256C3.53412 22.323 5.03882 22.2733 5.93623 21.3146L9.45249 17.5581Z" fill="#00BCEB"/>
<path fill-rule="evenodd" clip-rule="evenodd" d="M3.1127 18.6717L6.62896 14.9151C7.19121 14.3145 8.13393 14.2833 8.73459 14.8456C9.33525 15.4078 9.36639 16.3505 8.80415 16.9512L5.28789 20.7077C4.72565 21.3084 3.78293 21.3395 3.18227 20.7773C2.5816 20.215 2.55046 19.2723 3.1127 18.6717ZM9.34146 14.1972C10.3002 15.0946 10.3499 16.5993 9.45249 17.5581L5.93623 21.3146C5.03882 22.2733 3.53412 22.323 2.57539 21.4256C1.61667 20.5282 1.56696 19.0235 2.46437 18.0648L5.98062 14.3083C6.87803 13.3495 8.38273 13.2998 9.34146 14.1972Z" fill="#00BCEB"/>
<path fill-rule="evenodd" clip-rule="evenodd" d="M33.2145 4.24175C36.5671 7.82149 36.383 13.4413 32.8033 16.7939L30.1541 19.2751L20.0289 8.46407L16.4796 12.2559C15.5691 13.2287 14.0423 13.2791 13.0696 12.3686C12.0968 11.458 12.0464 9.93127 12.9569 8.95851L16.7234 4.93465L16.6722 4.87997L19.3214 2.39884C22.9011 -0.953806 28.5209 -0.769709 31.8736 2.81003L33.2145 4.24175Z" fill="#00BCEB"/>
<path fill-rule="evenodd" clip-rule="evenodd" d="M30.1541 19.2751L32.8033 16.7939C36.383 13.4413 36.5671 7.82149 33.2145 4.24175L31.8736 2.81003C28.5209 -0.769709 22.9011 -0.953806 19.3214 2.39884L16.6722 4.87997L16.7234 4.93465L12.9569 8.95851C12.0464 9.93127 12.0968 11.458 13.0696 12.3686C14.0423 13.2791 15.5691 13.2287 16.4796 12.2559L20.0289 8.46407L30.1541 19.2751ZM17.9274 4.92109L17.94 4.93448L13.6052 9.56538C13.0299 10.1801 13.0617 11.1448 13.6764 11.7202C14.2911 12.2956 15.2559 12.2637 15.8313 11.649L20.0287 7.16475L30.1952 18.0199L32.1962 16.1458C35.418 13.1284 35.5837 8.07057 32.5663 4.8488L31.2254 3.41708C28.208 0.195316 23.1502 0.0296283 19.9284 3.04701L17.9274 4.92109Z" fill="#00BCEB"/>
</svg>
