<svg width="16" height="16" viewBox="0 0 16 16" fill="none" xmlns="http://www.w3.org/2000/svg">
<path fill-rule="evenodd" clip-rule="evenodd" d="M13.3333 0C14.8061 0 16 1.19391 16 2.66667V13.3333C16 14.8061 14.8061 16 13.3333 16H2.66667C1.19391 16 0 14.8061 0 13.3333V2.66667C0 1.19391 1.19391 0 2.66667 0H13.3333ZM13.3332 1.33333H2.6665C1.96359 1.33333 1.38772 1.87725 1.33683 2.56716L1.33317 2.66666V13.3333C1.33317 14.0362 1.87709 14.6121 2.56699 14.663L2.6665 14.6667H13.3332C14.0361 14.6667 14.6119 14.1227 14.6628 13.4328L14.6665 13.3333V2.66666C14.6665 1.96376 14.1226 1.38789 13.4327 1.33699L13.3332 1.33333ZM3.99983 7.33333H11.9998C12.368 7.33333 12.6665 7.63181 12.6665 8C12.6665 8.36819 12.368 8.66667 11.9998 8.66667H3.99983C3.63164 8.66667 3.33317 8.36819 3.33317 8C3.33317 7.63181 3.63164 7.33333 3.99983 7.33333Z" fill="#059FD9"/>
</svg>
