<svg width="13" height="17" viewBox="0 0 13 17" fill="none" xmlns="http://www.w3.org/2000/svg">
<path fill-rule="evenodd" clip-rule="evenodd" d="M8.3316 0.414932L12.4601 4.5434C12.7257 4.80908 12.875 5.16941 12.875 5.54514V15.5833C12.875 16.3657 12.2407 17 11.4583 17H1.54167C0.759263 17 0.125 16.3657 0.125 15.5833V1.41667C0.125 0.634263 0.759263 0 1.54167 0H7.32986C7.70559 0 8.06592 0.149256 8.3316 0.414932Z" fill="white"/>
<path fill-rule="evenodd" clip-rule="evenodd" d="M7.29535 1.5H1.625V15.5H11.375V5.57965L7.29535 1.5ZM11.3994 5.60406C11.3994 5.60401 11.3993 5.60395 11.3992 5.60389L11.3994 5.60406ZM12.4601 4.5434L8.3316 0.414932C8.06592 0.149256 7.70559 0 7.32986 0H1.54167C0.759263 0 0.125 0.634263 0.125 1.41667V15.5833C0.125 16.3657 0.759263 17 1.54167 17H11.4583C12.2407 17 12.875 16.3657 12.875 15.5833V5.54514C12.875 5.16941 12.7257 4.80908 12.4601 4.5434Z" fill="#059FD9"/>
<path d="M6.14583 6.37508C5.37531 6.37508 4.62209 6.60357 3.98143 7.03165C3.34076 7.45973 2.84142 8.06817 2.54655 8.78004C2.25169 9.49191 2.17454 10.2752 2.32486 11.031C2.47518 11.7867 2.84622 12.4808 3.39107 13.0257C3.93591 13.5705 4.63008 13.9416 5.3858 14.0919C6.14151 14.2422 6.92484 14.1651 7.63671 13.8702C8.34858 13.5753 8.95702 13.076 9.3851 12.4353C9.81318 11.7947 10.0417 11.0414 10.0417 10.2709H6.14583V6.37508Z" fill="#059FD9"/>
<path d="M10.75 9.56258C10.75 9.05097 10.6492 8.54437 10.4534 8.07171C10.2577 7.59905 9.9707 7.16957 9.60894 6.80781C9.24718 6.44605 8.8177 6.15908 8.34504 5.9633C7.87237 5.76752 7.36578 5.66675 6.85417 5.66675V9.56258H10.75Z" fill="#059FD9"/>
<path fill-rule="evenodd" clip-rule="evenodd" d="M6.85417 5.66675C6.95164 5.66675 7.04893 5.67041 7.14583 5.67768C7.38528 5.69566 7.6224 5.73572 7.85417 5.79728C8.02094 5.84157 8.18493 5.89698 8.34504 5.9633C8.8177 6.15908 9.24718 6.44605 9.60894 6.80781C9.9707 7.16957 10.2577 7.59905 10.4534 8.07171C10.5198 8.23182 10.5752 8.39581 10.6195 8.56258C10.681 8.79435 10.7211 9.03147 10.7391 9.27091C10.7463 9.36782 10.75 9.46511 10.75 9.56258H6.85417V5.66675ZM7.85417 8.56258V6.84489C7.89048 6.85825 7.92655 6.87235 7.96236 6.88718C8.31369 7.03271 8.63293 7.24601 8.90183 7.51492C9.17073 7.78382 9.38404 8.10306 9.52957 8.45439C9.5444 8.4902 9.5585 8.52627 9.57186 8.56258H7.85417ZM5.14583 6.50561C4.73359 6.6151 4.33989 6.79213 3.98143 7.03165C3.34076 7.45973 2.84142 8.06817 2.54655 8.78004C2.25169 9.49191 2.17454 10.2752 2.32486 11.031C2.47518 11.7867 2.84622 12.4808 3.39107 13.0257C3.93591 13.5705 4.63008 13.9416 5.3858 14.0919C6.14151 14.2422 6.92484 14.1651 7.63671 13.8702C8.34858 13.5753 8.95702 13.076 9.3851 12.4353C9.62462 12.0769 9.80165 11.6832 9.91114 11.2709C9.97256 11.0397 10.0127 10.8026 10.0307 10.5626C10.038 10.4658 10.0417 10.3685 10.0417 10.2709H6.14583V6.37508C6.04827 6.37508 5.95098 6.37874 5.85417 6.38601C5.61418 6.40403 5.37709 6.44419 5.14583 6.50561ZM5.14583 7.55322C4.93247 7.63173 4.72801 7.73549 4.537 7.86312C4.06078 8.18132 3.68961 8.63358 3.47043 9.16273C3.25126 9.69187 3.19391 10.2741 3.30564 10.8359C3.41738 11.3976 3.69318 11.9136 4.09817 12.3186C4.50316 12.7236 5.01915 12.9994 5.58089 13.1111C6.14262 13.2228 6.72488 13.1655 7.25402 12.9463C7.78317 12.7271 8.23543 12.356 8.55363 11.8798C8.68126 11.6887 8.78502 11.4843 8.86353 11.2709H5.14583V7.55322Z" fill="#059FD9"/>
</svg>
