<svg width="42" height="40" viewBox="0 0 42 40" fill="none" xmlns="http://www.w3.org/2000/svg">
<path d="M7 24H35V34.5366C35 37.5539 28.732 40 21 40C13.268 40 7 37.5539 7 34.5366V24Z" fill="#2882DD"/>
<path d="M0.4714 21.2734L19.0858 13.3897C20.3126 12.8701 21.6874 12.8701 22.9142 13.3897L41.5286 21.2734C41.9162 21.4375 42.1019 21.896 41.9433 22.2973C41.8663 22.4922 41.7169 22.6469 41.5286 22.7266L22.9142 30.6103C21.6874 31.1299 20.3126 31.1299 19.0858 30.6103L0.4714 22.7266C0.0837687 22.5625 -0.101917 22.104 0.0566595 21.7027C0.133683 21.5078 0.283121 21.3531 0.4714 21.2734Z" fill="#3399FF"/>
<path fill-rule="evenodd" clip-rule="evenodd" d="M31.25 0C31.8023 0 32.25 0.459195 32.25 1.02564V10.9744C32.25 11.5408 31.8023 12 31.25 12C30.6977 12 30.25 11.5408 30.25 10.9744V1.02564C30.25 0.459195 30.6977 0 31.25 0ZM6.875 3.5C7.42728 3.5 7.875 3.9592 7.875 4.52564V9.07692C7.875 9.64337 7.42728 10.1026 6.875 10.1026C6.32272 10.1026 5.875 9.64337 5.875 9.07692V4.52564C5.875 3.9592 6.32272 3.5 6.875 3.5ZM2 6C2.55228 6 3 6.4592 3 7.02564V9.07692C3 9.64337 2.55228 10.1026 2 10.1026C1.44772 10.1026 1 9.64337 1 9.07692V7.02564C1 6.4592 1.44772 6 2 6ZM21.5 6C22.0523 6 22.5 6.4592 22.5 7.02564V9.07692C22.5 9.64337 22.0523 10.1026 21.5 10.1026C20.9477 10.1026 20.5 9.64337 20.5 9.07692V7.02564C20.5 6.4592 20.9477 6 21.5 6ZM42 7.02564C42 6.4592 41.5523 6 41 6C40.4477 6 40 6.4592 40 7.02564V9.07692C40 9.64337 40.4477 10.1026 41 10.1026C41.5523 10.1026 42 9.64337 42 9.07692V7.02564ZM17.625 4.52564C17.625 3.9592 17.1773 3.5 16.625 3.5C16.0727 3.5 15.625 3.9592 15.625 4.52564V9.07692C15.625 9.64337 16.0727 10.1026 16.625 10.1026C17.1773 10.1026 17.625 9.64337 17.625 9.07692V4.52564ZM26.375 3.5C26.9273 3.5 27.375 3.9592 27.375 4.52564V9.07692C27.375 9.64337 26.9273 10.1026 26.375 10.1026C25.8227 10.1026 25.375 9.64337 25.375 9.07692V4.52564C25.375 3.9592 25.8227 3.5 26.375 3.5ZM37.125 4.52564C37.125 3.9592 36.6773 3.5 36.125 3.5C35.5727 3.5 35.125 3.9592 35.125 4.52564V9.07692C35.125 9.64337 35.5727 10.1026 36.125 10.1026C36.6773 10.1026 37.125 9.64337 37.125 9.07692V4.52564ZM12.75 1.02564C12.75 0.459195 12.3023 0 11.75 0C11.1977 0 10.75 0.459195 10.75 1.02564V10.9744C10.75 11.5408 11.1977 12 11.75 12C12.3023 12 12.75 11.5408 12.75 10.9744V1.02564Z" fill="#005073"/>
</svg>
