<svg width="12" height="12" viewBox="0 0 12 12" fill="none" xmlns="http://www.w3.org/2000/svg">
<path fill-rule="evenodd" clip-rule="evenodd" d="M0.374891 12C0.27664 12 0.18064 11.9609 0.109389 11.8896C0.019388 11.7994 -0.0188623 11.6687 0.00888792 11.5441L0.630644 8.68142C0.645644 8.61081 0.680894 8.54621 0.731145 8.49513L8.65947 0.555476C9.39748 -0.185159 10.6882 -0.185159 11.4262 0.555476C11.796 0.925042 12 1.4178 12 1.94135C12 2.4649 11.796 2.9569 11.4262 3.32722L3.49867 11.2669C3.44842 11.3172 3.38392 11.3525 3.31342 11.3683L0.454392 11.991C0.428142 11.997 0.401142 12 0.374891 12Z" fill="#119DD9"/>
</svg>
