<svg width="16" height="16" viewBox="0 0 16 16" fill="none" xmlns="http://www.w3.org/2000/svg">
<path fill-rule="evenodd" clip-rule="evenodd" d="M16 2.66667C16 1.19391 14.8061 0 13.3333 0H2.66667C1.19391 0 0 1.19391 0 2.66667V13.3333C0 14.8061 1.19391 16 2.66667 16H13.3333C14.8061 16 16 14.8061 16 13.3333V2.66667ZM2.6665 1.33333H13.3332L13.4327 1.33699C14.1226 1.38789 14.6665 1.96376 14.6665 2.66666V13.3333L14.6628 13.4328C14.6119 14.1227 14.0361 14.6667 13.3332 14.6667H2.6665L2.56699 14.663C1.87709 14.6121 1.33317 14.0362 1.33317 13.3333V2.66666L1.33683 2.56716C1.38772 1.87725 1.96359 1.33333 2.6665 1.33333ZM7.99983 3.33333C8.36802 3.33333 8.6665 3.63181 8.6665 4V7.33333H11.9998C12.368 7.33333 12.6665 7.63181 12.6665 8C12.6665 8.36819 12.368 8.66666 11.9998 8.66666H8.6665V12C8.6665 12.3682 8.36802 12.6667 7.99983 12.6667C7.63164 12.6667 7.33317 12.3682 7.33317 12V8.66666H3.99983C3.63164 8.66666 3.33317 8.36819 3.33317 8C3.33317 7.63181 3.63164 7.33333 3.99983 7.33333H7.33317V4C7.33317 3.63181 7.63164 3.33333 7.99983 3.33333Z" fill="#059FD9"/>
</svg>
