<svg width="20" height="20" viewBox="0 0 20 20" fill="none" xmlns="http://www.w3.org/2000/svg">
<path fill-rule="evenodd" clip-rule="evenodd" d="M10.076 13.7524C10.7218 13.7916 11.2308 14.3169 11.2495 14.9635C11.2694 15.6541 10.7261 16.2296 10.0362 16.2495C9.34637 16.2694 8.7705 15.7265 8.7506 15.0365C8.7494 14.9991 8.75 14.9617 8.75241 14.9243C8.79462 14.2349 9.38678 13.7102 10.076 13.7524ZM8.20727 7.56655C8.20727 7.66025 8.16483 7.68702 8.07597 7.68445H7.21731H6.33969C6.28827 7.68445 6.24583 7.68444 6.25033 7.60722C6.25482 6.99151 6.37912 6.38403 6.61675 5.81928C6.93526 5.11347 7.48539 4.54563 8.16982 4.2177C9.27809 3.66479 10.5566 3.59941 11.7128 4.03597C12.54 4.31036 13.2059 4.95131 13.5289 5.78324C13.7211 6.30681 13.7895 6.87104 13.7281 7.42807C13.6682 8.11328 13.3622 8.75011 12.8695 9.21395C12.4941 9.58874 12.0907 9.93984 11.6963 10.2909C11.3878 10.5288 11.1452 10.8454 10.9924 11.2104C10.8981 11.4951 10.8456 11.7942 10.8377 12.0959C10.8377 12.2045 10.8212 12.3111 10.8162 12.4176C10.8162 12.4732 10.7977 12.5 10.7393 12.5H9.18324C9.13432 12.5 9.10836 12.4851 9.11085 12.4295C9.10087 11.9054 9.15279 11.3823 9.26561 10.8716C9.41837 10.3388 9.71441 9.86262 10.1198 9.4971C10.4667 9.16556 10.8117 8.83196 11.1427 8.48086C11.4212 8.1905 11.6109 7.8219 11.6868 7.42086C11.8161 6.74079 11.5675 6.23782 10.936 6.00101C10.327 5.7611 9.64951 5.78736 9.05893 6.07308C8.65756 6.27334 8.37051 6.65585 8.28265 7.10631C8.2477 7.25766 8.22274 7.41159 8.20727 7.56655ZM10 0C4.47745 0 0 4.47702 0 10C0 15.5226 4.47745 20 10 20C15.523 20 20 15.5226 20 10C20 4.47702 15.523 0 10 0Z" fill="white"/>
</svg>
