<svg width="15" height="15" viewBox="0 0 15 15" fill="none" xmlns="http://www.w3.org/2000/svg">
<path fill-rule="evenodd" clip-rule="evenodd" d="M0 7.5C0 11.642 3.35795 15 7.5 15C11.642 15 15 11.642 15 7.5C15 3.35761 11.642 0 7.5 0C3.35795 0 0 3.35761 0 7.5ZM7.5 5.625C8.01777 5.625 8.4375 6.04473 8.4375 6.5625V11.5625C8.4375 12.0803 8.01777 12.5 7.5 12.5C6.98223 12.5 6.5625 12.0803 6.5625 11.5625V6.5625C6.5625 6.04473 6.98223 5.625 7.5 5.625ZM6.5625 3.43736C6.5625 2.91964 6.98235 2.5 7.5 2.5C8.01765 2.5 8.4375 2.91964 8.4375 3.43736C8.4375 3.95536 8.01765 4.375 7.5 4.375C6.98235 4.375 6.5625 3.95536 6.5625 3.43736Z" fill="#AEB8C1"/>
</svg>
