<svg width="18" height="23" viewBox="0 0 18 23" fill="none" xmlns="http://www.w3.org/2000/svg">
<path fill-rule="evenodd" clip-rule="evenodd" d="M0.879656 1.37868C1.44227 0.81607 2.20533 0.5 3.00098 0.5H11.001C11.2662 0.5 11.5205 0.605357 11.7081 0.792893L17.7081 6.79289C17.8956 6.98043 18.001 7.23478 18.001 7.5V19.5C18.001 20.2957 17.6849 21.0587 17.1223 21.6213C16.5597 22.1839 15.7966 22.5 15.001 22.5H3.00098C2.20533 22.5 1.44226 22.1839 0.879656 21.6213C0.317047 21.0587 0.000976562 20.2957 0.000976562 19.5V3.5C0.000976562 2.70435 0.317047 1.94129 0.879656 1.37868ZM3.00098 2.5C2.73576 2.5 2.48141 2.60536 2.29387 2.79289C2.10633 2.98043 2.00098 3.23478 2.00098 3.5V19.5C2.00098 19.7652 2.10633 20.0196 2.29387 20.2071C2.48141 20.3946 2.73576 20.5 3.00098 20.5H15.001C15.2662 20.5 15.5205 20.3946 15.7081 20.2071C15.8956 20.0196 16.001 19.7652 16.001 19.5V8.5H11.001C10.4487 8.5 10.001 8.05228 10.001 7.5V2.5H3.00098ZM12.001 3.91421L14.5868 6.5H12.001V3.91421ZM5.00098 14.5C5.00098 13.9477 5.44869 13.5 6.00098 13.5H12.001C12.5533 13.5 13.001 13.9477 13.001 14.5C13.001 15.0523 12.5533 15.5 12.001 15.5H6.00098C5.44869 15.5 5.00098 15.0523 5.00098 14.5Z" fill="white"/>
</svg>
