<svg width="60" height="54" viewBox="0 0 60 54" fill="none" xmlns="http://www.w3.org/2000/svg">
<path d="M13.5828 6.38388C13.5828 8.66736 11.7317 10.5185 9.44818 10.5185C7.16471 10.5185 5.31358 8.66736 5.31358 6.38388C5.31358 4.10041 7.16471 2.24929 9.44818 2.24929C11.7317 2.24929 13.5828 4.10041 13.5828 6.38388Z" fill="#2CDAFF"/>
<path d="M53.9246 11.0256C56.9692 11.0256 59.4374 8.55743 59.4374 5.5128C59.4374 2.46816 56.9692 0 53.9246 0C50.88 0 48.4118 2.46816 48.4118 5.5128C48.4118 8.55743 50.88 11.0256 53.9246 11.0256Z" fill="#2CDAFF"/>
<path d="M4.1346 27.3607C6.41808 27.3607 8.2692 25.5096 8.2692 23.2261C8.2692 20.9426 6.41808 19.0915 4.1346 19.0915C1.85112 19.0915 0 20.9426 0 23.2261C0 25.5096 1.85112 27.3607 4.1346 27.3607Z" fill="#2CDAFF"/>
<circle cx="34.4779" cy="29.8322" r="19.7467" fill="#2CDAFF"/>
<path d="M45.1351 43.6236C45.1351 43.6236 45.1351 26.9195 45.1351 23.2277C45.1351 23.2277 20.1024 23.1412 16.1649 23.0212M1.88037 43.6236V22.9365C2.74038 22.9365 9.81257 23.0211 9.81257 23.0211" stroke="black" stroke-width="1.2" stroke-linecap="round" stroke-linejoin="round"/>
<path d="M1.88031 32.3396C1.88031 32.3396 1.88031 49.0437 1.88031 52.7355C1.88031 52.7355 26.9129 52.8219 30.8505 52.9419M45.135 32.3396L45.135 53.0266C44.275 53.0266 37.2028 52.942 37.2028 52.942" stroke="black" stroke-width="1.2" stroke-linecap="round" stroke-linejoin="round"/>
<rect x="5.78174" y="28.9895" width="7.10428" height="5.15329" fill="black" stroke="black"/>
<rect x="17.6282" y="28.4895" width="8.10428" height="6.15329" fill="black"/>
</svg>
