<svg width="60" height="52" viewBox="0 0 60 52" fill="none" xmlns="http://www.w3.org/2000/svg">
<path d="M13.5163 6.35265C13.5163 8.62496 11.6743 10.467 9.40196 10.467C7.12965 10.467 5.28759 8.62496 5.28759 6.35265C5.28759 4.08035 7.12965 2.23828 9.40196 2.23828C11.6743 2.23828 13.5163 4.08035 13.5163 6.35265Z" fill="#2CDAFF"/>
<path d="M53.6608 10.9717C56.6905 10.9717 59.1466 8.51557 59.1466 5.48583C59.1466 2.45609 56.6905 0 53.6608 0C50.6311 0 48.175 2.45609 48.175 5.48583C48.175 8.51557 50.6311 10.9717 53.6608 10.9717Z" fill="#2CDAFF"/>
<path d="M4.11437 27.2269C6.38668 27.2269 8.22874 25.3848 8.22874 23.1125C8.22874 20.8402 6.38668 18.9981 4.11437 18.9981C1.84207 18.9981 0 20.8402 0 23.1125C0 25.3848 1.84207 27.2269 4.11437 27.2269Z" fill="#2CDAFF"/>
<circle cx="34.3095" cy="29.6862" r="19.6501" fill="#2CDAFF"/>
<path d="M15.5172 19.6555C15.5172 19.6555 5.44961 19.6555 3.22454 19.6555C3.22454 19.6555 3.17243 37.7374 3.10012 40.5817M15.5172 50.8999L3.04907 50.8999C3.04907 50.2787 3.10007 45.1702 3.10007 45.1702" stroke="black" stroke-width="1.2" stroke-linecap="round" stroke-linejoin="round"/>
<path d="M34.4225 19.6555C34.4225 19.6555 24.3549 19.6555 22.1298 19.6555C22.1298 19.6555 22.0777 37.7374 22.0054 40.5817M34.4225 50.8999L21.9543 50.8999C21.9543 50.2787 22.0053 45.1702 22.0053 45.1702" stroke="black" stroke-width="1.2" stroke-linecap="round" stroke-linejoin="round"/>
<path d="M53.9684 19.6555C53.9684 19.6555 43.9008 19.6555 41.6757 19.6555C41.6757 19.6555 41.6236 37.7374 41.5513 40.5817M53.9684 50.8999L41.5002 50.8999C41.5002 50.2787 41.5512 45.1702 41.5512 45.1702" stroke="black" stroke-width="1.2" stroke-linecap="round" stroke-linejoin="round"/>
<path d="M13.0465 50.9002C13.0465 50.9002 15.5585 50.9002 16.1137 50.9002C16.1137 50.9002 16.1267 32.8182 16.1447 29.974M13.0465 19.6558L16.1575 19.6558C16.1575 20.277 16.1447 25.3855 16.1447 25.3855" stroke="black" stroke-width="1.2" stroke-linecap="round" stroke-linejoin="round"/>
<path d="M31.9518 50.9002C31.9518 50.9002 34.4638 50.9002 35.019 50.9002C35.019 50.9002 35.032 32.8182 35.05 29.974M31.9518 19.6558L35.0627 19.6558C35.0627 20.277 35.05 25.3855 35.05 25.3855" stroke="black" stroke-width="1.2" stroke-linecap="round" stroke-linejoin="round"/>
<path d="M51.4977 50.9002C51.4977 50.9002 54.0097 50.9002 54.5649 50.9002C54.5649 50.9002 54.5779 32.8182 54.5959 29.974M51.4977 19.6558L54.6086 19.6558C54.6086 20.277 54.5959 25.3855 54.5959 25.3855" stroke="black" stroke-width="1.2" stroke-linecap="round" stroke-linejoin="round"/>
<rect x="6.23511" y="25.3391" width="7.06463" height="3.7755" fill="black" stroke="black"/>
<rect x="25.1404" y="25.3391" width="7.06463" height="3.7755" fill="black" stroke="black"/>
<rect x="25.1404" y="33.3901" width="7.06463" height="3.7755" fill="black" stroke="black"/>
<rect x="25.1404" y="41.4404" width="7.06463" height="3.7755" fill="black" stroke="black"/>
<rect x="44.6863" y="25.3391" width="7.06463" height="3.7755" fill="black" stroke="black"/>
<rect x="44.6863" y="33.3901" width="7.06463" height="3.7755" fill="black" stroke="black"/>
</svg>
