<svg width="32" height="35" viewBox="0 0 32 35" fill="none" xmlns="http://www.w3.org/2000/svg">
<path fill-rule="evenodd" clip-rule="evenodd" d="M30.5174 7.33957C31.701 9.83446 30.6381 12.8165 28.1432 14.0001C26.0821 14.978 24.0397 16.7278 23.3339 18.5034C23.0385 19.2466 22.9456 20.0473 23.2372 21.0466C23.5505 22.1199 24.4022 23.7248 26.5452 25.7811C28.5377 27.6931 28.603 30.8582 26.6911 32.8507C24.7791 34.8432 21.614 34.9085 19.6215 32.9966C16.5978 30.0951 14.571 27.0459 13.6378 23.8485C12.6829 20.577 12.9754 17.4905 14.0411 14.8095C16.0575 9.73688 20.6402 6.49142 23.8568 4.96535C26.3517 3.78171 29.3338 4.84468 30.5174 7.33957Z" fill="#7FC35A"/>
<path fill-rule="evenodd" clip-rule="evenodd" d="M1.48259 7.33957C0.298953 9.83446 1.36193 12.8165 3.85682 14.0001C5.91792 14.978 7.96031 16.7278 8.66613 18.5034C8.96153 19.2466 9.05443 20.0473 8.76276 21.0466C8.44949 22.1199 7.59776 23.7248 5.45481 25.7811C3.46232 27.6931 3.39701 30.8582 5.30893 32.8507C7.22085 34.8432 10.386 34.9085 12.3785 32.9966C15.4022 30.0951 17.429 27.0459 18.3622 23.8485C19.3171 20.577 19.0246 17.4905 17.9589 14.8095C15.9425 9.73688 11.3598 6.49142 8.14315 4.96535C5.64826 3.78171 2.66623 4.84468 1.48259 7.33957Z" fill="#17C0EA"/>
<path fill-rule="evenodd" clip-rule="evenodd" d="M16.6637 27.9569C17.4414 26.6822 18.0213 25.3914 18.4026 24.0853C19.2911 21.0411 19.0185 18.1831 18.0299 15.6959C17.5822 14.5697 16.9967 13.5364 16.3227 12.5956C15.7975 13.3943 15.3377 14.2554 14.9706 15.1789C13.982 17.6661 13.7094 20.524 14.5979 23.5683C15.0308 25.0513 15.7198 26.5145 16.6637 27.9569Z" fill="#179555"/>
<path fill-rule="evenodd" clip-rule="evenodd" d="M21.1688 1.14214C21.4278 1.46539 21.3757 1.9374 21.0525 2.19641L17.3025 5.2011C16.9792 5.46011 16.5072 5.40803 16.2482 5.08478C15.9892 4.76153 16.0413 4.28952 16.3646 4.03052L20.1146 1.02582C20.4378 0.766813 20.9098 0.818894 21.1688 1.14214Z" fill="#7FC35A"/>
<path fill-rule="evenodd" clip-rule="evenodd" d="M12.0814 1.14214C11.8224 1.46539 11.8745 1.9374 12.1977 2.19641L15.9478 5.2011C16.271 5.46011 16.743 5.40803 17.002 5.08478C17.261 4.76153 17.2089 4.28952 16.8857 4.03052L13.1357 1.02582C12.8124 0.766813 12.3404 0.818894 12.0814 1.14214Z" fill="#17C0EA"/>
<path fill-rule="evenodd" clip-rule="evenodd" d="M16.6256 3.50134L16.2085 3.83554C15.7775 4.18088 15.708 4.81022 16.0534 5.24122C16.2036 5.42871 16.4076 5.54778 16.6256 5.59405C16.8436 5.54778 17.0475 5.42871 17.1978 5.24122C17.5431 4.81022 17.4737 4.18088 17.0427 3.83554L16.6256 3.50134Z" fill="#179555"/>
</svg>
