<svg width="80" height="72" viewBox="0 0 80 72" fill="none" xmlns="http://www.w3.org/2000/svg">
<path d="M33.42 1.5C33.8049 0.833333 34.7671 0.833333 35.152 1.5L43.3174 15.6429C43.7023 16.3095 43.2212 17.1429 42.4514 17.1429H26.1206C25.3508 17.1429 24.8697 16.3095 25.2546 15.6429L33.42 1.5Z" fill="#059FD9"/>
<path d="M40.8164 2L51.8097 21.0408H29.8232L40.8164 2Z" stroke="black" stroke-width="2"/>
<path d="M1.5 30.2539C0.833332 29.869 0.833333 28.9067 1.5 28.5218L15.6429 20.3564C16.3095 19.9715 17.1429 20.4527 17.1429 21.2225L17.1429 37.5532C17.1429 38.323 16.3095 38.8041 15.6429 38.4192L1.5 30.2539Z" fill="#059FD9"/>
<path d="M2 37.551L21.0408 26.5578L21.0408 48.5442L2 37.551Z" stroke="black" stroke-width="2"/>
<path d="M78.5 30.2539C79.1667 29.869 79.1667 28.9067 78.5 28.5218L64.3571 20.3564C63.6905 19.9715 62.8571 20.4527 62.8571 21.2225L62.8571 37.5532C62.8571 38.323 63.6905 38.8041 64.3571 38.4192L78.5 30.2539Z" fill="#059FD9"/>
<path d="M78 37.551L58.9592 26.5578L58.9592 48.5442L78 37.551Z" stroke="black" stroke-width="2"/>
<line x1="40.1836" y1="22.2245" x2="40.1836" y2="34.9184" stroke="black" stroke-width="2" stroke-linecap="round" stroke-linejoin="round"/>
<path d="M22.041 38.3673C28.0274 37.551 40.1635 39.5102 40.8165 53.8775V70.4387" stroke="black" stroke-width="2" stroke-linecap="round" stroke-linejoin="round"/>
<path d="M57.959 38.3673C54.7413 37.9285 49.747 38.2916 45.7141 40.9524" stroke="black" stroke-width="2" stroke-linecap="round" stroke-linejoin="round"/>
</svg>
