<svg width="16" height="19" viewBox="0 0 16 19" fill="none" xmlns="http://www.w3.org/2000/svg">
<path fill-rule="evenodd" clip-rule="evenodd" d="M7.85547 0.0715332C8.13161 0.0715332 8.35547 0.295391 8.35547 0.571533V2.92868C8.35547 3.20482 8.13161 3.42868 7.85547 3.42868C7.57933 3.42868 7.35547 3.20482 7.35547 2.92868V0.571533C7.35547 0.295391 7.57933 0.0715332 7.85547 0.0715332Z" fill="#98ABC3"/>
<path d="M15.7143 14.7142H0C0.625153 14.7142 1.2247 14.4658 1.66675 14.0238C2.1088 13.5817 2.35714 12.9822 2.35714 12.357V8.42847C2.35714 6.96978 2.93661 5.57083 3.96806 4.53938C4.99951 3.50793 6.39845 2.92847 7.85714 2.92847C9.31583 2.92847 10.7148 3.50793 11.7462 4.53938C12.7777 5.57083 13.3571 6.96978 13.3571 8.42847V12.357C13.3571 12.9822 13.6055 13.5817 14.0475 14.0238C14.4896 14.4658 15.0891 14.7142 15.7143 14.7142ZM9.21643 17.857C9.07829 18.0952 8.88002 18.2928 8.64146 18.4302C8.40291 18.5676 8.13244 18.64 7.85714 18.64C7.58184 18.64 7.31138 18.5676 7.07282 18.4302C6.83427 18.2928 6.63599 18.0952 6.49786 17.857" fill="#98ABC3"/>
</svg>
