<svg width="15" height="16" viewBox="0 0 15 16" fill="none" xmlns="http://www.w3.org/2000/svg">
<path fill-rule="evenodd" clip-rule="evenodd" d="M7.92792 1.93585C11.0364 2.16037 13.4983 4.76257 13.4983 7.9271C13.4983 11.0719 11.0669 13.6614 7.98594 13.9139L8.0194 15.4175C11.9181 15.1462 15 11.8944 15 7.9271C15 3.93208 11.8748 0.662544 7.93746 0.431458L7.92792 1.93585ZM4.91461 13.3526C5.54296 13.6523 6.23114 13.846 6.95584 13.9104L6.98942 15.4193C5.93087 15.3493 4.93205 15.0596 4.03817 14.5955L4.91461 13.3526ZM1.91593 10.1626C1.79331 9.858 1.69496 9.54114 1.6233 9.21443H0.0926909C0.191001 9.78269 0.353257 10.3291 0.571771 10.8461L1.91593 10.1626ZM2.67341 11.5103L1.31725 12.1999C1.76862 12.8506 2.32019 13.4267 2.94957 13.9057L3.81692 12.6756C3.38522 12.3408 3.00018 11.9484 2.67341 11.5103ZM1.72073 6.2568C1.6129 6.62853 1.54012 7.01499 1.50621 7.41234H0C0.0374815 6.85958 0.134871 6.32318 0.285723 5.80957L1.72073 6.2568ZM1.14174 3.91912C1.43312 3.45869 1.77319 3.03208 2.1547 2.64655L3.1115 3.8208C2.94382 3.99954 2.78692 4.1885 2.64184 4.38663L1.14174 3.91912ZM5.35105 2.31433C5.23039 2.36052 5.11158 2.41049 4.99477 2.46411L4.0202 1.26804C4.44496 1.04603 4.89357 0.863471 5.36114 0.725242L5.35105 2.31433ZM10.9378 4.60828L5.98956 9.55651L4.04481 7.61927L2.98608 8.67799L5.98956 11.6815L11.9965 5.67452L10.9378 4.60828Z" fill="#516A93"/>
</svg>
