<svg width="16" height="12" viewBox="0 0 16 12" fill="none" xmlns="http://www.w3.org/2000/svg">
<path fill-rule="evenodd" clip-rule="evenodd" d="M15.3333 0H0.666667C0.298477 0 0 0.298477 0 0.666667C0 1.03486 0.298477 1.33333 0.666667 1.33333H15.3333C15.7015 1.33333 16 1.03486 16 0.666667C16 0.298477 15.7015 0 15.3333 0ZM15.3333 3.33333H0.666667C0.298477 3.33333 0 3.63181 0 4C0 4.36819 0.298477 4.66667 0.666667 4.66667H15.3333C15.7015 4.66667 16 4.36819 16 4C16 3.63181 15.7015 3.33333 15.3333 3.33333ZM0.666667 6.66667H15.3333C15.7015 6.66667 16 6.96514 16 7.33333C16 7.70152 15.7015 8 15.3333 8H0.666667C0.298477 8 0 7.70152 0 7.33333C0 6.96514 0.298477 6.66667 0.666667 6.66667ZM15.3333 10H0.666667C0.298477 10 0 10.2985 0 10.6667C0 11.0349 0.298477 11.3333 0.666667 11.3333H15.3333C15.7015 11.3333 16 11.0349 16 10.6667C16 10.2985 15.7015 10 15.3333 10Z" fill="#059FD9"/>
</svg>
