<svg width="14" height="16" viewBox="0 0 14 16" fill="none" xmlns="http://www.w3.org/2000/svg">
<path fill-rule="evenodd" clip-rule="evenodd" d="M0.63904 0.63904C1.04821 0.229869 1.60316 0 2.18182 0H8C8.19288 0 8.37787 0.0766231 8.51426 0.213013L12.8779 4.57665C13.0143 4.71304 13.0909 4.89802 13.0909 5.09091V13.8182C13.0909 14.3968 12.861 14.9518 12.4519 15.361C12.0427 15.7701 11.4877 16 10.9091 16H2.18182C1.60316 16 1.04821 15.7701 0.63904 15.361C0.229869 14.9518 0 14.3968 0 13.8182V2.18182C0 1.60316 0.229869 1.04821 0.63904 0.63904ZM2.18182 1.45455C1.98893 1.45455 1.80395 1.53117 1.66756 1.66756C1.53117 1.80395 1.45455 1.98893 1.45455 2.18182V13.8182C1.45455 14.0111 1.53117 14.1961 1.66756 14.3324C1.80395 14.4688 1.98893 14.5455 2.18182 14.5455H10.9091C11.102 14.5455 11.287 14.4688 11.4234 14.3324C11.5597 14.1961 11.6364 14.0111 11.6364 13.8182V5.39216L7.69875 1.45455H2.18182Z" fill="#059FD9"/>
<path fill-rule="evenodd" clip-rule="evenodd" d="M8.00071 0C8.40237 0 8.72798 0.325611 8.72798 0.727273V4.36364H12.3643C12.766 4.36364 13.0916 4.68925 13.0916 5.09091C13.0916 5.49257 12.766 5.81818 12.3643 5.81818H8.00071C7.59905 5.81818 7.27344 5.49257 7.27344 5.09091V0.727273C7.27344 0.325611 7.59905 0 8.00071 0Z" fill="#059FD9"/>
<path fill-rule="evenodd" clip-rule="evenodd" d="M2.91016 8.72727C2.91016 8.32561 3.23577 8 3.63743 8H9.45561C9.85727 8 10.1829 8.32561 10.1829 8.72727C10.1829 9.12893 9.85727 9.45455 9.45561 9.45455H3.63743C3.23577 9.45455 2.91016 9.12893 2.91016 8.72727Z" fill="#059FD9"/>
<path fill-rule="evenodd" clip-rule="evenodd" d="M2.91016 11.6365C2.91016 11.2348 3.23577 10.9092 3.63743 10.9092H9.45561C9.85727 10.9092 10.1829 11.2348 10.1829 11.6365C10.1829 12.0381 9.85727 12.3637 9.45561 12.3637H3.63743C3.23577 12.3637 2.91016 12.0381 2.91016 11.6365Z" fill="#059FD9"/>
<path fill-rule="evenodd" clip-rule="evenodd" d="M2.91016 5.81809C2.91016 5.41643 3.23577 5.09082 3.63743 5.09082H5.09197C5.49364 5.09082 5.81925 5.41643 5.81925 5.81809C5.81925 6.21975 5.49364 6.54537 5.09197 6.54537H3.63743C3.23577 6.54537 2.91016 6.21975 2.91016 5.81809Z" fill="#059FD9"/>
</svg>
