<svg width="18" height="18" viewBox="0 0 18 18" fill="none" xmlns="http://www.w3.org/2000/svg">
<path fill-rule="evenodd" clip-rule="evenodd" d="M12.7561 16.2337L11.3614 16.0454L10.3593 16.9701C10.3593 16.9701 10.3593 16.9701 10.3593 16.9701C9.59394 17.6767 8.40954 17.6765 7.64434 16.9703L6.64241 16.0453C6.64238 16.0453 6.64245 16.0453 6.64241 16.0453L5.24739 16.2336C4.25023 16.3682 3.22234 15.7308 3.02116 14.6369L2.79004 13.3796L1.5847 12.7692C1.58468 12.7692 1.58472 12.7693 1.5847 12.7692C0.643941 12.2929 0.203823 11.1317 0.716973 10.1298L1.29571 9L0.716994 7.8702C0.203844 6.86833 0.643888 5.70711 1.58465 5.23077C1.58467 5.23076 1.58463 5.23078 1.58465 5.23077L2.79 4.62044L3.02106 3.36328C3.22219 2.26965 4.2495 1.63185 5.24705 1.76632L6.64207 1.95463C6.64211 1.95464 6.64203 1.95463 6.64207 1.95463L7.64412 1.02987C7.64412 1.02987 7.64412 1.02988 7.64412 1.02987C8.40951 0.323289 9.59391 0.32352 10.3591 1.0297L11.361 1.95467C11.3611 1.95466 11.361 1.95468 11.361 1.95467L12.756 1.76636C12.756 1.76636 12.756 1.76636 12.756 1.76636C13.7534 1.63173 14.7813 2.26929 14.9823 3.36329C14.9823 3.36329 14.9823 3.36328 14.9823 3.36329L15.2134 4.62042L16.4187 5.23074C16.4187 5.23075 16.4187 5.23073 16.4187 5.23074C17.3595 5.70708 17.7996 6.86829 17.2864 7.87016L16.7077 8.99996L17.2864 10.1297C17.7995 11.1315 17.3598 12.2928 16.4188 12.7693C16.4188 12.7693 16.4188 12.7692 16.4188 12.7693L15.2135 13.3796L14.9824 14.6367C14.9824 14.6367 14.9824 14.6367 14.9824 14.6367C14.7813 15.7308 13.7532 16.368 12.7561 16.2337ZM13.5071 14.3656L13.7505 13.0415C13.8281 12.6193 14.1001 12.262 14.4969 12.0611L15.7412 11.431C15.9756 11.3123 16.0679 11.0411 15.9514 10.8136L15.3328 9.60588C15.1355 9.22083 15.1355 8.7791 15.3328 8.39405L15.9514 7.18635C16.0679 6.95884 15.9756 6.68768 15.7412 6.56899L14.4968 5.93893C14.1001 5.73807 13.828 5.38071 13.7504 4.95853L13.507 3.63444C13.4612 3.38501 13.2194 3.21741 12.9567 3.25287L11.562 3.44115C11.1173 3.50122 10.6771 3.3647 10.3542 3.06667L9.34182 2.13202C9.15107 1.95599 8.85229 1.95599 8.6616 2.13202L7.64916 3.06667C7.32634 3.36467 6.88604 3.50122 6.44141 3.44115L5.04666 3.25287C4.78383 3.21744 4.54222 3.38501 4.49635 3.63444L4.25299 4.9585C4.1754 5.38068 3.90331 5.73801 3.50659 5.93893L2.26226 6.56899C2.02784 6.68768 1.93551 6.95884 2.05204 7.18635L2.67067 8.39408C2.8679 8.77916 2.8679 9.22083 2.67067 9.60591L2.05204 10.8136C1.93551 11.0411 2.02784 11.3123 2.26226 11.431L3.50659 12.0611C3.90334 12.2619 4.1754 12.6193 4.25302 13.0415L4.49642 14.3656C4.54229 14.615 4.78412 14.7825 5.04673 14.7471L6.44147 14.5588C6.51034 14.5495 6.57912 14.545 6.64735 14.545C7.01971 14.545 7.37639 14.6815 7.64923 14.9333L8.66164 15.868C8.85238 16.044 9.15117 16.044 9.34185 15.868L10.3543 14.9334C10.6771 14.6354 11.1173 14.4987 11.562 14.5589L12.9568 14.7471C13.2196 14.7825 13.4613 14.615 13.5071 14.3656Z" fill="#B4B4BB"/>
<path fill-rule="evenodd" clip-rule="evenodd" d="M12.5996 5.75385C12.8925 6.04674 12.8925 6.52162 12.5996 6.81451L6.60455 12.8096C6.31166 13.1025 5.83678 13.1025 5.54389 12.8096C5.251 12.5167 5.251 12.0419 5.54389 11.749L11.539 5.75385C11.8319 5.46096 12.3068 5.46096 12.5996 5.75385Z" fill="#B4B4BB"/>
<path fill-rule="evenodd" clip-rule="evenodd" d="M7.07031 6.60889C6.9338 6.60889 6.82031 6.72237 6.82031 6.85889C6.82031 6.9954 6.9338 7.10889 7.07031 7.10889C7.20683 7.10889 7.32031 6.9954 7.32031 6.85889C7.32031 6.72237 7.20683 6.60889 7.07031 6.60889ZM5.32031 6.85889C5.32031 5.89394 6.10537 5.10889 7.07031 5.10889C8.03525 5.10889 8.82031 5.89394 8.82031 6.85889C8.82031 7.82383 8.03525 8.60889 7.07031 8.60889C6.10537 8.60889 5.32031 7.82383 5.32031 6.85889Z" fill="#B4B4BB"/>
<path fill-rule="evenodd" clip-rule="evenodd" d="M11.5352 11.4355C11.3986 11.4355 11.2852 11.549 11.2852 11.6855C11.2852 11.8221 11.3986 11.9355 11.5352 11.9355C11.6717 11.9355 11.7852 11.8221 11.7852 11.6855C11.7852 11.549 11.6717 11.4355 11.5352 11.4355ZM9.78516 11.6855C9.78516 10.7206 10.5702 9.93555 11.5352 9.93555C12.5001 9.93555 13.2852 10.7206 13.2852 11.6855C13.2852 12.6505 12.5001 13.4355 11.5352 13.4355C10.5702 13.4355 9.78516 12.6505 9.78516 11.6855Z" fill="#B4B4BB"/>
</svg>
