<svg width="14" height="18" viewBox="0 0 14 18" fill="none" xmlns="http://www.w3.org/2000/svg">
<path fill-rule="evenodd" clip-rule="evenodd" d="M6.74973 6.54524V4.09077C3.95703 4.09077 1.68743 6.29161 1.68743 8.9997C1.68743 9.82604 1.89836 10.6115 2.27803 11.2905L1.04621 12.485C0.388109 11.4787 0 10.2842 0 8.9997C0 5.38346 3.0205 2.45446 6.74973 2.45446V0L10.1246 3.27262L6.74973 6.54524ZM11.2215 6.70945L12.4533 5.51495C13.1114 6.52128 13.4995 7.71578 13.4995 9.00029C13.4995 12.6165 10.479 15.5455 6.74981 15.5455V18L3.37495 14.7274L6.74981 11.4548V13.9092C9.54251 13.9092 11.8121 11.7084 11.8121 9.00029C11.8121 8.17395 11.5927 7.3967 11.2215 6.70945Z" fill="#C2C2C2"/>
</svg>
