<svg width="34" height="35" viewBox="0 0 34 35" fill="none" xmlns="http://www.w3.org/2000/svg">
<path d="M15.224 34.1001L14.3558 32.7047C14.4157 32.6597 20.658 28.6385 22.9932 20.0709C23.098 19.7558 25.1189 13.3639 19.4005 11.2183C19.3107 11.1733 16.9904 10.0929 14.4456 11.0532C12.3948 11.8335 10.7182 13.709 9.47572 16.6349C9.41584 16.8299 7.49974 22.5617 1.19756 23.3569L0.98799 21.7364C6.27224 21.0612 7.93386 16.1247 7.94883 16.0797C9.40087 12.6437 11.3918 10.453 13.8917 9.52277C17.1102 8.32241 19.9245 9.65781 20.0442 9.71782C25.7326 11.8485 25.4931 17.7452 24.55 20.5511C22.0651 29.7338 15.4935 33.935 15.224 34.1001ZM21.9004 33.2448L20.7478 32.0745C24.3255 28.5484 25.9871 24.2121 26.0021 24.1671C29.1307 16.7399 26.2566 11.8335 26.1368 11.6384C21.8106 4.97641 14.4157 6.53688 14.3408 6.55188C8.77215 7.3021 6.7812 12.7937 6.76623 12.8538C5.0148 19.0206 0.32933 19.4557 0.134726 19.4857L0 17.8352C0.149695 17.8202 3.75735 17.4301 5.2094 12.3436C5.31419 12.0435 7.57459 5.80166 14.0714 4.9314C14.0863 4.9314 22.589 3.13086 27.544 10.7681C27.6936 11.0232 31.0019 16.5749 27.544 24.7823C27.4691 24.9474 25.7326 29.4787 21.9004 33.2448ZM10.1793 32.4796L9.35596 31.0542C16.8856 26.7029 18.7718 20.1309 18.7868 20.0709L18.8167 19.9809C19.5053 18.3154 19.6101 16.95 19.146 15.9297C18.667 14.8644 17.709 14.5343 17.679 14.5193C16.9455 14.2192 16.2869 14.2342 15.6132 14.5193C13.8319 15.2995 12.5145 17.9853 12.1553 18.9456C8.68233 26.7629 2.64961 26.8529 2.39513 26.8529V25.2174C2.6047 25.2174 7.64944 25.0824 10.6433 18.3304C10.7032 18.1954 12.2151 14.2342 14.9695 13.0188C16.0324 12.5537 17.1401 12.5387 18.2479 12.9738C18.2628 12.9738 19.8346 13.499 20.628 15.2095C21.3017 16.6499 21.2118 18.4504 20.3436 20.5661C20.149 21.2563 18.0084 27.9483 10.1793 32.4796ZM6.12254 30.0639L5.44891 28.5784C13.9366 24.7073 15.6132 17.7302 15.6282 17.6702L17.2299 18.0303C17.1551 18.3304 15.3887 25.8326 6.12254 30.0639ZM31.4809 25.1574L29.999 24.4672C31.8252 20.5511 32.1246 16.6199 30.8971 12.7787C29.984 9.89788 28.487 8.14235 28.4721 8.12735C22.0651 1.12026 13.8019 2.63571 13.7121 2.65072C4.55074 4.18117 2.11071 14.2342 2.09574 14.3392L0.493995 13.9641C0.523934 13.8591 3.18851 2.75575 13.4277 1.04524C13.772 0.970215 22.6639 -0.665273 29.6996 7.03202C29.7894 7.12205 36.2862 14.8193 31.4809 25.1574Z" fill="#00BCEB"/>
</svg>
