<svg width="36" height="37" viewBox="0 0 36 37" fill="none" xmlns="http://www.w3.org/2000/svg">
<path fill-rule="evenodd" clip-rule="evenodd" d="M17.5749 26.45C21.9793 26.45 25.5499 22.8795 25.5499 18.475C25.5499 14.0705 21.9793 10.5 17.5749 10.5C13.1704 10.5 9.59985 14.0705 9.59985 18.475C9.59985 22.8795 13.1704 26.45 17.5749 26.45ZM17.5749 28.45C23.0839 28.45 27.5499 23.984 27.5499 18.475C27.5499 12.966 23.0839 8.5 17.5749 8.5C12.0658 8.5 7.59985 12.966 7.59985 18.475C7.59985 23.984 12.0658 28.45 17.5749 28.45Z" fill="#9C9CA1"/>
<path fill-rule="evenodd" clip-rule="evenodd" d="M19.7719 0.900024H15.3781L13.8232 6.60137C13.1317 6.81966 12.4663 7.0967 11.8328 7.42662L6.70102 4.4942L3.59417 7.60105L6.5266 12.7328C6.19667 13.3663 5.91964 14.0317 5.70134 14.7232L0 16.2781V20.6719L5.70134 22.2268C5.91964 22.9183 6.19667 23.5838 6.5266 24.2173L3.59417 29.349L6.70102 32.4558L11.8328 29.5234C12.4663 29.8533 13.1317 30.1304 13.8232 30.3487L15.3781 36.05H19.7719L21.3268 30.3487C22.0183 30.1304 22.6837 29.8533 23.3172 29.5234L28.449 32.4558L31.5558 29.349L28.6234 24.2173C28.9533 23.5838 29.2304 22.9183 29.4487 22.2268L35.15 20.6719V16.2781L29.4487 14.7232C29.2304 14.0317 28.9533 13.3663 28.6234 12.7328L31.5558 7.60105L28.449 4.4942L23.3172 7.42662C22.6837 7.0967 22.0183 6.81966 21.3268 6.60137L19.7719 0.900024ZM17.575 27.2625C22.4282 27.2625 26.3625 23.3282 26.3625 18.475C26.3625 13.6218 22.4282 9.68752 17.575 9.68752C12.7218 9.68752 8.7875 13.6218 8.7875 18.475C8.7875 23.3282 12.7218 27.2625 17.575 27.2625Z" fill="#D1D4D4"/>
<path fill-rule="evenodd" clip-rule="evenodd" d="M15.2217 13.6913L17.9534 16.4236C18.6244 17.0946 18.6244 18.1825 17.9534 18.8536C17.3219 19.4851 16.321 19.5223 15.646 18.965L15.5234 18.8536L12.791 16.1222C11.9659 17.9326 12.2982 20.1411 13.7878 21.6307C15.2109 23.0538 17.2903 23.4205 19.0517 22.7309L26.4346 30.1125C25.7445 31.8741 30.9739 26.6446 29.2123 27.3347L21.8308 19.9519C22.5204 18.1905 22.1536 16.111 20.7305 14.6879C19.2409 13.1983 17.0321 12.8661 15.2217 13.6913Z" fill="#00BCEB"/>
</svg>
