<svg width="14" height="11" viewBox="0 0 14 11" fill="none" xmlns="http://www.w3.org/2000/svg">
<path fill-rule="evenodd" clip-rule="evenodd" d="M9.7548 5.47255C9.7548 7.08578 8.52216 8.39355 7.00161 8.39355C5.48106 8.39355 4.24841 7.08578 4.24841 5.47255C4.24841 3.85933 5.48106 2.55155 7.00161 2.55155C8.52216 2.55155 9.7548 3.85933 9.7548 5.47255Z" fill="#059FD9"/>
<path fill-rule="evenodd" clip-rule="evenodd" d="M0.00352541 5.68678L0.0110581 5.68382L0 5.67948C0.340418 4.70369 1.08655 3.27225 2.23876 2.09077C3.39691 0.903218 4.99527 -0.0593087 7.01647 0.00285075C9.02142 0.0645104 10.6075 1.04266 11.7617 2.20859C12.9108 3.36942 13.6579 4.7407 14 5.67047L13.9972 5.67161C13.3278 7.48955 11.1755 10.8742 7.1853 10.9969C5.18456 11.0584 3.55218 10.2065 2.34812 9.11457C1.15157 8.02946 0.351831 6.68517 0.00352541 5.68678ZM3.01433 8.28766C2.09821 7.45687 1.45402 6.45987 1.10918 5.6736C1.45286 4.8523 2.07016 3.77651 2.95132 2.87297C3.97181 1.82658 5.31617 1.03884 6.98676 1.09022C8.6736 1.1421 10.0302 1.96151 11.0547 2.99642C11.9254 3.87601 12.5371 4.89351 12.8825 5.66853C12.1437 7.33507 10.2896 9.81312 7.15559 9.9095C5.46454 9.9615 4.07154 9.24641 3.01433 8.28766Z" fill="#059FD9"/>
</svg>
