<svg width="29" height="20" viewBox="0 0 29 20" fill="none" xmlns="http://www.w3.org/2000/svg">
<g clip-path="url(#clip0)">
<path fill-rule="evenodd" clip-rule="evenodd" d="M18.7292 5.0624C18.7292 2.70276 16.8149 0.833252 14.4998 0.833252C12.1406 0.833252 10.2708 2.74756 10.2708 5.0624C10.2708 7.3773 12.1851 9.2474 14.4998 9.2916C16.8594 9.2916 18.7292 7.3773 18.7292 5.0624ZM25.7683 5.9685C25.7683 4.45793 24.5265 3.24992 23.0282 3.24992C21.5295 3.24992 20.3308 4.45793 20.3308 5.9685C20.3308 7.4794 21.5295 8.6874 23.0282 8.6874C24.5265 8.6874 25.7683 7.4794 25.7683 5.9685ZM4.79107 16.1757V16.1314C4.83626 13.5151 6.46351 10.8988 9.31104 9.7016C8.76852 9.48 7.27713 8.9924 7.00572 9.48L5.87581 11.653L4.74589 9.48C4.70071 9.3913 4.56515 9.3027 4.4296 9.3027C1.98872 9.3027 0 11.2537 0 13.6484V15.8654C0 16.0427 0.180738 16.1757 0.361781 16.1757H4.79107ZM5.87146 3.24992C7.36979 3.24992 8.61161 4.45793 8.61161 5.9685C8.61161 7.4794 7.36979 8.6874 5.87146 8.6874C4.37283 8.6874 3.17411 7.4794 3.17411 5.9685C3.17411 4.45793 4.37283 3.24992 5.87146 3.24992ZM28.6382 16.2203C28.8644 16.2203 29 16.0427 29 15.8654V13.6483C29 11.2537 27.0113 9.3026 24.48 9.3026C24.3445 9.3026 24.2089 9.347 24.1637 9.4799L23.0338 11.6529L21.9036 9.4799C21.8584 9.3913 21.7229 9.3026 21.5873 9.3026C20.9095 9.3026 20.2315 9.4359 19.6438 9.7462C19.6886 9.768 19.7445 9.79 19.8005 9.812C19.8574 9.8344 19.9145 9.8568 19.9601 9.8792C24.2097 11.854 24.1651 16.087 24.1638 16.2176L24.1637 16.2203H28.6382ZM23.0968 20.1666H5.83059C5.64985 20.1666 5.46912 20.0336 5.46912 19.8563V16.3975V16.1758C5.55948 12.8056 8.4522 9.8347 12.2037 9.8347C12.3393 9.8347 12.4748 9.9234 12.5652 10.012L14.5091 13.7368L16.4526 10.012C16.4978 9.879 16.6333 9.8347 16.7689 9.8347H16.8141C20.5204 9.8347 23.4131 12.8056 23.4583 16.2201V19.8563C23.4583 20.0336 23.3228 20.1666 23.0968 20.1666Z" fill="white"/>
</g>
<defs>
<clipPath id="clip0">
<rect width="29" height="20" fill="white"/>
</clipPath>
</defs>
</svg>
