<svg width="33" height="28" viewBox="0 0 33 28" fill="none" xmlns="http://www.w3.org/2000/svg">
<path d="M31.0379 9.5334C30.8988 9.92063 30.7611 10.3079 30.6213 10.6951C30.0164 12.3729 29.4102 14.05 28.8054 15.7277C28.7607 15.8523 28.7167 15.9776 28.6734 16.1029C28.5946 16.3321 28.491 16.5492 28.3696 16.7585C28.3554 16.7827 28.3362 16.8033 28.3192 16.8254C28.2602 16.7627 28.2737 16.6837 28.273 16.609C28.2716 16.0395 28.2723 15.4701 28.2723 14.9013C28.2723 11.5849 28.2723 8.26847 28.2716 4.95205C28.2716 4.82393 28.2808 4.69651 28.2915 4.56909C28.2922 4.5157 28.317 4.46872 28.3334 4.42032C28.3916 4.24521 28.4519 4.07152 28.5115 3.89712C28.672 3.42589 28.9367 3.02371 29.3037 2.68915C29.5423 2.47204 29.817 2.32042 30.135 2.25635C30.311 2.22076 30.4892 2.2051 30.6695 2.22859C30.7952 2.24496 30.9229 2.2471 31.0436 2.29123C31.0663 2.3553 31.0628 2.4215 31.0628 2.48841C31.0628 4.72 31.0621 6.95159 31.0642 9.18317C31.0642 9.30063 31.0351 9.41594 31.0379 9.5334Z" fill="white"/>
<path d="M28.3336 4.51015C28.35 4.52866 28.3563 4.55144 28.3563 4.57564C28.3563 4.62333 28.3571 4.67031 28.3571 4.71801C28.3571 8.66796 28.3571 12.6179 28.3571 16.5679C28.3571 16.6341 28.3599 16.7003 28.3613 16.7672C28.3535 16.8113 28.3251 16.844 28.3017 16.8789C27.7267 17.7452 26.9352 18.2862 25.9094 18.4749C25.8349 18.4884 25.7611 18.5012 25.6851 18.5047C25.607 18.5154 25.6042 18.4549 25.595 18.4051C25.5836 18.3446 25.5886 18.2819 25.5886 18.2207C25.5886 16.4333 25.5886 14.6459 25.5879 12.8585C25.5879 12.7346 25.6056 12.6136 25.6319 12.4933C25.6837 12.331 25.7334 12.168 25.7881 12.0064C26.2374 10.6782 26.6875 9.34989 27.1368 8.02161C27.5244 6.87699 27.9113 5.73308 28.2996 4.58845C28.3088 4.56069 28.3223 4.53578 28.3336 4.51015Z" fill="white"/>
<path d="M9.35388 0.89585C9.50721 0.976287 9.62575 1.09872 9.73578 1.22899C9.91112 1.43684 10.0439 1.67103 10.1539 1.91946C10.2249 2.07962 10.2973 2.23907 10.3725 2.3971C10.8545 3.41004 11.3379 4.42297 11.8199 5.43591C11.8994 5.60248 11.974 5.77118 12.0514 5.93846C12.0854 6.03812 12.0961 6.14062 12.0961 6.24597C12.0954 9.14739 12.0961 12.0488 12.0939 14.9502C12.0939 15.0321 12.1323 15.1332 12.0272 15.1894C11.9073 14.9531 11.7866 14.7168 11.6673 14.4804C11.3777 13.9053 11.0895 13.3294 10.7999 12.7542C10.3314 11.8239 9.86285 10.8935 9.39434 9.96315C9.36665 9.90834 9.33187 9.85709 9.32122 9.79445C9.28999 9.6891 9.2765 9.58232 9.2765 9.47199C9.27721 6.70581 9.27721 3.93964 9.27721 1.17346C9.27721 1.11652 9.27366 1.05886 9.28289 1.00262C9.28999 0.957068 9.28857 0.902968 9.35388 0.89585Z" fill="white"/>
<path d="M12.0264 15.1894C12.0335 15.1723 12.0463 15.1559 12.047 15.1388C12.0499 15.0918 12.0484 15.0441 12.0484 14.9964C12.0484 11.9961 12.0484 8.99571 12.0477 5.99534C12.0477 5.97612 12.0491 5.95761 12.0506 5.93839C12.069 5.97114 12.0903 6.00246 12.1066 6.03663C12.2926 6.426 12.4779 6.81537 12.6632 7.20474C12.8832 7.66672 13.104 8.1287 13.3241 8.59068C13.52 9.00141 13.7152 9.41213 13.9104 9.82286C14.112 10.2464 14.3143 10.6699 14.5159 11.0935C14.5975 11.2643 14.6792 11.4359 14.7601 11.6074C14.7679 11.6238 14.7708 11.643 14.7757 11.6608C14.7942 11.7875 14.7921 11.9156 14.7921 12.0438C14.7921 14.0163 14.7921 15.988 14.7906 17.9605C14.7906 18.0481 14.8133 18.1427 14.7424 18.2182C14.7196 18.2132 14.6948 18.2118 14.6742 18.2025C14.337 18.0516 14.0169 17.8722 13.728 17.6388C13.5682 17.5099 13.4405 17.3519 13.3035 17.2031C13.1146 16.9981 12.9421 16.7789 12.7817 16.5504C12.5581 16.2329 12.3601 15.9005 12.1968 15.5467C12.1421 15.4264 12.0832 15.3082 12.0264 15.1894Z" fill="white"/>
<path d="M9.35388 0.896023C9.33613 0.913107 9.32619 0.934462 9.32619 0.959376C9.32548 1.00707 9.32548 1.05405 9.32548 1.10174C9.32548 3.93768 9.32548 6.77361 9.32548 9.60955C9.32548 9.67076 9.32264 9.73269 9.32051 9.79462C9.25379 9.7028 9.20765 9.59816 9.15654 9.49779C8.67951 8.55034 8.20887 7.60005 7.72758 6.65545C7.49119 6.19133 7.2683 5.72081 7.03901 5.25314C6.92827 5.0282 6.82108 4.80113 6.71318 4.57477C6.69473 4.53561 6.67627 4.49718 6.62658 4.49077C6.57831 4.43596 6.58044 4.36833 6.58044 4.30213C6.57973 3.17815 6.57973 2.05417 6.58044 0.930191C6.58044 0.864703 6.57263 0.795655 6.62445 0.741556C6.6713 0.739421 6.71886 0.73515 6.76571 0.73515C7.46138 0.734438 8.15705 0.735861 8.85271 0.733726C9.0387 0.732302 9.20552 0.784978 9.35388 0.896023Z" fill="white"/>
<path d="M15.7737 21.0904C16.4999 20.9801 17.1792 21.1117 17.8089 21.4904C18.0282 21.6221 18.2263 21.7816 18.403 21.9674C18.4286 21.9944 18.4506 22.0257 18.474 22.0549C18.5145 22.1233 18.5187 22.198 18.5187 22.2742C18.5187 23.4764 18.5187 24.678 18.5187 25.8803C18.5187 25.9565 18.518 26.0319 18.4726 26.0988C18.3555 26.2554 18.205 26.3779 18.0509 26.4939C17.652 26.795 17.2033 26.9836 16.7107 27.0619C16.4012 27.111 16.091 27.1103 15.7815 27.0619C15.7687 27.0598 15.7566 27.0498 15.7439 27.0434C15.6999 26.9865 15.7013 26.9196 15.7013 26.8534C15.7006 25.0047 15.7006 23.1561 15.702 21.3075C15.7013 21.2285 15.6892 21.1424 15.7737 21.0904Z" fill="white"/>
<path d="M26.5962 27.0899C26.3336 27.1105 26.0759 27.0699 25.8246 27.003C24.982 26.7781 24.3474 26.2798 23.92 25.5174C23.9016 25.4847 23.8895 25.4491 23.8739 25.4142C23.8512 25.2882 23.8498 25.1615 23.8498 25.0334C23.8512 24.4383 23.8498 23.8432 23.8505 23.2481C23.8505 23.0787 23.8434 22.9086 23.8704 22.7399C23.957 22.5277 24.0862 22.3412 24.2295 22.1661C24.7002 21.5917 25.3022 21.2365 26.0298 21.0977C26.215 21.0621 26.4031 21.0407 26.5927 21.0599C26.6417 21.114 26.6388 21.1824 26.6388 21.2479C26.6395 23.1321 26.6395 25.0163 26.6388 26.9012C26.6388 26.9667 26.6459 27.0351 26.5962 27.0899Z" fill="white"/>
<path d="M26.5963 27.0899C26.5956 27.028 26.5941 26.9668 26.5941 26.9048C26.5941 25.0178 26.5941 23.1314 26.5941 21.2444C26.5941 21.1824 26.5934 21.1212 26.5927 21.0593C26.7638 21.0415 26.9335 21.0621 27.0996 21.0949C28.0295 21.2771 28.7337 21.7811 29.2072 22.6054C29.2519 22.683 29.2987 22.7598 29.3193 22.8488C29.3541 22.972 29.3669 23.0972 29.3669 23.2254C29.3647 23.792 29.3655 24.3579 29.3669 24.9245C29.3669 25.0484 29.3541 25.1687 29.3214 25.2875C29.3179 25.3416 29.2888 25.3865 29.2647 25.4321C28.8025 26.3083 28.0898 26.85 27.118 27.0436C26.9455 27.0778 26.7723 27.1049 26.5963 27.0899Z" fill="white"/>
<path d="M14.7438 18.2173C14.7452 18.1561 14.7488 18.0942 14.7488 18.033C14.7488 15.9722 14.7488 13.9122 14.7488 11.8514C14.7488 11.8087 14.7488 11.766 14.7495 11.7233C14.7495 11.6984 14.7573 11.677 14.7765 11.6607C14.8198 11.7176 14.8425 11.7859 14.873 11.8493C15.0178 12.1518 15.1577 12.4572 15.3082 12.7569C15.5509 13.2409 15.881 13.6573 16.3112 13.9884C16.5689 14.187 16.8557 14.3272 17.1794 14.382C17.2539 14.3948 17.3284 14.4019 17.403 14.4119C17.4782 14.4019 17.5031 14.4482 17.5123 14.5115C17.5201 14.5678 17.5187 14.6254 17.5187 14.6824C17.5187 15.8875 17.5187 17.0919 17.5187 18.2971C17.5187 18.5676 17.518 18.569 17.2468 18.5676C16.84 18.5647 16.4333 18.5775 16.0273 18.5604C15.82 18.5505 15.6198 18.5006 15.4189 18.4515C15.223 18.4038 15.0306 18.3433 14.8425 18.2693C14.807 18.2558 14.7701 18.2458 14.7438 18.2173Z" fill="white"/>
<path d="M25.5905 12.5503C25.5912 12.6073 25.5933 12.6642 25.5933 12.7212C25.5933 14.6054 25.5933 16.4889 25.5933 18.3731C25.5933 18.4208 25.5933 18.4678 25.5962 18.5155C25.5976 18.5432 25.6224 18.5518 25.6437 18.5625C25.6146 18.5845 25.5806 18.5795 25.5479 18.5795C24.6741 18.5803 23.7995 18.5795 22.9257 18.5795C22.9072 18.5795 22.888 18.5753 22.8696 18.5731C22.8391 18.5155 22.8497 18.4521 22.8497 18.3916C22.8497 17.1673 22.8497 15.9436 22.8497 14.7193C22.8497 14.6858 22.8476 14.6524 22.8497 14.6196C22.8568 14.5079 22.8014 14.4652 22.6957 14.4716C22.6531 14.4744 22.6105 14.4716 22.5679 14.4716C21.863 14.4716 21.1581 14.4716 20.4525 14.4709C20.3773 14.4709 20.3006 14.4787 20.2275 14.4516C20.2097 14.4438 20.1962 14.431 20.1877 14.4132C20.2395 14.4104 20.2914 14.4061 20.3432 14.4061C21.4122 14.4054 22.4806 14.4054 23.5496 14.4061C23.6298 14.4061 23.7101 14.4132 23.7903 14.4082C24.0991 14.389 24.3624 14.2559 24.6009 14.0673C24.7926 13.9163 24.9481 13.7327 25.0865 13.5327C25.2732 13.2622 25.4166 12.9696 25.538 12.6642C25.5543 12.6265 25.5585 12.5817 25.5905 12.5503Z" fill="white"/>
<path d="M15.7736 21.0906C15.7587 21.1205 15.7467 21.1511 15.7481 21.1853C15.7495 21.223 15.7481 21.2614 15.7481 21.2992C15.7481 23.1528 15.7481 25.0057 15.7481 26.8593C15.7481 26.9205 15.7453 26.9824 15.7438 27.0436C15.6473 27.0486 15.5564 27.0201 15.4656 26.9959C15.0148 26.8749 14.613 26.6614 14.2609 26.3553C13.9983 26.1268 13.7839 25.8577 13.6107 25.5538C13.4275 25.2327 13.3111 24.8882 13.2572 24.5252C13.221 24.2824 13.2125 24.0376 13.2387 23.7891C13.2792 23.3962 13.3835 23.0261 13.5653 22.6787C13.8591 22.1171 14.2886 21.6878 14.8501 21.3931C15.1404 21.2401 15.4471 21.134 15.7736 21.0906Z" fill="white"/>
<path d="M20.1885 14.4134C20.1935 14.4156 20.197 14.4198 20.1977 14.4248C20.219 14.4796 20.2148 14.5366 20.2148 14.5935C20.2141 15.8549 20.2148 17.1162 20.2141 18.3776C20.2141 18.4431 20.2254 18.5107 20.1906 18.5726C20.1438 18.5748 20.0962 18.5783 20.0494 18.5783C18.7681 18.5791 17.4875 18.5798 16.2062 18.5791C16.1458 18.5791 16.0834 18.5926 16.0259 18.5605C16.253 18.5591 16.4795 18.5577 16.7066 18.557C16.9146 18.5563 17.1226 18.557 17.3306 18.5563C17.3632 18.5563 17.3966 18.5541 17.4293 18.5506C17.4498 18.5484 17.464 18.5335 17.4655 18.5129C17.4683 18.4701 17.4704 18.4281 17.4704 18.3854C17.4704 17.717 17.4704 17.0479 17.4704 16.3795C17.4704 15.7865 17.4704 15.1936 17.4704 14.6013C17.4704 14.5679 17.4669 14.5344 17.4711 14.5017C17.4775 14.4469 17.4435 14.4269 17.4009 14.4127C17.4243 14.4099 17.4477 14.4049 17.4704 14.4049C18.3336 14.4049 19.1975 14.4049 20.0607 14.4056C20.1047 14.4056 20.1466 14.4106 20.1885 14.4134Z" fill="white"/>
<path d="M20.1913 18.5726C20.1615 18.5199 20.1721 18.4615 20.1721 18.4053C20.1714 17.6856 20.1721 16.9667 20.1721 16.247C20.1721 15.6882 20.1714 15.1302 20.1735 14.5714C20.1735 14.5223 20.1522 14.4667 20.1991 14.4247C21.036 14.4247 21.8737 14.4247 22.7106 14.4255C22.9122 14.4255 22.8966 14.4119 22.8966 14.6077C22.8966 15.874 22.8966 17.1404 22.8966 18.4067C22.8966 18.463 22.9065 18.5213 22.871 18.5726C22.6538 18.5747 22.4366 18.579 22.2194 18.579C21.5911 18.579 20.9622 18.5776 20.334 18.5761C20.2857 18.5761 20.2381 18.574 20.1913 18.5726Z" fill="white"/>
<path d="M4.92691 4.48976C4.87509 4.49189 4.82398 4.49616 4.77216 4.49616C4.08431 4.49688 3.39645 4.49616 2.70859 4.49688C2.61418 4.49688 2.52048 4.50186 2.42607 4.50471C2.35082 4.50684 2.27558 4.50542 2.20175 4.48691C2.15206 4.43281 2.15632 4.36447 2.15632 4.29827C2.15561 3.1807 2.15561 2.06313 2.15632 0.94484C2.15632 0.878639 2.1549 0.811016 2.20317 0.756205C2.28978 0.725596 2.37993 0.734138 2.46937 0.734138C3.2417 0.733426 4.01474 0.733426 4.78707 0.734138C4.83392 0.734138 4.88077 0.738409 4.92762 0.740544C4.98086 0.793932 4.97306 0.862979 4.97306 0.928468C4.97448 2.05245 4.97448 3.17643 4.97306 4.30041C4.97377 4.36732 4.9759 4.43495 4.92691 4.48976Z" fill="white"/>
<path d="M4.92699 4.4898C4.92699 3.24053 4.9277 1.99056 4.9277 0.741294C4.97029 0.739159 5.01217 0.734888 5.05477 0.734888C5.86898 0.734176 6.68248 0.734176 7.49669 0.734888C7.53929 0.734888 7.58188 0.738447 7.62376 0.740583C7.62447 0.963386 7.62518 1.18548 7.62518 1.40828C7.62518 2.43545 7.62589 3.46262 7.62589 4.4898C7.58401 4.49193 7.54142 4.4962 7.49882 4.4962C6.68319 4.49691 5.86827 4.49691 5.05264 4.4962C5.01146 4.4962 4.96958 4.49193 4.92699 4.4898Z" fill="white"/>
<path d="M20.1714 9.45702C20.2183 9.45417 20.2658 9.44919 20.3127 9.44919C20.9182 9.44848 21.5237 9.44848 22.1292 9.44919C22.3386 9.44919 22.5438 9.48051 22.7411 9.55454C22.7851 9.57091 22.8313 9.58372 22.8682 9.61576C22.9342 9.65633 22.9406 9.72324 22.9406 9.79016C22.9427 10.6792 22.9427 11.5676 22.9406 12.4567C22.9406 12.5093 22.9342 12.5606 22.8959 12.6026C22.7802 12.6816 22.646 12.7122 22.5133 12.7435C22.4075 12.7685 22.2989 12.7784 22.1896 12.7784C21.5415 12.7777 20.8933 12.7784 20.2445 12.7777C20.2211 12.7777 20.1977 12.7741 20.1743 12.772C20.1217 12.7193 20.1253 12.651 20.1253 12.5848C20.1246 11.6046 20.1239 10.6244 20.1253 9.64352C20.1246 9.57874 20.1175 9.50969 20.1714 9.45702Z" fill="white"/>
<path d="M20.1715 9.45703C20.1715 10.5006 20.1715 11.5434 20.1715 12.587C20.1715 12.6489 20.1729 12.7101 20.1736 12.772C20.1034 12.7742 20.0324 12.7777 19.9621 12.7777C19.6554 12.7784 19.3488 12.7806 19.0421 12.777C18.5693 12.772 18.1711 12.5912 17.8488 12.2474C17.6487 12.0339 17.5117 11.7826 17.452 11.4922C17.4442 11.2366 17.4385 10.9811 17.4549 10.7255C17.6146 10.1133 18 9.71543 18.597 9.52039C18.7461 9.47198 18.9009 9.45205 19.0563 9.4492C19.4049 9.44351 19.7541 9.44707 20.1027 9.44778C20.1247 9.44849 20.1481 9.45419 20.1715 9.45703Z" fill="white"/>
<path d="M31.038 9.53282C31.0231 9.5136 31.0167 9.49082 31.0167 9.46662C31.0167 9.42889 31.016 9.39046 31.016 9.35273C31.016 7.05707 31.016 4.76213 31.0167 2.46648C31.0167 2.40739 30.9954 2.34262 31.043 2.28923C31.706 2.4316 32.2086 2.78894 32.5152 3.40467C32.5869 3.54917 32.6416 3.7015 32.6856 3.85597C32.7431 4.05813 32.7537 4.2667 32.7367 4.47669C32.7097 4.80982 32.6309 5.13157 32.5181 5.44478C32.0403 6.76807 31.5619 8.09065 31.0834 9.41323C31.0685 9.45381 31.0529 9.49296 31.038 9.53282Z" fill="white"/>
<path d="M2.20319 0.756632C2.20319 2.0002 2.20248 3.24306 2.20248 4.48663C1.76023 4.45317 1.39749 4.26809 1.12207 3.91716C0.967318 3.71998 0.872906 3.49291 0.817537 3.25089C0.69686 2.722 0.727384 2.19809 0.891362 1.68201C0.908399 1.62791 0.928985 1.57524 0.951701 1.52327C1.10361 1.17804 1.35561 0.945979 1.71693 0.836357C1.87523 0.787953 2.03566 0.748802 2.20319 0.756632Z" fill="white"/>
<path d="M18.4719 26.0979C18.4712 24.9725 18.4712 23.8464 18.4712 22.721C18.4712 22.4989 18.4733 22.2768 18.474 22.054C18.4918 22.0697 18.5116 22.0825 18.5265 22.1003C18.8836 22.526 19.1207 23.0086 19.213 23.5603C19.2392 23.7197 19.2598 23.8799 19.2591 24.0408C19.2563 24.7618 19.0405 25.4103 18.5862 25.9741C18.5514 26.0175 18.5244 26.0695 18.4719 26.0979Z" fill="white"/>
<path d="M22.8952 12.6016C22.8952 11.6655 22.8952 10.7302 22.8952 9.79412C22.8952 9.73291 22.903 9.67027 22.8675 9.61474C23.0528 9.68237 23.2061 9.80124 23.3424 9.93934C23.6654 10.2675 23.8372 10.6668 23.8266 11.1274C23.811 11.7816 23.505 12.2692 22.9357 12.5902C22.9243 12.5973 22.9087 12.598 22.8952 12.6016Z" fill="white"/>
<path d="M23.8703 22.7404C23.8781 22.7568 23.8909 22.7724 23.893 22.7902C23.8973 22.818 23.8951 22.8472 23.8951 22.8757C23.8951 23.6765 23.8951 24.4773 23.8944 25.2781C23.8944 25.3244 23.9086 25.3735 23.8738 25.4148C23.7681 25.2389 23.7049 25.046 23.6545 24.8489C23.4792 24.1662 23.5303 23.4999 23.81 22.8522C23.827 22.8137 23.8504 22.7774 23.8703 22.7404Z" fill="white"/>
<path d="M29.3199 25.2873C29.3177 25.2496 29.3149 25.2119 29.3149 25.1742C29.3149 24.4275 29.3149 23.6807 29.3149 22.934C29.3149 22.9056 29.317 22.8771 29.3185 22.8493C29.3681 22.9141 29.388 22.9931 29.4136 23.0679C29.6556 23.7797 29.6407 24.4872 29.3724 25.1891C29.3596 25.224 29.3504 25.2617 29.3199 25.2873Z" fill="white"/>
<path d="M18.4541 10.7251C18.4725 10.7493 18.4725 10.7777 18.4725 10.8055C18.4725 11.0077 18.4725 11.2098 18.4725 11.412C18.4725 11.4404 18.4718 11.4682 18.4512 11.4917C18.3873 11.2362 18.3895 10.9806 18.4541 10.7251Z" fill="white"/>
</svg>
