<svg width="21" height="20" viewBox="0 0 21 20" fill="none" xmlns="http://www.w3.org/2000/svg">
<path fill-rule="evenodd" clip-rule="evenodd" d="M19.3125 1.1875C18.5 0.40625 17.5312 0 16.4062 0H4.59375C3.46875 0 2.5 0.40625 1.6875 1.1875C0.875 1.96875 0.5 2.96875 0.5 4.09375V15.9062C0.5 17.0312 0.90625 18 1.6875 18.7812C2.46875 19.5625 3.46875 20 4.59375 20H16.4062C17.5312 20 18.5 19.5938 19.2812 18.8125C20.0625 18.0312 20.4688 17.0625 20.4688 15.9375V4.09375C20.5 2.96875 20.0938 2 19.3125 1.1875ZM18.6251 15.9062C18.6251 16.5312 18.4376 17.0312 18.0001 17.4687C17.5626 17.9062 17.0626 18.0937 16.4376 18.0937H4.59383C3.96883 18.0937 3.46883 17.9062 3.03133 17.4687C2.59383 17.0312 2.40633 16.5312 2.40633 15.9062V4.09375C2.40633 3.46875 2.59383 2.96875 3.03133 2.53125C3.46883 2.09375 3.96883 1.90625 4.59383 1.90625H16.4063C17.0313 1.90625 17.5313 2.09375 17.9688 2.53125C18.4063 2.96875 18.5938 3.46875 18.5938 4.09375V15.9062H18.6251ZM15.7099 11.0417H5.29006C4.71595 11.0417 4.25 10.5755 4.25 10C4.25 9.425 4.71595 8.95833 5.29006 8.95833H15.7099C16.2841 8.95833 16.75 9.42448 16.75 10C16.75 10.575 16.2841 11.0417 15.7099 11.0417Z" fill="#227BB1"/>
</svg>
