<svg width="31" height="30" viewBox="0 0 31 30" fill="none" xmlns="http://www.w3.org/2000/svg">
<path fill-rule="evenodd" clip-rule="evenodd" d="M11.0656 4.6875C11.0656 4.17188 11.4875 3.75 12.0031 3.75C12.5188 3.75 12.9406 4.17188 12.9406 4.6875V11.5031C12.9406 12.0188 12.5188 12.4406 12.0031 12.4406H5.1875C4.67188 12.4406 4.25 12.0188 4.25 11.5031C4.25 10.9875 4.67188 10.5656 5.1875 10.5656H11.0656V4.6875ZM25.8125 12.4406H18.9969C18.4813 12.4406 18.0594 12.0188 18.0594 11.5031V4.6875C18.0594 4.17188 18.4813 3.75 18.9969 3.75C19.5125 3.75 19.9344 4.17188 19.9344 4.6875V10.5656H25.8125C26.3281 10.5656 26.75 10.9875 26.75 11.5031C26.75 12.0188 26.3281 12.4406 25.8125 12.4406ZM25.8125 17.6063H18.9969C18.4813 17.6063 18.0594 18.0282 18.0594 18.5438V25.3594C18.0594 25.875 18.4813 26.2969 18.9969 26.2969C19.5125 26.2969 19.9344 25.875 19.9344 25.3594V19.4813H25.8125C26.3281 19.4813 26.75 19.0594 26.75 18.5438C26.75 18.0282 26.3281 17.6063 25.8125 17.6063ZM5.1875 17.6063H12.0031C12.5188 17.6063 12.9406 18.0282 12.9406 18.5438V25.3594C12.9406 25.875 12.5188 26.2969 12.0031 26.2969C11.4875 26.2969 11.0656 25.875 11.0656 25.3594V19.4813H5.1875C4.67188 19.4813 4.25 19.0594 4.25 18.5438C4.25 18.0282 4.67188 17.6063 5.1875 17.6063Z" fill="#227BB1"/>
</svg>
