<svg width="17" height="16" viewBox="0 0 17 16" fill="none" xmlns="http://www.w3.org/2000/svg">
<path fill-rule="evenodd" clip-rule="evenodd" d="M15.55 0.95C14.9 0.325 14.125 0 13.225 0H3.775C2.875 0 2.1 0.325 1.45 0.95C0.8 1.575 0.5 2.375 0.5 3.275V12.725C0.5 13.625 0.825 14.4 1.45 15.025C2.075 15.65 2.875 16 3.775 16H13.225C14.125 16 14.9 15.675 15.525 15.05C16.15 14.425 16.475 13.65 16.475 12.75V3.275C16.5 2.375 16.175 1.6 15.55 0.95ZM15.0001 12.725C15.0001 13.225 14.8501 13.625 14.5001 13.975C14.1501 14.325 13.7501 14.475 13.2501 14.475H3.77506C3.27506 14.475 2.87507 14.325 2.52506 13.975C2.17507 13.625 2.02507 13.225 2.02507 12.725V3.275C2.02507 2.775 2.17507 2.375 2.52506 2.025C2.87507 1.675 3.27506 1.525 3.77506 1.525H13.2251C13.7251 1.525 14.1251 1.675 14.4751 2.025C14.8251 2.375 14.9751 2.775 14.9751 3.275V12.725H15.0001ZM7.66025 8.83333H4.33205C3.87276 8.83333 3.5 8.46042 3.5 8C3.5 7.54 3.87276 7.16667 4.33205 7.16667H7.66025V3.83333C7.66025 3.37333 8.03301 3 8.4923 3C8.9516 3 9.32435 3.37292 9.32435 3.83333V7.16667H12.6679C13.1272 7.16667 13.5 7.53958 13.5 8C13.5 8.46 13.1272 8.83333 12.6679 8.83333H9.32435V12.1667C9.32435 12.6267 8.9516 13 8.4923 13C8.03301 13 7.66025 12.6271 7.66025 12.1667V8.83333Z" fill="#227BB1"/>
</svg>
