<svg width="23" height="24" viewBox="0 0 23 24" fill="none" xmlns="http://www.w3.org/2000/svg">
<path fill-rule="evenodd" clip-rule="evenodd" d="M1.1875 0.8125H8.00313C8.51875 0.8125 8.94063 1.23438 8.94063 1.75C8.94063 2.26562 8.51875 2.6875 8.00313 2.6875H2.125V8.56563C2.125 9.08125 1.70312 9.50313 1.1875 9.50313C0.671875 9.50313 0.25 9.08125 0.25 8.56563V1.75C0.25 1.23438 0.671875 0.8125 1.1875 0.8125ZM14.9969 0.8125H21.8125C22.3281 0.8125 22.75 1.23438 22.75 1.75V8.56563C22.75 9.08125 22.3281 9.50313 21.8125 9.50313C21.2969 9.50313 20.875 9.08125 20.875 8.56563V2.6875H14.9969C14.4812 2.6875 14.0594 2.26562 14.0594 1.75C14.0594 1.23438 14.4812 0.8125 14.9969 0.8125ZM21.8125 14.6594C21.2969 14.6594 20.875 15.0813 20.875 15.5969V21.475H14.9969C14.4812 21.475 14.0594 21.8969 14.0594 22.4125C14.0594 22.9281 14.4812 23.35 14.9969 23.35H21.8125C22.3281 23.35 22.75 22.9281 22.75 22.4125V15.5969C22.75 15.0813 22.3281 14.6594 21.8125 14.6594ZM2.125 21.4844H8.00313C8.51875 21.4844 8.94063 21.9063 8.94063 22.4219C8.94063 22.9375 8.51875 23.3594 8.00313 23.3594H1.1875C0.671875 23.3594 0.25 22.9375 0.25 22.4219V15.6063C0.25 15.0907 0.671875 14.6688 1.1875 14.6688C1.70312 14.6688 2.125 15.0907 2.125 15.6063V21.4844Z" fill="#227BB1"/>
</svg>
