<svg width="16" height="16" viewBox="0 0 16 16" fill="none" xmlns="http://www.w3.org/2000/svg">
<path d="M2.784 4.72747L7.20213 2.14933L6.66453 1.22773L2.24533 3.80587L2.784 4.72747ZM2.13333 10.1333V5.86667H1.06667V10.1333H2.13333ZM8.79787 2.14933L13.2171 4.72747L13.7547 3.80587L9.33547 1.22773L8.79787 2.14933ZM13.8667 5.86667V10.1333H14.9333V5.86667H13.8667ZM13.5979 11.0507L8.79787 13.8507L9.33547 14.7723L14.1355 11.9723L13.5979 11.0507ZM7.20213 13.8507L2.78293 11.2725L2.24533 12.1941L6.66453 14.7723L7.20213 13.8507ZM7.02293 2.10453L1.6896 10.1045L2.57707 10.6955L7.9104 2.69547L7.02293 2.10453ZM14.3104 10.1045L8.97707 2.10453L8.0896 2.69547L13.4229 10.6955L14.3104 10.1045ZM2.66667 11.7333H13.3333V10.6667H2.66667V11.7333ZM8 2.13333C7.85855 2.13333 7.7229 2.07714 7.62288 1.97712C7.52286 1.8771 7.46667 1.74145 7.46667 1.6H6.4C6.4 2.02435 6.56857 2.43131 6.86863 2.73137C7.16869 3.03143 7.57565 3.2 8 3.2V2.13333ZM8.53333 1.6C8.53333 1.74145 8.47714 1.8771 8.37712 1.97712C8.2771 2.07714 8.14145 2.13333 8 2.13333V3.2C8.42435 3.2 8.83131 3.03143 9.13137 2.73137C9.43143 2.43131 9.6 2.02435 9.6 1.6H8.53333ZM8 1.06667C8.14145 1.06667 8.2771 1.12286 8.37712 1.22288C8.47714 1.3229 8.53333 1.45855 8.53333 1.6H9.6C9.6 1.17565 9.43143 0.768687 9.13137 0.468629C8.83131 0.168571 8.42435 0 8 0V1.06667ZM8 0C7.57565 0 7.16869 0.168571 6.86863 0.468629C6.56857 0.768687 6.4 1.17565 6.4 1.6H7.46667C7.46667 1.45855 7.52286 1.3229 7.62288 1.22288C7.7229 1.12286 7.85855 1.06667 8 1.06667V0ZM14.4 5.33333C14.2586 5.33333 14.1229 5.27714 14.0229 5.17712C13.9229 5.0771 13.8667 4.94145 13.8667 4.8H12.8C12.8 5.22435 12.9686 5.63131 13.2686 5.93137C13.5687 6.23143 13.9757 6.4 14.4 6.4V5.33333ZM14.9333 4.8C14.9333 4.94145 14.8771 5.0771 14.7771 5.17712C14.6771 5.27714 14.5414 5.33333 14.4 5.33333V6.4C14.8243 6.4 15.2313 6.23143 15.5314 5.93137C15.8314 5.63131 16 5.22435 16 4.8H14.9333ZM14.4 4.26667C14.5414 4.26667 14.6771 4.32286 14.7771 4.42288C14.8771 4.5229 14.9333 4.65855 14.9333 4.8H16C16 4.37565 15.8314 3.96869 15.5314 3.66863C15.2313 3.36857 14.8243 3.2 14.4 3.2V4.26667ZM14.4 3.2C13.9757 3.2 13.5687 3.36857 13.2686 3.66863C12.9686 3.96869 12.8 4.37565 12.8 4.8H13.8667C13.8667 4.65855 13.9229 4.5229 14.0229 4.42288C14.1229 4.32286 14.2586 4.26667 14.4 4.26667V3.2ZM14.4 11.7333C14.2586 11.7333 14.1229 11.6771 14.0229 11.5771C13.9229 11.4771 13.8667 11.3414 13.8667 11.2H12.8C12.8 11.6243 12.9686 12.0313 13.2686 12.3314C13.5687 12.6314 13.9757 12.8 14.4 12.8V11.7333ZM14.9333 11.2C14.9333 11.3414 14.8771 11.4771 14.7771 11.5771C14.6771 11.6771 14.5414 11.7333 14.4 11.7333V12.8C14.8243 12.8 15.2313 12.6314 15.5314 12.3314C15.8314 12.0313 16 11.6243 16 11.2H14.9333ZM14.4 10.6667C14.5414 10.6667 14.6771 10.7229 14.7771 10.8229C14.8771 10.9229 14.9333 11.0586 14.9333 11.2H16C16 10.7757 15.8314 10.3687 15.5314 10.0686C15.2313 9.76857 14.8243 9.6 14.4 9.6V10.6667ZM14.4 9.6C13.9757 9.6 13.5687 9.76857 13.2686 10.0686C12.9686 10.3687 12.8 10.7757 12.8 11.2H13.8667C13.8667 11.0586 13.9229 10.9229 14.0229 10.8229C14.1229 10.7229 14.2586 10.6667 14.4 10.6667V9.6ZM8 14.9333C7.85855 14.9333 7.7229 14.8771 7.62288 14.7771C7.52286 14.6771 7.46667 14.5414 7.46667 14.4H6.4C6.4 14.8243 6.56857 15.2313 6.86863 15.5314C7.16869 15.8314 7.57565 16 8 16V14.9333ZM8.53333 14.4C8.53333 14.5414 8.47714 14.6771 8.37712 14.7771C8.2771 14.8771 8.14145 14.9333 8 14.9333V16C8.42435 16 8.83131 15.8314 9.13137 15.5314C9.43143 15.2313 9.6 14.8243 9.6 14.4H8.53333ZM8 13.8667C8.14145 13.8667 8.2771 13.9229 8.37712 14.0229C8.47714 14.1229 8.53333 14.2586 8.53333 14.4H9.6C9.6 13.9757 9.43143 13.5687 9.13137 13.2686C8.83131 12.9686 8.42435 12.8 8 12.8V13.8667ZM8 12.8C7.57565 12.8 7.16869 12.9686 6.86863 13.2686C6.56857 13.5687 6.4 13.9757 6.4 14.4H7.46667C7.46667 14.2586 7.52286 14.1229 7.62288 14.0229C7.7229 13.9229 7.85855 13.8667 8 13.8667V12.8ZM1.6 11.7333C1.45855 11.7333 1.3229 11.6771 1.22288 11.5771C1.12286 11.4771 1.06667 11.3414 1.06667 11.2H0C0 11.6243 0.168571 12.0313 0.468629 12.3314C0.768687 12.6314 1.17565 12.8 1.6 12.8V11.7333ZM2.13333 11.2C2.13333 11.3414 2.07714 11.4771 1.97712 11.5771C1.8771 11.6771 1.74145 11.7333 1.6 11.7333V12.8C2.02435 12.8 2.43131 12.6314 2.73137 12.3314C3.03143 12.0313 3.2 11.6243 3.2 11.2H2.13333ZM1.6 10.6667C1.74145 10.6667 1.8771 10.7229 1.97712 10.8229C2.07714 10.9229 2.13333 11.0586 2.13333 11.2H3.2C3.2 10.7757 3.03143 10.3687 2.73137 10.0686C2.43131 9.76857 2.02435 9.6 1.6 9.6V10.6667ZM1.6 9.6C1.17565 9.6 0.768687 9.76857 0.468629 10.0686C0.168571 10.3687 0 10.7757 0 11.2H1.06667C1.06667 11.0586 1.12286 10.9229 1.22288 10.8229C1.3229 10.7229 1.45855 10.6667 1.6 10.6667V9.6ZM1.6 5.33333C1.45855 5.33333 1.3229 5.27714 1.22288 5.17712C1.12286 5.0771 1.06667 4.94145 1.06667 4.8H0C0 5.22435 0.168571 5.63131 0.468629 5.93137C0.768687 6.23143 1.17565 6.4 1.6 6.4V5.33333ZM2.13333 4.8C2.13333 4.94145 2.07714 5.0771 1.97712 5.17712C1.8771 5.27714 1.74145 5.33333 1.6 5.33333V6.4C2.02435 6.4 2.43131 6.23143 2.73137 5.93137C3.03143 5.63131 3.2 5.22435 3.2 4.8H2.13333ZM1.6 4.26667C1.74145 4.26667 1.8771 4.32286 1.97712 4.42288C2.07714 4.5229 2.13333 4.65855 2.13333 4.8H3.2C3.2 4.37565 3.03143 3.96869 2.73137 3.66863C2.43131 3.36857 2.02435 3.2 1.6 3.2V4.26667ZM1.6 3.2C1.17565 3.2 0.768687 3.36857 0.468629 3.66863C0.168571 3.96869 0 4.37565 0 4.8H1.06667C1.06667 4.65855 1.12286 4.5229 1.22288 4.42288C1.3229 4.32286 1.45855 4.26667 1.6 4.26667V3.2Z" fill="#227BB1"/>
</svg>
