<svg width="15" height="14" viewBox="0 0 15 14" fill="none" xmlns="http://www.w3.org/2000/svg">
<path fill-rule="evenodd" clip-rule="evenodd" d="M7.5 0.875C4.1225 0.875 1.375 3.6225 1.375 7C1.375 10.3775 4.1225 13.125 7.5 13.125C10.8775 13.125 13.625 10.3775 13.625 7C13.625 3.6225 10.8775 0.875 7.5 0.875ZM7.5 12.25C4.60375 12.25 2.25 9.89625 2.25 7C2.25 4.10375 4.60375 1.75 7.5 1.75C10.3962 1.75 12.75 4.10375 12.75 7C12.75 9.89625 10.3962 12.25 7.5 12.25ZM7.48248 6.10748C7.24186 6.10748 7.04498 6.30436 7.04498 6.54498V10.045C7.04498 10.2856 7.24186 10.4825 7.48248 10.4825C7.72311 10.4825 7.91998 10.2856 7.91998 10.045V6.54498C7.91998 6.30436 7.72311 6.10748 7.48248 6.10748ZM6.84375 4.59375C6.84375 4.23062 7.13688 3.9375 7.5 3.9375C7.86312 3.9375 8.15625 4.23062 8.15625 4.59375C8.15625 4.95687 7.86312 5.25 7.5 5.25C7.13688 5.25 6.84375 4.95687 6.84375 4.59375Z" fill="#606162"/>
</svg>
