<svg width="17" height="16" viewBox="0 0 17 16" fill="none" xmlns="http://www.w3.org/2000/svg">
<path fill-rule="evenodd" clip-rule="evenodd" d="M16.168 8C16.168 12.4183 12.5862 16 8.16797 16C3.74969 16 0.167969 12.4183 0.167969 8C0.167969 3.58172 3.74969 0 8.16797 0C12.5862 0 16.168 3.58172 16.168 8ZM12.3871 13.162C11.2379 14.1024 9.76882 14.6667 8.16797 14.6667C4.48607 14.6667 1.5013 11.6819 1.5013 8C1.5013 6.39915 2.06555 4.93009 3.00601 3.78084L12.3871 13.162ZM13.3299 12.2192L3.94881 2.83804C5.09806 1.89758 6.56712 1.33333 8.16797 1.33333C11.8499 1.33333 14.8346 4.3181 14.8346 8C14.8346 9.60085 14.2704 11.0699 13.3299 12.2192Z" fill="#E2231A"/>
</svg>
