<svg width="14" height="14" viewBox="0 0 14 14" fill="none" xmlns="http://www.w3.org/2000/svg">
<path d="M10.0627 4.00195L5.66831 8.39639L3.94121 6.67596L3.00098 7.61619L5.66831 10.2835L11.003 4.94886L10.0627 4.00195Z" fill="#6A80A5"/>
<path fill-rule="evenodd" clip-rule="evenodd" d="M13.1077 8.39275L11.8518 8.05704C11.97 7.61503 12.0333 7.14925 12.0333 6.66667C12.0333 6.18409 11.97 5.71831 11.8518 5.27629L13.1077 4.94058C13.2549 5.49112 13.3333 6.06973 13.3333 6.66667C13.3333 7.2636 13.2549 7.84222 13.1077 8.39275ZM12.4411 3.3328L11.3159 3.98385C10.8444 3.16898 10.1644 2.48889 9.34948 2.01742L10.0005 0.892189C11.0122 1.47754 11.8558 2.32112 12.4411 3.3328ZM8.39275 0.225617L8.05704 1.48152C7.61503 1.36337 7.14925 1.3 6.66667 1.3C6.18409 1.3 5.71831 1.36337 5.27629 1.48152L4.94058 0.225618C5.49112 0.0784555 6.06973 0 6.66667 0C7.2636 0 7.84222 0.0784554 8.39275 0.225617ZM3.3328 0.89219L3.98385 2.01742C3.16898 2.4889 2.48889 3.16898 2.01742 3.98385L0.892189 3.3328C1.47754 2.32112 2.32112 1.47754 3.3328 0.89219ZM0.225617 4.94058C0.0784554 5.49112 0 6.06973 0 6.66667C0 7.2636 0.0784556 7.84222 0.225618 8.39276L1.48152 8.05704C1.36337 7.61503 1.3 7.14925 1.3 6.66667C1.3 6.18409 1.36337 5.71831 1.48152 5.27629L0.225617 4.94058ZM0.89219 10.0005L2.01742 9.34949C2.4889 10.1644 3.16898 10.8444 3.98385 11.3159L3.3328 12.4411C2.32112 11.8558 1.47754 11.0122 0.89219 10.0005ZM4.94058 13.1077L5.27629 11.8518C5.71831 11.97 6.18409 12.0333 6.66667 12.0333C7.14925 12.0333 7.61503 11.97 8.05704 11.8518L8.39276 13.1077C7.84222 13.2549 7.2636 13.3333 6.66667 13.3333C6.06973 13.3333 5.49112 13.2549 4.94058 13.1077ZM10.0005 12.4411L9.34949 11.3159C10.1644 10.8444 10.8444 10.1644 11.3159 9.34948L12.4411 10.0005C11.8558 11.0122 11.0122 11.8558 10.0005 12.4411Z" fill="#6A80A5"/>
</svg>
