<svg width="23" height="26" viewBox="0 0 23 26" fill="none" xmlns="http://www.w3.org/2000/svg">
<path d="M22.592 12.2499C21.9639 8.54682 19.5545 5.41557 16.142 3.85932C15.6733 3.6437 15.1108 3.85932 14.9045 4.32807C14.6889 4.79682 14.9045 5.35932 15.3733 5.56557C18.2233 6.85932 20.2295 9.47495 20.7545 12.5593C21.617 17.6687 18.167 22.5249 13.0764 23.3874C10.6108 23.8093 8.12641 23.2374 6.08266 21.7843C4.03891 20.3312 2.68891 18.1656 2.26703 15.6906C1.48891 11.0593 4.24516 6.6437 8.56703 5.2187L7.55453 6.39057C7.21703 6.78432 7.26391 7.37495 7.64828 7.71245C7.82641 7.86245 8.04203 7.93745 8.25766 7.93745C8.52016 7.93745 8.78266 7.82495 8.97016 7.60932L12.317 3.73745L8.15453 0.765573C7.73266 0.465573 7.15141 0.559323 6.84203 0.981198C6.54203 1.40307 6.63578 1.98432 7.05766 2.2937L8.44516 3.27807C2.99828 4.82495 -0.545467 10.2812 0.420158 15.9999C0.917033 18.9718 2.54828 21.5687 4.99516 23.3124C6.91703 24.6812 9.17641 25.4031 11.492 25.4031C12.1202 25.4031 12.7577 25.3468 13.3858 25.2437C19.4983 24.2124 23.6327 18.3812 22.6014 12.2499H22.592Z" fill="#227BB1"/>
</svg>
