<svg width="32" height="32" viewBox="0 0 32 32" fill="none" xmlns="http://www.w3.org/2000/svg">
<path fill-rule="evenodd" clip-rule="evenodd" d="M16 0C7.16333 0 0 7.164 0 16C0 24.8367 7.16333 32 16 32C24.8367 32 32 24.8367 32 16C32 7.164 24.8367 0 16 0ZM16 29.3333C8.648 29.3333 2.66667 23.3513 2.66667 16C2.66667 8.648 8.648 2.66667 16 2.66667C23.352 2.66667 29.3333 8.648 29.3333 16C29.3333 23.3513 23.352 29.3333 16 29.3333ZM13.3333 11.8073C13.3333 11.5033 13.47 11.3333 13.6713 11.3333C13.77 11.3333 13.884 11.374 14.0047 11.4587L20.6667 15.9953L14.0053 20.51C13.884 20.5947 13.77 20.6353 13.672 20.6353C13.47 20.6353 13.3333 20.4647 13.3333 20.1613V11.8073Z" fill="#227BB1"/>
</svg>
