<svg width="15" height="10" viewBox="0 0 15 10" fill="none" xmlns="http://www.w3.org/2000/svg">
<path fill-rule="evenodd" clip-rule="evenodd" d="M14.8196 9.09481C15.0601 8.84037 15.0601 8.42784 14.8196 8.1734L8.15949 1.12893C7.91893 0.874492 7.52891 0.874492 7.28835 1.12893C7.04779 1.38338 7.04779 1.79591 7.28835 2.05035L13.9484 9.09481C14.189 9.34925 14.579 9.34925 14.8196 9.09481Z" fill="#005073"/>
<path fill-rule="evenodd" clip-rule="evenodd" d="M3.93427 7.73403C2.44183 7.73403 1.23198 6.45435 1.23198 4.87578C1.23198 3.29722 2.44183 2.01754 3.93427 2.01754C4.34662 2.01754 4.73578 2.11478 5.08386 2.28816C5.39165 2.44146 5.75865 2.30183 5.90359 1.97629C6.04852 1.65074 5.91651 1.26256 5.60873 1.10926C5.09991 0.855818 4.53184 0.714459 3.93427 0.714459C1.76143 0.714459 0 2.57755 0 4.87578C0 7.17402 1.76143 9.03711 3.93427 9.03711C4.69059 9.03711 5.39881 8.81073 5.99951 8.41823C6.28894 8.22912 6.37862 7.82764 6.19983 7.52151C6.02103 7.21538 5.64146 7.12051 5.35204 7.30963C4.9403 7.57866 4.45538 7.73403 3.93427 7.73403Z" fill="#00BCEB"/>
<path d="M9.95606 5.16667L8.28516 6.75977V3.54868L9.95606 5.16667Z" fill="#6ABF4B"/>
<path fill-rule="evenodd" clip-rule="evenodd" d="M7.28979 9.09481C7.53035 9.34925 7.92037 9.34925 8.16093 9.09481L14.821 2.05035C15.0616 1.79591 15.0616 1.38338 14.821 1.12893C14.5805 0.874492 14.1904 0.874492 13.9499 1.12893L7.28979 8.1734C7.04924 8.42784 7.04924 8.84037 7.28979 9.09481Z" fill="#FBAB18"/>
</svg>
