<svg width="11" height="10" viewBox="0 0 11 10" fill="none" xmlns="http://www.w3.org/2000/svg">
<path fill-rule="evenodd" clip-rule="evenodd" d="M1.5 4.49578L5.98965 8.99043C5.99302 8.99347 5.99604 8.99571 5.99849 8.9973L9.49789 5.49789C9.49777 5.49776 9.49803 5.49803 9.49789 5.49789L5.0008 1.00001C5.00056 1 5.00109 1.00001 5.0008 1.00001L3.83114 1C3.94128 1.23221 4 1.48808 4 1.75C4 2.21413 3.81563 2.65925 3.48744 2.98744C3.15925 3.31563 2.71413 3.5 2.25 3.5C1.98808 3.5 1.73221 3.44128 1.5 3.33114V4.49578ZM1.5 1.75C1.5 1.94891 1.57902 2.13968 1.71967 2.28033C1.86032 2.42098 2.05109 2.5 2.25 2.5C2.44891 2.5 2.63968 2.42098 2.78033 2.28033C2.92098 2.13968 3 1.94891 3 1.75C3 1.55109 2.92098 1.36032 2.78033 1.21967C2.63968 1.07902 2.44891 1 2.25 1C2.05109 1 1.86032 1.07902 1.71967 1.21967C1.57902 1.36032 1.5 1.55109 1.5 1.75ZM5.29 9.705L0.795 5.205C0.61 5.025 0.5 4.775 0.5 4.5V1C0.5 0.445 0.945 0 1.5 0H5C5.275 0 5.525 0.11 5.705 0.29L10.205 4.79C10.385 4.97 10.5 5.22 10.5 5.5C10.5 5.775 10.39 6.025 10.205 6.205L6.705 9.705C6.525 9.885 6.275 10 6 10C5.725 10 5.475 9.885 5.29 9.705Z" fill="#399E20"/>
</svg>
