<svg width="21" height="20" viewBox="0 0 21 20" fill="none" xmlns="http://www.w3.org/2000/svg">
<path fill-rule="evenodd" clip-rule="evenodd" d="M18.793 4.09375H16.143C16.0242 2.50625 14.668 1.25 12.9992 1.25H8.33672C6.66797 1.25 5.31172 2.50625 5.19297 4.09375H2.54297C2.19922 4.09375 1.91797 4.375 1.91797 4.71875V7.5875C1.91797 7.93125 2.19922 8.2125 2.54297 8.2125H3.79297L4.56172 18.1688C4.58672 18.4937 4.85547 18.7437 5.18672 18.7437H16.1555C16.4805 18.7437 16.7555 18.4937 16.7805 18.1688L17.5492 8.2125H18.7992C19.143 8.2125 19.4242 7.93125 19.4242 7.5875V4.71875C19.4242 4.375 19.143 4.09375 18.7992 4.09375H18.793ZM8.33672 2.5H12.9992C13.9805 2.5 14.7805 3.2 14.893 4.09375H6.44297C6.56172 3.2 7.36172 2.5 8.33672 2.5ZM15.5742 17.5H5.76172L5.04922 8.2125H16.2867L15.5742 17.5ZM18.168 6.9625H17.1055C17.1055 6.9625 17.0492 6.9375 17.018 6.9375C16.943 6.93125 16.868 6.9375 16.793 6.9625H4.54297C4.47422 6.94375 4.39922 6.93125 4.32422 6.9375C4.30388 6.9375 4.28354 6.94544 4.26493 6.95271L4.26493 6.95271C4.25494 6.95661 4.24545 6.96032 4.23672 6.9625H3.17422V5.34375H18.1742V6.9625H18.168ZM8.91168 16.4375C9.25543 16.4375 9.53668 16.1563 9.53668 15.8125V9.87503C9.53668 9.53128 9.25543 9.25003 8.91168 9.25003C8.56793 9.25003 8.28668 9.53128 8.28668 9.87503V15.8125C8.28668 16.1563 8.56793 16.4375 8.91168 16.4375ZM13.0493 15.8125C13.0493 16.1563 12.768 16.4375 12.4243 16.4375C12.0805 16.4375 11.7993 16.1563 11.7993 15.8125V9.87503C11.7993 9.53128 12.0805 9.25003 12.4243 9.25003C12.768 9.25003 13.0493 9.53128 13.0493 9.87503V15.8125Z" fill="#227BB1"/>
</svg>
